<svg id="Layer_1" data-name="Layer 1" xmlns="http://www.w3.org/2000/svg" xmlns:xlink="http://www.w3.org/1999/xlink" viewBox="0 0 157.1118 82.5678"><defs><style>.cls-1,.cls-7{fill:none;}.cls-2{fill:#f6aa38;}.cls-3{isolation:isolate;}.cls-4{fill:#fff;}.cls-5{fill:url(#linear-gradient);}.cls-6{clip-path:url(#clip-path);}.cls-7{stroke:#000;stroke-miterlimit:10;}.cls-8{fill:url(#linear-gradient-2);}.cls-9{clip-path:url(#clip-path-2);}</style><linearGradient id="linear-gradient" x1="-311.3929" y1="346.3742" x2="-311.3929" y2="346.8342" gradientTransform="matrix(155.8277, 0, 0, -23.4335, 48601.5401, 8043.861)" gradientUnits="userSpaceOnUse"><stop offset="0" stop-color="#cf8d5d"/><stop offset="0.489" stop-color="#ad6830"/><stop offset="0.689" stop-color="#6e3f12"/><stop offset="1" stop-color="#cf8d5d"/></linearGradient><clipPath id="clip-path" transform="translate(-0.0021 0.0548)"><path class="cls-1" d="M124.313,11.013v.3l30.4-3a1.155,1.155,0,0,0,1.1084-1.2q-.002-.05-.0083-.1l-.6-5.9a1.208,1.208,0,0,0-1.3-1.1l-30.5,4a.908.908,0,0,1,.3.7Z"/></clipPath><linearGradient id="linear-gradient-2" x1="-311.408" y1="347.8159" x2="-311.408" y2="348.5549" gradientTransform="matrix(156.4024, 0, 0, -13.2, 48783.881, 4498.3146)" xlink:href="#linear-gradient"/><clipPath id="clip-path-2" transform="translate(-0.0021 0.0548)"><path class="cls-1" d="M125.313,24.613v.3l30.5-.8a1.216,1.216,0,0,0,1.2-1.2l-.2-6a1.24,1.24,0,0,0-1.2779-1.2009l-.0221.0009-30.7,1.7a1.08,1.08,0,0,1,.3.7Z"/></clipPath></defs><title>chop</title><g id="Group_503" data-name="Group 503"><path id="Path_1089" data-name="Path 1089" class="cls-2" d="M156.013,61.313H1.413a1,1,0,0,1-1-1v-23a1,1,0,0,1,1-1h154.6a1,1,0,0,1,1,1v23a.945.945,0,0,1-1,1Z" transform="translate(-0.0021 0.0548)"/><rect id="Rectangle_12" data-name="Rectangle 12" class="cls-1" x="4.9109" y="42.1678" width="149.8" height="17"/><g id="sTART_TO_oRDER" data-name="sTART TO oRDER" class="cls-3"><g class="cls-3"><path class="cls-4" d="M14.4443,51.0156a3.7182,3.7182,0,0,1-1.2568,2.6631,4.0829,4.0829,0,0,1-2.8477,1.09,5.2933,5.2933,0,0,1-2.5664-.6152A3.3337,3.3337,0,0,1,6.042,52.0088a1.0151,1.0151,0,0,1,.1055-.7822A.9977.9977,0,0,1,6.78,50.752a1.0151,1.0151,0,0,1,.7822.1055.9977.9977,0,0,1,.4746.6328,1.457,1.457,0,0,0,.8613.9229,3.423,3.423,0,0,0,1.4414.29,2.0681,2.0681,0,0,0,1.415-.5186,1.7092,1.7092,0,0,0,.6328-1.2656,1.09,1.09,0,0,0-.3252-.8174,2.4743,2.4743,0,0,0-1.8281-.5977H10.19a4.4344,4.4344,0,0,1-3.2959-1.2393,3.076,3.076,0,0,1-.8789-2.3291,3.7269,3.7269,0,0,1,1.2568-2.6719,4.0627,4.0627,0,0,1,2.8477-1.09,5.2933,5.2933,0,0,1,2.5664.6152,3.3337,3.3337,0,0,1,1.7314,2.1445.9933.9933,0,0,1-.1143.7822.9665.9665,0,0,1-.624.4746,1.0151,1.0151,0,0,1-.7822-.1055.9977.9977,0,0,1-.4746-.6328,1.4572,1.4572,0,0,0-.87-.9229,3.3633,3.3633,0,0,0-1.4326-.29,2.1008,2.1008,0,0,0-1.4238.5186,1.74,1.74,0,0,0-.624,1.2656,1.1177,1.1177,0,0,0,.3252.8262,2.4987,2.4987,0,0,0,1.8281.5889H10.27a4.416,4.416,0,0,1,3.2959,1.248A3.06,3.06,0,0,1,14.4443,51.0156Z" transform="translate(-0.0021 0.0548)"/><path class="cls-4" d="M19.7529,44.2217h-2.61a1.0069,1.0069,0,0,1-.7383-.3076,1.04,1.04,0,0,1,0-1.459,1.0069,1.0069,0,0,1,.7383-.3076h7.3037a1.0371,1.0371,0,0,1,0,2.0742H21.8271v9.51a1.0069,1.0069,0,0,1-.3076.7383,1.04,1.04,0,0,1-1.459,0,1.0069,1.0069,0,0,1-.3076-.7383Z" transform="translate(-0.0021 0.0548)"/><path class="cls-4" d="M26.8984,54.6895a1.0364,1.0364,0,0,1-.5625-1.3535l1.1162-2.6807v-.0088l3.2344-7.8047a.6149.6149,0,0,1,.0439-.0879l.0176-.0439a.5319.5319,0,0,1,.0352-.0439.1286.1286,0,0,1,.0264-.0439l.0352-.0352q0-.0088.0264-.0352.0352-.0352.0352-.0439a.2618.2618,0,0,1,.0352-.0264q.0352-.0352.0439-.0352-.0088,0,.0352-.0264a.5319.5319,0,0,0,.0439-.0352l.0352-.0264a.1927.1927,0,0,1,.0527-.0264q.0176-.0088.0615-.0264.0439-.0264.0264-.0176l.0352-.0176a.2725.2725,0,0,0,.0615-.0176.3673.3673,0,0,0,.0615-.0176l.0352-.0088a.37.37,0,0,0,.0615-.0088l.0439-.0088h.2021l.0527.0088.0439.0088a.2015.2015,0,0,1,.0615.0176q.0527.0088.0352.0088a.7063.7063,0,0,1,.1934.0791q-.0088-.0088.0352.0176a.3737.3737,0,0,1,.0527.0352l.0352.0264a.5319.5319,0,0,1,.0439.0352q.0088,0,.0352.0264a.1885.1885,0,0,0,.0439.0352q0,.0088.0264.0352.0352.0352.0352.0439l.0264.0352q.0352.0352.0352.0439a.1286.1286,0,0,0,.0264.0439.1286.1286,0,0,1,.0264.0439.6149.6149,0,0,1,.0439.0879l3.2344,7.8047v.0088l1.1162,2.6807a1.0379,1.0379,0,0,1-.958,1.4326.9568.9568,0,0,1-.958-.6416l-.8437-2.0391H29.0957L28.252,54.127a.9568.9568,0,0,1-.958.6416h-.2021Zm6.4336-4.667-1.6963-4.0781-1.6875,4.0781Z" transform="translate(-0.0021 0.0548)"/><path class="cls-4" d="M47.4385,45.8125a3.3688,3.3688,0,0,1-.7207,2.1006A3.7735,3.7735,0,0,1,44.89,49.24l1.9951,4.043a1.0473,1.0473,0,0,1-.4746,1.38,1.044,1.044,0,0,1-.457.1055.9553.9553,0,0,1-.9229-.58l-2.3291-4.72H40.917v4.1924A1.0353,1.0353,0,0,1,39.88,54.6895a1.02,1.02,0,0,1-1.0283-1.0283V43.1846A1.0353,1.0353,0,0,1,39.88,42.1475h3.6387A3.899,3.899,0,0,1,46.2871,43.22,3.4144,3.4144,0,0,1,47.4385,45.8125Zm-3.85,1.5908a1.9809,1.9809,0,0,0,1.2656-.4834,1.4469,1.4469,0,0,0-.0264-2.2412,1.9482,1.9482,0,0,0-1.31-.4658H40.917v3.19Z" transform="translate(-0.0021 0.0548)"/><path class="cls-4" d="M52.29,44.2217H49.68a1.0069,1.0069,0,0,1-.7383-.3076,1.04,1.04,0,0,1,0-1.459,1.0069,1.0069,0,0,1,.7383-.3076h7.3037a1.0371,1.0371,0,0,1,0,2.0742H54.3643v9.51a1.0069,1.0069,0,0,1-.3076.7383,1.04,1.04,0,0,1-1.459,0,1.0069,1.0069,0,0,1-.3076-.7383Z" transform="translate(-0.0021 0.0548)"/><path class="cls-4" d="M66.66,44.2217H64.05a1.0069,1.0069,0,0,1-.7383-.3076,1.04,1.04,0,0,1,0-1.459,1.0069,1.0069,0,0,1,.7383-.3076h7.3037a1.0371,1.0371,0,0,1,0,2.0742H68.7344v9.51a1.0069,1.0069,0,0,1-.3076.7383,1.04,1.04,0,0,1-1.459,0,1.0069,1.0069,0,0,1-.3076-.7383Z" transform="translate(-0.0021 0.0548)"/><path class="cls-4" d="M79.5186,54.7686a6.308,6.308,0,0,1-4.4561-10.7754,6.308,6.308,0,1,1,4.4561,10.7754Zm0-10.5469a4.2311,4.2311,0,1,0,2.9971,1.2393A4.0726,4.0726,0,0,0,79.5186,44.2217Z" transform="translate(-0.0021 0.0548)"/><path class="cls-4" d="M98.9775,54.7686a6.308,6.308,0,0,1-4.4561-10.7754,6.308,6.308,0,1,1,4.4561,10.7754Zm0-10.5469a4.2311,4.2311,0,1,0,2.9971,1.2393A4.0726,4.0726,0,0,0,98.9775,44.2217Z" transform="translate(-0.0021 0.0548)"/><path class="cls-4" d="M116.3271,45.8125a3.3688,3.3688,0,0,1-.7207,2.1006,3.7735,3.7735,0,0,1-1.8281,1.3271l1.9951,4.043a1.0473,1.0473,0,0,1-.4746,1.38,1.044,1.044,0,0,1-.457.1055.9553.9553,0,0,1-.9229-.58l-2.3291-4.72h-1.7842v4.1924a1.0353,1.0353,0,0,1-1.0371,1.0283,1.02,1.02,0,0,1-1.0283-1.0283V43.1846a1.0353,1.0353,0,0,1,1.0283-1.0371h3.6387a3.899,3.899,0,0,1,2.7686,1.0723A3.4144,3.4144,0,0,1,116.3271,45.8125Zm-3.85,1.5908a1.9809,1.9809,0,0,0,1.2656-.4834,1.4469,1.4469,0,0,0-.0264-2.2412,1.9482,1.9482,0,0,0-1.31-.4658h-2.6016v3.19Z" transform="translate(-0.0021 0.0548)"/><path class="cls-4" d="M119.5879,54.7686a1.0352,1.0352,0,0,1-1.0371-1.0371V43.2109a1.0069,1.0069,0,0,1,.3076-.7383.9925.9925,0,0,1,.7295-.2988h2.6631a6.28,6.28,0,1,1,0,12.56l-2.6455.0352Zm1.0459-2.0918,1.6084-.0264a4.2012,4.2012,0,0,0,.0088-8.4023h-1.6172Z" transform="translate(-0.0021 0.0548)"/><path class="cls-4" d="M138.5107,52.6855a.9783.9783,0,0,1,.7295.3076,1.0069,1.0069,0,0,1,.3076.7383,1.0506,1.0506,0,0,1-1.0371,1.0371h-6.3633a1.0506,1.0506,0,0,1-1.0371-1.0371V43.1934a.9884.9884,0,0,1,.3076-.7383.9783.9783,0,0,1,.7295-.3076h.0088l6.3545.0176a1.0069,1.0069,0,0,1,.7383.3076,1.0219,1.0219,0,0,1,.2988.7383,1.0506,1.0506,0,0,1-1.0371,1.0371h-.0088l-5.3086-.0176v3.19h3.832a1.0219,1.0219,0,0,1,.7383.2988,1.04,1.04,0,0,1,0,1.4766,1.0219,1.0219,0,0,1-.7383.2988h-3.832v3.19Z" transform="translate(-0.0021 0.0548)"/><path class="cls-4" d="M150.06,45.8125a3.3688,3.3688,0,0,1-.7207,2.1006,3.7735,3.7735,0,0,1-1.8281,1.3271l1.9951,4.043a1.0473,1.0473,0,0,1-.4746,1.38,1.044,1.044,0,0,1-.457.1055.9553.9553,0,0,1-.9229-.58l-2.3291-4.72h-1.7842v4.1924a1.0353,1.0353,0,0,1-1.0371,1.0283,1.02,1.02,0,0,1-1.0283-1.0283V43.1846a1.0353,1.0353,0,0,1,1.0283-1.0371H146.14a3.899,3.899,0,0,1,2.7686,1.0723A3.4144,3.4144,0,0,1,150.06,45.8125Zm-3.85,1.5908a1.9809,1.9809,0,0,0,1.2656-.4834,1.4469,1.4469,0,0,0-.0264-2.2412,1.9482,1.9482,0,0,0-1.31-.4658h-2.6016v3.19Z" transform="translate(-0.0021 0.0548)"/></g></g><path id="Path_1090" data-name="Path 1090" class="cls-2" d="M75.313,82.513l13.3-22.9h-26.5Z" transform="translate(-0.0021 0.0548)"/><g id="Group_497" data-name="Group 497"><g id="Group_493" data-name="Group 493"><path id="Path_1091" data-name="Path 1091" class="cls-5" d="M1.513,23.413a1.109,1.109,0,0,1-1.3-1.1l-.2-1.6a1.244,1.244,0,0,1,1.07-1.3964l.03-.0036,152.8-19.3a1.109,1.109,0,0,1,1.3,1.1l.6,5.9a1.109,1.109,0,0,1-1.1,1.3Z" transform="translate(-0.0021 0.0548)"/></g><g id="Group_494" data-name="Group 494"><path id="Path_1092" data-name="Path 1092" class="cls-2" d="M124.313,11.013v.3l30.4-3a1.155,1.155,0,0,0,1.1084-1.2q-.002-.05-.0083-.1l-.6-5.9a1.208,1.208,0,0,0-1.3-1.1l-30.5,4a.908.908,0,0,1,.3.7Z" transform="translate(-0.0021 0.0548)"/></g><g id="Group_496" data-name="Group 496"><g class="cls-6"><g id="Group_495" data-name="Group 495"><line id="Line_1" data-name="Line 1" class="cls-7" x1="149.4109" y1="9.5678" x2="148.1109" y2="0.0678"/><line id="Line_2" data-name="Line 2" class="cls-7" x1="146.2109" y1="10.0678" x2="144.9109" y2="0.4678"/></g></g></g></g><g id="Group_502" data-name="Group 502"><g id="Group_498" data-name="Group 498"><path id="Path_1094" data-name="Path 1094" class="cls-8" d="M2.013,28.913a1.3,1.3,0,0,1-1.3-1.2v-1.6a1.24,1.24,0,0,1,1.1779-1.2991l.0221-.0009,153.7-9.1a1.305,1.305,0,0,1,1.3,1.2l.2,6a1.155,1.155,0,0,1-1.1082,1.2q-.0459.0018-.0918,0Z" transform="translate(-0.0021 0.0548)"/></g><g id="Group_499" data-name="Group 499"><path id="Path_1095" data-name="Path 1095" class="cls-2" d="M125.313,24.613v.3l30.5-.8a1.216,1.216,0,0,0,1.2-1.2l-.2-6a1.24,1.24,0,0,0-1.2779-1.2009l-.0221.0009-30.7,1.7a1.08,1.08,0,0,1,.3.7Z" transform="translate(-0.0021 0.0548)"/></g><g id="Group_501" data-name="Group 501"><g class="cls-9"><g id="Group_500" data-name="Group 500"><line id="Line_3" data-name="Line 3" class="cls-7" x1="150.4109" y1="25.0678" x2="149.8109" y2="15.3678"/><line id="Line_4" data-name="Line 4" class="cls-7" x1="147.2109" y1="25.2678" x2="146.6109" y2="15.6678"/></g></g></g></g></g></svg>