<svg xmlns="http://www.w3.org/2000/svg" viewBox="405 1121 214 194.955">
  <defs>
    <style>
      .cls-1 {
        opacity: 0.35;
      }

      .cls-2 {
        fill: #053b3f;
      }

      .cls-3 {
        fill: #fff;
      }

      .cls-4 {
        fill: #ff4255;
      }

      .cls-5 {
        fill: #ffce6e;
      }

      .cls-6, .cls-9 {
        fill: #010002;
      }

      .cls-7 {
        fill: #c1c1c1;
      }

      .cls-8 {
        fill: none;
      }

      .cls-9 {
        font-size: 37px;
        font-family: Moon-Bold, Moon;
        font-weight: 700;
      }
    </style>
  </defs>
  <g id="Group_517" data-name="Group 517" transform="translate(405 1120.974)">
    <g id="Group_516" data-name="Group 516">
      <g id="Group_504" data-name="Group 504" class="cls-1">
        <path id="Path_1097" data-name="Path 1097" class="cls-2" d="M117.3,68.5s-50.9-6.7-54.7,12c0,0-18.5,47.3-2.6,59,12.6,9.2,32.9,10.1,62.4,1.2"/>
        <path id="Path_1098" data-name="Path 1098" class="cls-2" d="M90.2,68.9s50.7-8.4,55,10.2c0,0,20.1,46.7,4.5,58.8-12.3,9.6-32.5,11.2-62.3,3.2"/>
        <path id="Path_1099" data-name="Path 1099" class="cls-2" d="M149.6,52.6a32.7,32.7,0,0,1-32.1,33.2l-26.8.4A32.7,32.7,0,0,1,57.5,54.1l-.1-4.6A32.7,32.7,0,0,1,89.5,16.3l26.8-.4A32.7,32.7,0,0,1,149.5,48Z"/>
        <path id="Path_1100" data-name="Path 1100" class="cls-2" d="M117.4,85.8l-26.8.4a64.614,64.614,0,0,1-17.8-2,32.209,32.209,0,0,0,17.9,5l26.8-.4a31.784,31.784,0,0,0,17.7-5.6A67.439,67.439,0,0,1,117.4,85.8Z"/>
        <path id="Path_1101" data-name="Path 1101" class="cls-2" d="M104,88.4a8.6,8.6,0,1,0,8.7,8.5A8.475,8.475,0,0,0,104,88.4Zm.2,4.1a3.18,3.18,0,0,0,2.9-1.1,1.21,1.21,0,0,1,1.4-.2.744.744,0,0,1,.1,1.2,2.177,2.177,0,0,1-.8.5,8.753,8.753,0,0,0-2.2,1c-.1.1-.2.1-.3.2a1.4,1.4,0,0,1-1.2-.2,1.235,1.235,0,0,1-.4-.8C103.7,92.6,103.8,92.4,104.2,92.5Zm-2.8-1.4a5.91,5.91,0,0,1,1.4.6l.3.3a1.162,1.162,0,0,1,0,1c-.1.2-.3.2-.6.2a1.605,1.605,0,0,1-1.6-1.7C100.9,91.2,101.1,91,101.4,91.1Zm8.7,9.9c-.8,1.1-3.4,2.2-5.2,1.3a2.432,2.432,0,0,1-1-3.5c0-.1.1-.1.1-.2a.215.215,0,0,0-.2-.2h-.2c-.3-.1-.5-.1-.8-.2-.2-.1-.3-.1-.5-.2a4.2,4.2,0,0,1-.5-.2.765.765,0,0,0,.2-.5.317.317,0,0,0-.6-.1c0,.1,0,.2.2.4l.1.1a.1.1,0,0,0,.1.1,2.054,2.054,0,0,1,.6.8,1.412,1.412,0,0,1,.1.9v.4a6.7,6.7,0,0,0,0,2,.876.876,0,0,1-.5,1,.9.9,0,0,1-1,0,1.6,1.6,0,0,1-.4-1.5,6.149,6.149,0,0,0,.3-1.1,13.553,13.553,0,0,0-.2-2c0-.1-.3-.2-.4-.1-.2.1-.4.3-.6.4-.4.3-.9.6-1.3.9a.367.367,0,0,1-.3.1c-.1,0-.4,0-.4-.1s0-.4.1-.5c.6-.5,1.3-1,1.9-1.6.3-.3.6-.7.9-1,.5-.6.9-1.1.9-1.1l-.6.2c-.2.1-.3.2-.5.2a1.507,1.507,0,0,1-2-.8,1.1,1.1,0,0,1,.3-1.2.775.775,0,0,1,1,.2,1.54,1.54,0,0,0,1.6.2c.3-.1.6-.3.9-.4a.714.714,0,0,1,1,.3c.2.2.2.5.4.8a.781.781,0,0,0,.4.4c.1,0,.2-.1.4-.2a3.508,3.508,0,0,1,.8-.5c.2,0,.5.1.5.2a.878.878,0,0,1-.1.7c-.2.4-.2.7.2.8a3.083,3.083,0,0,0,1,.1.753.753,0,0,0,.6-1.1,2.092,2.092,0,0,0-.4-.6q-.3-.6.3-.6c1,.1,2,.7,1.6,2a1.854,1.854,0,0,1-1.4,1.3c-.3.1-.5.1-.8.2a1.281,1.281,0,0,0-1,1.1c0,.1-.1.3-.1.4-.1.2,0,.6.3.5.1,0,.1-.2.2-.4.1-.3.1-.6.2-.8a.758.758,0,0,1,.4-.2.319.319,0,0,1,.3.3,1.268,1.268,0,0,1,.1.6c0,.4.2.5.5.5h.5c.1,0,.3.1.3.2a.758.758,0,0,1-.2.4l-.6.3a.642.642,0,0,0-.5.5c-.1.3-.2.6-.4.7-.3.3-.7.2-.8-.3s-.3-.6-.8-.6h-.2c-.1,0-.3.3-.1.6a.918.918,0,0,0,.6.4,3.26,3.26,0,0,0,3.1-.9,1.406,1.406,0,0,0-.6-2.3c-.2-.1-.5-.1-.7-.2a1.381,1.381,0,0,1-.3-.4c0-.1.2-.2.3-.3h.2a3.194,3.194,0,0,1,2.4,1.1C110.7,99.1,110.6,100.3,110.1,101Z"/>
        <path id="Path_1102" data-name="Path 1102" class="cls-2" d="M105.5,97.6h.1a.1.1,0,0,0,.1-.1,2.954,2.954,0,0,0-.6-.3c-.3-.1-.4,0-.6.2-.1.1-.2.1-.3.2-.1,0-.2.2-.3.4l.1.2c.1,0,.3-.1.3-.2C104.7,97.6,105.1,97.7,105.5,97.6Z"/>
        <path id="Path_1103" data-name="Path 1103" class="cls-2" d="M102.9,95.9c-.3.3-.3.5.1.4a1,1,0,0,0,.5-.4v-.2C103.6,95.5,103.3,95.6,102.9,95.9Z"/>
        <path id="Path_1104" data-name="Path 1104" class="cls-2" d="M64.4,28.7s8.5-35.8,25-19.9c0,0,4.6,5.8,6,9.3Z"/>
        <path id="Path_1105" data-name="Path 1105" class="cls-2" d="M67.4,26.3S74.3-2.6,87.6,10.2c0,0,3.7,4.7,4.8,7.5Z"/>
        <path id="Path_1106" data-name="Path 1106" class="cls-2" d="M141.7,27.4S132-8.1,116.1,8.4c0,0-4.4,5.9-5.7,9.5Z"/>
        <path id="Path_1107" data-name="Path 1107" class="cls-2" d="M138.7,25.2S130.9-3.5,118,9.8c0,0-3.6,4.8-4.6,7.7Z"/>
        <path id="Path_1108" data-name="Path 1108" class="cls-2" d="M80.6,60.6a11.961,11.961,0,0,1-3.2,1.1,14.242,14.242,0,0,1-3.4.4,6.454,6.454,0,0,1-1.6-.2,6.948,6.948,0,0,1,1.4-.8A11.961,11.961,0,0,1,77,60a14.242,14.242,0,0,1,3.4-.4,6.454,6.454,0,0,1,1.6.2A6.948,6.948,0,0,1,80.6,60.6Zm55.1.5a21.176,21.176,0,0,1-3.4-.2,17.379,17.379,0,0,1-3.2-1,6.949,6.949,0,0,1-1.4-.8,6.454,6.454,0,0,1,1.6-.2,21.176,21.176,0,0,1,3.4.2,12.074,12.074,0,0,1,3.2,1,6.948,6.948,0,0,1,1.4.8S136.7,61,135.7,61.1Zm3.7-6.3a18.187,18.187,0,0,1,2.4.5s-1,.3-2.4.6a36.78,36.78,0,0,1-5.3.5,42.173,42.173,0,0,1-5.3-.3,18.187,18.187,0,0,1-2.4-.5s1-.3,2.4-.6a36.78,36.78,0,0,1,5.3-.5A39.98,39.98,0,0,1,139.4,54.8Zm-12.9-2.6s.6-.3,1.4-.6a18.434,18.434,0,0,1,3-.8c1.1-.2,2.2-.3,3-.5a4.649,4.649,0,0,0,.9-.3.747.747,0,0,0,.3-.3s.1.1,0,.5a2.045,2.045,0,0,1-.7,1,7.373,7.373,0,0,1-3.1,1.4,12.1,12.1,0,0,1-3.3,0A4.864,4.864,0,0,1,126.5,52.2Zm-11-8.5A10.086,10.086,0,0,1,129.4,41a1.373,1.373,0,0,1-1.5,2.3,7.209,7.209,0,0,0-10,1.9,1.382,1.382,0,0,1-1.1.6,1.884,1.884,0,0,1-.8-.2A1.288,1.288,0,0,1,115.5,43.7ZM97.7,61.6a14.065,14.065,0,0,0,4.9-3.1,12.642,12.642,0,0,0,2.9-5c0-.1.1-.2.1-.3-1.7,0-3.1-1.5-3.1-2.4s1.4-1.6,3.1-1.7c1.8,0,3.2.7,3.2,1.6s-1.3,2.3-3,2.4c0,.1.1.2.1.3a11.414,11.414,0,0,0,.6,1.5c1.9,3.4,4.7,5.1,8.1,6.6a1.452,1.452,0,0,1-.6.1,4.42,4.42,0,0,1-1.7.1,5.253,5.253,0,0,1-2.3-.6,8.029,8.029,0,0,1-4.3-4.9c.2.9-1.2,2.7-1.7,3.3a7.917,7.917,0,0,1-4.7,2.4,4.42,4.42,0,0,1-1.7-.1,2.8,2.8,0,0,0-.6-.1A.981.981,0,0,0,97.7,61.6Zm-4-17.5a1.4,1.4,0,0,1-.3,1.9,1.135,1.135,0,0,1-.8.3,1.255,1.255,0,0,1-1.1-.6,7.2,7.2,0,0,0-10.1-1.6,1.36,1.36,0,1,1-1.6-2.2,9.9,9.9,0,0,1,13.9,2.2ZM83.1,52.9a7.148,7.148,0,0,1-1.5.5,8.925,8.925,0,0,1-3.3.1,6.584,6.584,0,0,1-3.2-1.3,3.511,3.511,0,0,1-.8-1c-.1-.3.1-.4,0-.5a.747.747,0,0,0,.3.3,4.649,4.649,0,0,0,.9.3c.8.1,1.9.2,3,.4a23.764,23.764,0,0,1,3.1.7A7.148,7.148,0,0,1,83.1,52.9Zm-12.9,3a36.78,36.78,0,0,1,5.3-.5,42.173,42.173,0,0,1,5.3.3,18.187,18.187,0,0,1,2.4.5s-1,.3-2.4.6a36.78,36.78,0,0,1-5.3.5,42.173,42.173,0,0,1-5.3-.3,18.187,18.187,0,0,1-2.4-.5A22.042,22.042,0,0,1,70.2,55.9Z"/>
        <path id="Path_1109" data-name="Path 1109" class="cls-2" d="M125.2,57.3c3.4,6.4,9.7,10.8,13.2,17.3,4.7,8.8,7.3,19,9.4,28.7.1.7.3,1.3.4,2,0,.2.1.4.1.7.1.4.3.6.5.4a.52.52,0,0,0,.2-.4,5.936,5.936,0,0,0,.4-.8,4.349,4.349,0,0,1,.4-.7,59.207,59.207,0,0,0,4.4-11.4c.8-2.8,1.4-5.6,1.9-8,1.5-7,3.4-17.4,1.8-26.4a28.616,28.616,0,0,0-6.5-13.8c-5.3-5.7-14-9-20.9-4.6C124.9,43.9,121.8,50.9,125.2,57.3Z"/>
        <path id="Path_1110" data-name="Path 1110" class="cls-2" d="M128.2,56.5c3,6.6,9.1,11.3,12.3,18,4.3,9,6.3,19.3,7.9,29.1.1.7.2,1.3.3,2a1.952,1.952,0,0,0,.1.7c0,.4.3.6.4.4a1.38,1.38,0,0,0,.3-.4,9.226,9.226,0,0,1,.5-.8,5.736,5.736,0,0,0,.4-.7,53.286,53.286,0,0,0,5-11.1c.9-2.7,1.7-5.5,2.4-7.9,1.9-6.9,4.3-17.2,3.2-26.3a28.867,28.867,0,0,0-5.7-14.1c-5-5.9-13.5-9.7-20.6-5.7C128.6,43.1,125.1,50,128.2,56.5Z"/>
        <path id="Path_1111" data-name="Path 1111" class="cls-2" d="M140.7,68.8s-3.5-11.2,5.7-11.5c0,0,8.9-.1,6.2,11.2Z"/>
        <path id="Path_1112" data-name="Path 1112" class="cls-2" d="M142.1,52.4c1.1.3,2.5,3.1-.4,4.4,0,0-5.4.7-3.4-2.8A4.6,4.6,0,0,1,142.1,52.4Z"/>
        <path id="Path_1113" data-name="Path 1113" class="cls-2" d="M150.5,52.2a2.38,2.38,0,0,0,.5,4.4s5.4.5,3.3-2.9A4.763,4.763,0,0,0,150.5,52.2Z"/>
        <path id="Path_1114" data-name="Path 1114" class="cls-2" d="M148.3,50.9c.9.7,1.2,3.8-2,3.9,0,0-5.2-1.4-2.1-3.9A4.894,4.894,0,0,1,148.3,50.9Z"/>
        <path id="Path_1115" data-name="Path 1115" class="cls-2" d="M88.9,122.9c-3.4-6.4-9.7-10.8-13.2-17.3-4.7-8.8-7.3-19-9.4-28.7-.1-.7-.3-1.3-.4-2,0-.2-.1-.4-.1-.7-.1-.4-.3-.6-.5-.4s-.3.3-.3.5a5.937,5.937,0,0,0-.4.8,4.348,4.348,0,0,1-.4.7,59.208,59.208,0,0,0-4.4,11.4c-.8,2.8-1.4,5.6-1.9,8-1.5,7-3.4,17.4-1.8,26.4a28.616,28.616,0,0,0,6.5,13.8c5.3,5.7,14,9,20.9,4.6C89.1,136.4,92.2,129.3,88.9,122.9Z"/>
        <path id="Path_1116" data-name="Path 1116" class="cls-2" d="M85.8,123.7c-3-6.6-9.1-11.3-12.3-18-4.3-9-6.3-19.3-7.9-29.1-.1-.7-.2-1.3-.3-2,0-.2-.1-.4-.1-.7,0-.4-.3-.6-.4-.4a1.381,1.381,0,0,0-.3.4,9.225,9.225,0,0,1-.5.8,5.737,5.737,0,0,0-.4.7,53.286,53.286,0,0,0-5,11.1c-.9,2.7-1.7,5.5-2.4,7.8-1.9,6.9-4.3,17.2-3.2,26.3a28.867,28.867,0,0,0,5.7,14.1c5,5.9,13.5,9.7,20.6,5.7C85.4,137.1,88.9,130.2,85.8,123.7Z"/>
      </g>
      <g id="Group_515" data-name="Group 515">
        <g id="Group_514" data-name="Group 514">
          <g id="Group_505" data-name="Group 505">
            <path id="Path_1117" data-name="Path 1117" class="cls-3" d="M121.3,64.5s-50.9-6.7-54.7,12c0,0-18.5,47.3-2.6,59,12.6,9.2,32.9,10.1,62.4,1.2"/>
            <path id="Path_1118" data-name="Path 1118" class="cls-3" d="M94.2,64.9s50.7-8.4,55,10.2c0,0,20.1,46.7,4.5,58.8-12.3,9.6-32.5,11.2-62.3,3.2"/>
          </g>
          <path id="Path_1119" data-name="Path 1119" class="cls-3" d="M153.6,48.6a32.7,32.7,0,0,1-32.1,33.2l-26.8.4A32.7,32.7,0,0,1,61.5,50.1l-.1-4.6A32.7,32.7,0,0,1,93.5,12.3l26.8-.4A32.7,32.7,0,0,1,153.5,44Z"/>
          <g id="Group_506" data-name="Group 506">
            <path id="Path_1120" data-name="Path 1120" class="cls-4" d="M121.4,81.8l-26.8.4a64.614,64.614,0,0,1-17.8-2,32.209,32.209,0,0,0,17.9,5l26.8-.4a31.784,31.784,0,0,0,17.7-5.6A67.439,67.439,0,0,1,121.4,81.8Z"/>
          </g>
          <g id="Group_508" data-name="Group 508">
            <g id="Group_507" data-name="Group 507">
              <path id="Path_1121" data-name="Path 1121" class="cls-5" d="M108,84.4a8.6,8.6,0,1,0,8.7,8.5A8.475,8.475,0,0,0,108,84.4Zm.2,4.1a3.18,3.18,0,0,0,2.9-1.1,1.21,1.21,0,0,1,1.4-.2.744.744,0,0,1,.1,1.2,2.177,2.177,0,0,1-.8.5,8.753,8.753,0,0,0-2.2,1c-.1.1-.2.1-.3.2a1.4,1.4,0,0,1-1.2-.2,1.235,1.235,0,0,1-.4-.8C107.7,88.6,107.8,88.4,108.2,88.5Zm-2.8-1.4a5.91,5.91,0,0,1,1.4.6l.3.3a1.162,1.162,0,0,1,0,1c-.1.2-.3.2-.6.2a1.605,1.605,0,0,1-1.6-1.7C104.9,87.2,105.1,87,105.4,87.1Zm8.7,9.9c-.8,1.1-3.4,2.2-5.2,1.3a2.432,2.432,0,0,1-1-3.5c0-.1.1-.1.1-.2a.215.215,0,0,0-.2-.2h-.2c-.3-.1-.5-.1-.8-.2-.2-.1-.3-.1-.5-.2a4.2,4.2,0,0,1-.5-.2.765.765,0,0,0,.2-.5.317.317,0,0,0-.6-.1c0,.1,0,.2.2.4l.1.1a.1.1,0,0,0,.1.1,2.054,2.054,0,0,1,.6.8,1.412,1.412,0,0,1,.1.9v.4a6.7,6.7,0,0,0,0,2,.876.876,0,0,1-.5,1,.9.9,0,0,1-1,0,1.6,1.6,0,0,1-.4-1.5,6.149,6.149,0,0,0,.3-1.1,13.553,13.553,0,0,0-.2-2c0-.1-.3-.2-.4-.1-.2.1-.4.3-.6.4-.4.3-.9.6-1.3.9a.367.367,0,0,1-.3.1c-.1,0-.4,0-.4-.1s0-.4.1-.5c.6-.5,1.3-1,1.9-1.6.3-.3.6-.7.9-1,.5-.6.9-1.1.9-1.1l-.6.2c-.2.1-.3.2-.5.2a1.507,1.507,0,0,1-2-.8,1.1,1.1,0,0,1,.3-1.2.775.775,0,0,1,1,.2,1.54,1.54,0,0,0,1.6.2c.3-.1.6-.3.9-.4a.714.714,0,0,1,1,.3c.2.2.2.5.4.8a.781.781,0,0,0,.4.4c.1,0,.2-.1.4-.2a3.508,3.508,0,0,1,.8-.5c.2,0,.5.1.5.2a.878.878,0,0,1-.1.7c-.2.4-.2.7.2.8a3.083,3.083,0,0,0,1,.1.753.753,0,0,0,.6-1.1,2.092,2.092,0,0,0-.4-.6q-.3-.6.3-.6c1,.1,2,.7,1.6,2a1.854,1.854,0,0,1-1.4,1.3c-.3.1-.5.1-.8.2a1.281,1.281,0,0,0-1,1.1c0,.1-.1.3-.1.4-.1.2,0,.6.3.5.1,0,.1-.2.2-.4.1-.3.1-.6.2-.8a.758.758,0,0,1,.4-.2.319.319,0,0,1,.3.3,1.268,1.268,0,0,1,.1.6c0,.4.2.5.5.5h.5c.1,0,.3.1.3.2a.758.758,0,0,1-.2.4l-.6.3a.642.642,0,0,0-.5.5c-.1.3-.2.6-.4.7-.3.3-.7.2-.8-.3s-.3-.6-.8-.6h-.2c-.1,0-.3.3-.1.6a.918.918,0,0,0,.6.4,3.26,3.26,0,0,0,3.1-.9,1.406,1.406,0,0,0-.6-2.3c-.2-.1-.5-.1-.7-.2a1.381,1.381,0,0,1-.3-.4c0-.1.2-.2.3-.3h.2a3.194,3.194,0,0,1,2.4,1.1C114.7,95.1,114.6,96.3,114.1,97Z"/>
              <path id="Path_1122" data-name="Path 1122" class="cls-5" d="M109.5,93.6h.1a.1.1,0,0,0,.1-.1,2.954,2.954,0,0,0-.6-.3c-.3-.1-.4,0-.6.2-.1.1-.2.1-.3.2-.1,0-.2.2-.3.4l.1.2c.1,0,.3-.1.3-.2C108.7,93.6,109.1,93.7,109.5,93.6Z"/>
              <path id="Path_1123" data-name="Path 1123" class="cls-5" d="M106.9,91.9c-.3.3-.3.5.1.4a1,1,0,0,0,.5-.4v-.2C107.6,91.5,107.3,91.6,106.9,91.9Z"/>
            </g>
          </g>
          <g id="Group_509" data-name="Group 509">
            <path id="Path_1124" data-name="Path 1124" class="cls-3" d="M68.4,24.7s8.5-35.8,25-19.9c0,0,4.6,5.8,6,9.3Z"/>
            <path id="Path_1125" data-name="Path 1125" class="cls-4" d="M71.4,22.3S78.3-6.6,91.6,6.2c0,0,3.7,4.7,4.8,7.5Z"/>
            <path id="Path_1126" data-name="Path 1126" class="cls-3" d="M145.7,23.4s-9.7-35.5-25.6-19c0,0-4.4,5.9-5.7,9.5Z"/>
            <path id="Path_1127" data-name="Path 1127" class="cls-4" d="M142.7,21.2S134.9-7.5,122,5.8c0,0-3.6,4.8-4.6,7.7Z"/>
          </g>
          <path id="Path_1128" data-name="Path 1128" class="cls-6" d="M84.6,56.6a11.961,11.961,0,0,1-3.2,1.1,14.242,14.242,0,0,1-3.4.4,6.454,6.454,0,0,1-1.6-.2,6.948,6.948,0,0,1,1.4-.8A11.961,11.961,0,0,1,81,56a14.242,14.242,0,0,1,3.4-.4,6.454,6.454,0,0,1,1.6.2A6.948,6.948,0,0,1,84.6,56.6Zm55.1.5a21.176,21.176,0,0,1-3.4-.2,17.379,17.379,0,0,1-3.2-1,6.948,6.948,0,0,1-1.4-.8,6.454,6.454,0,0,1,1.6-.2,21.176,21.176,0,0,1,3.4.2,12.074,12.074,0,0,1,3.2,1,6.948,6.948,0,0,1,1.4.8S140.7,57,139.7,57.1Zm3.7-6.3a18.187,18.187,0,0,1,2.4.5s-1,.3-2.4.6a36.78,36.78,0,0,1-5.3.5,42.173,42.173,0,0,1-5.3-.3,18.187,18.187,0,0,1-2.4-.5s1-.3,2.4-.6a36.78,36.78,0,0,1,5.3-.5A39.98,39.98,0,0,1,143.4,50.8Zm-12.9-2.6s.6-.3,1.4-.6a18.433,18.433,0,0,1,3-.8c1.1-.2,2.2-.3,3-.5a4.649,4.649,0,0,0,.9-.3.747.747,0,0,0,.3-.3s.1.1,0,.5a2.045,2.045,0,0,1-.7,1,7.373,7.373,0,0,1-3.1,1.4,12.1,12.1,0,0,1-3.3,0A4.865,4.865,0,0,1,130.5,48.2Zm-11-8.5A10.086,10.086,0,0,1,133.4,37a1.373,1.373,0,0,1-1.5,2.3,7.209,7.209,0,0,0-10,1.9,1.382,1.382,0,0,1-1.1.6,1.884,1.884,0,0,1-.8-.2A1.288,1.288,0,0,1,119.5,39.7ZM101.7,57.6a14.065,14.065,0,0,0,4.9-3.1,12.642,12.642,0,0,0,2.9-5c0-.1.1-.2.1-.3-1.7,0-3.1-1.5-3.1-2.4s1.4-1.6,3.1-1.7c1.8,0,3.2.7,3.2,1.6s-1.3,2.3-3,2.4c0,.1.1.2.1.3a11.414,11.414,0,0,0,.6,1.5c1.9,3.4,4.7,5.1,8.1,6.6a1.452,1.452,0,0,1-.6.1,4.42,4.42,0,0,1-1.7.1,5.253,5.253,0,0,1-2.3-.6,8.029,8.029,0,0,1-4.3-4.9c.2.9-1.2,2.7-1.7,3.3a7.917,7.917,0,0,1-4.7,2.4,4.42,4.42,0,0,1-1.7-.1,2.8,2.8,0,0,0-.6-.1A.981.981,0,0,0,101.7,57.6Zm-4-17.5a1.4,1.4,0,0,1-.3,1.9,1.135,1.135,0,0,1-.8.3,1.255,1.255,0,0,1-1.1-.6,7.2,7.2,0,0,0-10.1-1.6,1.36,1.36,0,1,1-1.6-2.2,9.9,9.9,0,0,1,13.9,2.2ZM87.1,48.9a7.148,7.148,0,0,1-1.5.5,8.925,8.925,0,0,1-3.3.1,6.584,6.584,0,0,1-3.2-1.3,3.511,3.511,0,0,1-.8-1c-.1-.3.1-.4,0-.5a.747.747,0,0,0,.3.3,4.649,4.649,0,0,0,.9.3c.8.1,1.9.2,3,.4a23.764,23.764,0,0,1,3.1.7A7.148,7.148,0,0,1,87.1,48.9Zm-12.9,3a36.78,36.78,0,0,1,5.3-.5,42.173,42.173,0,0,1,5.3.3,18.187,18.187,0,0,1,2.4.5s-1,.3-2.4.6a36.78,36.78,0,0,1-5.3.5,42.173,42.173,0,0,1-5.3-.3,18.187,18.187,0,0,1-2.4-.5A22.042,22.042,0,0,1,74.2,51.9Z"/>
          <g id="Group_512" data-name="Group 512">
            <path id="Path_1129" data-name="Path 1129" class="cls-7" d="M129.2,53.3c3.4,6.4,9.7,10.8,13.2,17.3,4.7,8.8,7.3,19,9.4,28.7.1.7.3,1.3.4,2,0,.2.1.4.1.7.1.4.3.6.5.4a.52.52,0,0,0,.2-.4,5.936,5.936,0,0,0,.4-.8,4.349,4.349,0,0,1,.4-.7,59.207,59.207,0,0,0,4.4-11.4c.8-2.8,1.4-5.6,1.9-8,1.5-7,3.4-17.4,1.8-26.4a28.616,28.616,0,0,0-6.5-13.8c-5.3-5.7-14-9-20.9-4.6C128.9,39.9,125.8,46.9,129.2,53.3Z"/>
            <path id="Path_1130" data-name="Path 1130" class="cls-3" d="M132.2,52.5c3,6.6,9.1,11.3,12.3,18,4.3,9,6.3,19.3,7.9,29.1.1.7.2,1.3.3,2a1.952,1.952,0,0,0,.1.7c0,.4.3.6.4.4a1.38,1.38,0,0,0,.3-.4,9.226,9.226,0,0,1,.5-.8,5.736,5.736,0,0,0,.4-.7,53.286,53.286,0,0,0,5-11.1c.9-2.7,1.7-5.5,2.4-7.9,1.9-6.9,4.3-17.2,3.2-26.3a28.867,28.867,0,0,0-5.7-14.1c-5-5.9-13.5-9.7-20.6-5.7C132.6,39.1,129.1,46,132.2,52.5Z"/>
            <g id="Group_511" data-name="Group 511">
              <path id="Path_1131" data-name="Path 1131" class="cls-7" d="M144.7,64.8s-3.5-11.2,5.7-11.5c0,0,8.9-.1,6.2,11.2Z"/>
              <g id="Group_510" data-name="Group 510">
                <path id="Path_1132" data-name="Path 1132" class="cls-7" d="M146.1,48.4c1.1.3,2.5,3.1-.4,4.4,0,0-5.4.7-3.4-2.8A4.6,4.6,0,0,1,146.1,48.4Z"/>
                <path id="Path_1133" data-name="Path 1133" class="cls-7" d="M154.5,48.2a2.38,2.38,0,0,0,.5,4.4s5.4.5,3.3-2.9A4.763,4.763,0,0,0,154.5,48.2Z"/>
                <path id="Path_1134" data-name="Path 1134" class="cls-7" d="M152.3,46.9c.9.7,1.2,3.8-2,3.9,0,0-5.2-1.4-2.1-3.9A4.894,4.894,0,0,1,152.3,46.9Z"/>
              </g>
            </g>
          </g>
          <g id="Group_513" data-name="Group 513">
            <path id="Path_1135" data-name="Path 1135" class="cls-7" d="M92.9,118.9c-3.4-6.4-9.7-10.8-13.2-17.3-4.7-8.8-7.3-19-9.4-28.7-.1-.7-.3-1.3-.4-2,0-.2-.1-.4-.1-.7-.1-.4-.3-.6-.5-.4s-.3.3-.3.5a5.937,5.937,0,0,0-.4.8,4.348,4.348,0,0,1-.4.7,59.208,59.208,0,0,0-4.4,11.4c-.8,2.8-1.4,5.6-1.9,8-1.5,7-3.4,17.4-1.8,26.4a28.616,28.616,0,0,0,6.5,13.8c5.3,5.7,14,9,20.9,4.6C93.1,132.4,96.2,125.3,92.9,118.9Z"/>
            <path id="Path_1136" data-name="Path 1136" class="cls-3" d="M89.8,119.7c-3-6.6-9.1-11.3-12.3-18-4.3-9-6.3-19.3-7.9-29.1-.1-.7-.2-1.3-.3-2,0-.2-.1-.4-.1-.7,0-.4-.3-.6-.4-.4a1.381,1.381,0,0,0-.3.4,9.225,9.225,0,0,1-.5.8,5.737,5.737,0,0,0-.4.7,53.286,53.286,0,0,0-5,11.1c-.9,2.7-1.7,5.5-2.4,7.8-1.9,6.9-4.3,17.2-3.2,26.3a28.867,28.867,0,0,0,5.7,14.1c5,5.9,13.5,9.7,20.6,5.7C89.4,133.1,92.9,126.2,89.8,119.7Z"/>
          </g>
        </g>
      </g>
    </g>
    <rect id="Rectangle_13" data-name="Rectangle 13" class="cls-8" width="214" height="27" transform="translate(0 161.1)"/>
    <text id="NEKO_SUSHI" data-name="NEKO SUSHI" class="cls-9" transform="translate(0 186.982)"><tspan x="0" y="0">NEKO SUSHI</tspan></text>
  </g>
</svg>
