<svg xmlns="http://www.w3.org/2000/svg" viewBox="2842.049 323.276 158.612 122.448">
  <defs>
    <style>
      .cls-1 {
        fill: #dbbaba;
      }

      .cls-2 {
        fill: #c46e7d;
      }

      .cls-3 {
        fill: #f2f2f2;
      }

      .cls-4 {
        fill: #722530;
      }
    </style>
  </defs>
  <g id="Group_532" data-name="Group 532" transform="translate(2842.049 323.276)">
    <g id="Group_528" data-name="Group 528">
      <path id="Path_1145" data-name="Path 1145" class="cls-1" d="M158.612,69.789c0,35.021-35.529,52.659-79.306,52.659S0,104.811,0,69.789,35.529,0,79.306,0,158.612,34.768,158.612,69.789Z"/>
    </g>
    <g id="Group_529" data-name="Group 529" transform="translate(0 57.417)">
      <path id="Path_1146" data-name="Path 1146" class="cls-2" d="M158.612,102.872c0,35.021-35.529,52.659-79.306,52.659S0,137.893,0,102.872A54.485,54.485,0,0,1,1.459,90.5c7.106,27.218,39.209,40.922,77.847,40.922s70.741-13.7,77.847-40.922A54.484,54.484,0,0,1,158.612,102.872Z" transform="translate(0 -90.5)"/>
    </g>
    <g id="Group_530" data-name="Group 530" transform="translate(28.423 49.487)">
      <path id="Path_1147" data-name="Path 1147" class="cls-3" d="M144.789,115.623c0,18.907-22.4,28.36-49.994,28.36S44.8,134.466,44.8,115.623,67.133,78,94.731,78,144.789,96.716,144.789,115.623Z" transform="translate(-44.8 -78)"/>
    </g>
    <g id="Group_531" data-name="Group 531" transform="translate(34.577 54.88)">
      <path id="Path_1148" data-name="Path 1148" class="cls-4" d="M142.054,119.428c0,16.5-19.6,24.807-43.777,24.807S54.5,135.923,54.5,119.428,74.1,86.5,98.277,86.5,142.054,102.869,142.054,119.428Z" transform="translate(-54.5 -86.5)"/>
    </g>
  </g>
</svg>
