<svg xmlns="http://www.w3.org/2000/svg" xmlns:xlink="http://www.w3.org/1999/xlink" viewBox="757 101 177.566 106.65">
  <defs>
    <style>
      .cls-1 {
        fill: #d9f3f9;
      }

      .cls-2 {
        fill: #fff;
      }

      .cls-3 {
        fill: #85c2cc;
      }

      .cls-4 {
        fill: #fccf4f;
      }

      .cls-5 {
        clip-path: url(#clip-path);
      }

      .cls-6 {
        fill: #e2b137;
      }

      .cls-7 {
        fill: #fffefd;
      }

      .cls-8 {
        fill: #fff6de;
      }

      .cls-9 {
        fill: #ba8c1a;
      }

      .cls-10 {
        fill: #ef7c1d;
      }

      .cls-11 {
        fill: #0f161e;
      }
    </style>
    <clipPath id="clip-path">
      <path id="Path_82" data-name="Path 82" d="M2.8,64S9,72.5,23.3,69.3c0,0,13.5,11.8,23.5,10S69.4,64.5,70.9,54.6c0,0,13.4,2.7,23.8-20.2,0,0,19.5,4.4,24-9.7,0,0,13.8,4.1,19.8-.9,0,0,12.3,24.8,21.4,21s-9.1-15.2-9.1-15.2,24.3,18.6,29,11.5-21.1-19.7-32.3-20.3c0,0,6.7-1.3,7-4.2s-13.2-1.8-17.9,1.6c0,0-18.1-23-35.9-12.7,0,0-14-12.3-28.4-.3,0,0-15-5.9-26.4,10,0,0-17.6-1.8-26.4,16.7C19.8,32,4,39.6,2.8,64Z"/>
    </clipPath>
  </defs>
  <g id="Group_82" data-name="Group 82" transform="translate(754.2 101.057)">
    <g id="Group_67" data-name="Group 67">
      <g id="Group_51" data-name="Group 51">
        <path id="Path_63" data-name="Path 63" class="cls-1" d="M20.4,84.3s-2.1,12.8,8.3,9.9c0,0,4.5,8.1,11.4,3.9,0,0,4.8,7.9,10.5,2.9,0,0,2.2,7.8,9.8,1.6,0,0,7,8.2,10.8,1.1,0,0,5.5,3.5,8.7-1.5,0,0,4.7,4.5,7.6-3.2,0,0,4.9,3.3,6.9-4.5,0,0,8,7.5,11.7-1.9,0,0,6.8,2,8.3-6.9,0,0,7.4,2.8,9-6.6,0,0,5.4,0,5.4-6,0,0,8.2-1.3,6.2-9.6,0,0,6-1.6,3.2-8.2,4.1-2.6,3.3-6,.3-10,0,0,4.6-9.6-2.6-9.9,1.5-3.8-.3-13.3-9.8-11.1,0,0-.1-3.9-4.8-6.1s-8.5,2.9-8.5,2.9-4.8-8.8-8.4-.8c0,0-10-9.6-16,2.1,0,0-8.4-11.2-12-.7,0,0-8.7-7.2-14.5,2.9,0,0-7.8-2.3-9.5,5.6,0,0-7.7-2.9-9.7,7.1,0,0-7.7-5.1-9.8,6.1,0,0-8.2,1.7-9.2,11.5,0,0-11.5,2.9-6.4,13.6C17.4,68.6,9.9,80.3,20.4,84.3Z"/>
        <path id="Path_64" data-name="Path 64" class="cls-2" d="M21,73.2s-1.8,11,7.1,8.5c0,0,3.9,7,9.8,3.4,0,0,4.1,6.8,9,2.5,0,0,1.9,6.7,8.4,1.4,0,0,6.1,7.1,9.3.9,0,0,4.8,3,7.5-1.3,0,0,4.1,3.9,6.6-2.7,0,0,4.3,2.8,6-3.9,0,0,6.9,6.5,10.1-1.6,0,0,5.9,1.8,7.2-6,0,0,6.4,2.4,7.8-5.7a4.775,4.775,0,0,0,4.7-5.2s7.1-1.1,5.4-8.3c0,0,5.2-1.4,2.8-7.1,3.5-2.2,2.8-5.1.3-8.6,0,0,3.9-8.3-2.3-8.5,1.3-3.3-.2-11.5-8.4-9.6a6.362,6.362,0,0,0-4.1-5.2c-4.1-1.9-7.3,2.5-7.3,2.5s-4.1-7.6-7.2-.7c0,0-8.6-8.2-13.8,1.8,0,0-7.2-9.6-10.3-.6,0,0-7.5-6.2-12.5,2.5,0,0-6.7-2-8.2,4.8,0,0-6.6-2.5-8.4,6.1,0,0-6.6-4.4-8.5,5.3,0,0-7.1,1.5-8,9.9,0,0-9.9,2.5-5.5,11.7C18.4,59.7,11.9,69.8,21,73.2Z"/>
      </g>
      <g id="Group_66" data-name="Group 66">
        <g id="Group_52" data-name="Group 52">
          <path id="Path_65" data-name="Path 65" class="cls-3" d="M55.3,80a4.768,4.768,0,0,0,.8.4,3.2,3.2,0,0,0,2,.2,4.471,4.471,0,0,0,2.3-1.1,8.7,8.7,0,0,0,1.7-2.1,3.541,3.541,0,0,1-.7,2.4,3.805,3.805,0,0,1-2.5,1.6,3.132,3.132,0,0,1-1.9-.2A2.788,2.788,0,0,1,55.3,80Z"/>
        </g>
        <g id="Group_53" data-name="Group 53">
          <path id="Path_66" data-name="Path 66" class="cls-3" d="M51.4,91.7a2.425,2.425,0,0,0,1.7.2c1.1-.2,2.3-1.3,3.4-2.7.3-.4.5-.8.8-1.2l.3-.6.3-.5.1-.2h.6a16.331,16.331,0,0,0,3.1.1,7.085,7.085,0,0,0,2.8-.9,7.957,7.957,0,0,0,2.1-2,.774.774,0,0,1-.1.3,4.384,4.384,0,0,1-.5.9,5.787,5.787,0,0,1-3,2.3,10.323,10.323,0,0,1-3,.4c-.5,0-1.1-.1-1.5-.1h0l-.1.2a9.224,9.224,0,0,1-.5.8,9.53,9.53,0,0,1-2.6,2.7,4.552,4.552,0,0,1-1.9.8A2.753,2.753,0,0,1,51.4,91.7Z"/>
        </g>
        <g id="Group_54" data-name="Group 54">
          <path id="Path_67" data-name="Path 67" class="cls-3" d="M75.6,66.6h.3a3.445,3.445,0,0,1,.9.1,7.369,7.369,0,0,0,3,.1,5.378,5.378,0,0,0,2.8-2.4,7.579,7.579,0,0,0,1.1-3.8l.3.9a5.3,5.3,0,0,1-.2,2.7A5.632,5.632,0,0,1,81,67.4a4.146,4.146,0,0,1-2.7.2C77.4,67.3,76.6,66.9,75.6,66.6Z"/>
        </g>
        <g id="Group_55" data-name="Group 55">
          <path id="Path_68" data-name="Path 68" class="cls-3" d="M94.4,51h1a9.21,9.21,0,0,0,6.6-5.7,2.045,2.045,0,0,1,.1.8,3.984,3.984,0,0,1-.6,2.1,6.616,6.616,0,0,1-2.6,2.3,10.33,10.33,0,0,1-2.1.7A3.3,3.3,0,0,1,94.4,51Z"/>
        </g>
        <g id="Group_56" data-name="Group 56">
          <path id="Path_69" data-name="Path 69" class="cls-3" d="M93,64.1a6.734,6.734,0,0,0,1-.1,14.752,14.752,0,0,0,2.4-.5A6.586,6.586,0,0,0,99,62.1a6.142,6.142,0,0,0,1.5-2.6,1.731,1.731,0,0,1,.1.7,3.36,3.36,0,0,1-.6,2,4,4,0,0,1-1.1,1.2,6.712,6.712,0,0,1-1.7.8A8.6,8.6,0,0,1,93,64.1Z"/>
        </g>
        <g id="Group_57" data-name="Group 57">
          <path id="Path_70" data-name="Path 70" class="cls-3" d="M90.9,71.1a.774.774,0,0,0,.3-.1,5.073,5.073,0,0,0,.9-.2,7.684,7.684,0,0,0,5-4,15.507,15.507,0,0,0,1.3-3.6,3.139,3.139,0,0,1,.1.9,7.354,7.354,0,0,1-2.7,5.8A6.085,6.085,0,0,1,90.9,71.1Z"/>
        </g>
        <g id="Group_58" data-name="Group 58">
          <path id="Path_71" data-name="Path 71" class="cls-3" d="M78.9,85.3H82a5.939,5.939,0,0,0,2.6-.7,8.7,8.7,0,0,0,2.1-1.7,1.548,1.548,0,0,1-.2.6,5.017,5.017,0,0,1-1,1.6,4.5,4.5,0,0,1-2.8,1.1A13.932,13.932,0,0,1,78.9,85.3Z"/>
        </g>
        <g id="Group_59" data-name="Group 59">
          <path id="Path_72" data-name="Path 72" class="cls-3" d="M86.7,87.5a4.536,4.536,0,0,0,1,.1,24.514,24.514,0,0,0,2.5-.1,7.29,7.29,0,0,0,2.9-1.1,3.978,3.978,0,0,0,1.4-2.7,3.125,3.125,0,0,1,.2.7,3.637,3.637,0,0,1-.6,2.2C93.1,88.3,89.7,89,86.7,87.5Z"/>
        </g>
        <g id="Group_60" data-name="Group 60">
          <path id="Path_73" data-name="Path 73" class="cls-3" d="M113,67.6l.2.2c.1.1.4.2.7.4a7.634,7.634,0,0,0,2.5.6,7.279,7.279,0,0,0,3.2-.6,5.12,5.12,0,0,0,2.3-2.3,4.531,4.531,0,0,1-.1.8,4.17,4.17,0,0,1-1.2,1.9,4.658,4.658,0,0,1-3.4,1.1,5.852,5.852,0,0,1-2.2-.5A3.891,3.891,0,0,1,113,67.6Z"/>
        </g>
        <g id="Group_61" data-name="Group 61">
          <path id="Path_74" data-name="Path 74" class="cls-3" d="M111.3,74a.774.774,0,0,1,.3.1c.2,0,.4.1.7.1a5.19,5.19,0,0,0,2.4-.2,5.342,5.342,0,0,0,2.5-1.8,8.03,8.03,0,0,0,1.5-2.9V70a5.151,5.151,0,0,1-.5,2.1,4.437,4.437,0,0,1-2.6,2.4A4.247,4.247,0,0,1,111.3,74Z"/>
        </g>
        <g id="Group_62" data-name="Group 62">
          <path id="Path_75" data-name="Path 75" class="cls-3" d="M101,65.3h.3a2.485,2.485,0,0,0,.8-.1,6.458,6.458,0,0,0,2.4-1,8.526,8.526,0,0,0,2.2-2.4,18.253,18.253,0,0,0,1.4-3.2v.8a7.33,7.33,0,0,1-.4,2.2,6.22,6.22,0,0,1-2.2,2.9A5.018,5.018,0,0,1,101,65.3Z"/>
        </g>
        <g id="Group_63" data-name="Group 63">
          <path id="Path_76" data-name="Path 76" class="cls-3" d="M119.4,58.8s.3-.2.7-.5a6.94,6.94,0,0,0,1.4-1.5c.9-1.3,1.3-3.3,2-5a2.8,2.8,0,0,0,.1.6,9.484,9.484,0,0,1,0,1.7,5.33,5.33,0,0,1-1,2.6A4.948,4.948,0,0,1,119.4,58.8Z"/>
        </g>
        <g id="Group_64" data-name="Group 64">
          <path id="Path_77" data-name="Path 77" class="cls-3" d="M123.5,71.4a7.781,7.781,0,0,0,.9-.3,9.022,9.022,0,0,0,1.9-1.4,12.139,12.139,0,0,0,1.7-2.5,17.1,17.1,0,0,0,.9-3,3.125,3.125,0,0,1,.2.7A3.86,3.86,0,0,1,129,67a6.524,6.524,0,0,1-1.6,2.9A5.122,5.122,0,0,1,123.5,71.4Z"/>
        </g>
        <g id="Group_65" data-name="Group 65">
          <path id="Path_78" data-name="Path 78" class="cls-3" d="M126.1,64a1.726,1.726,0,0,1,.3-.4,10.908,10.908,0,0,0,.6-1.1c.4-.9.7-2,1.2-3a.584.584,0,0,1,.1.4,3.11,3.11,0,0,1,.1,1.1,4.058,4.058,0,0,1-.5,1.7A3.665,3.665,0,0,1,126.1,64Z"/>
        </g>
      </g>
    </g>
    <g id="Group_81" data-name="Group 81">
      <path id="Path_79" data-name="Path 79" class="cls-1" d="M16.2,75.3c3.5,1.2,4.1,0,7.7.5s6.1,2.3,9.3,3.7c4.4,1.9,9.6,1.2,14.3,1,5.2-.2,9.4-.8,13.5-4.2,4.8-4,8.6-9.1,9.7-15.4a128.692,128.692,0,0,0,14-7.9c2.9-2,5.6-4.4,8.7-6.2,9.1-5.4,20.2-6.2,28.5-13.4,3.1-2.6,6.7-7.8,1.8-10.6-2.8-1.7-6.6-1.6-9.7-1.5a71.113,71.113,0,0,0-15.8,3C75.6,31,55.6,43.6,35,54.3c-4,2.1-8.5,3.9-12,6.9-3.1,2.7-5.1,6.5-7,10.1-.5,1,.7,2.9.2,4Z"/>
      <g id="Group_80" data-name="Group 80">
        <path id="Path_80" data-name="Path 80" class="cls-4" d="M2.8,64S9,72.5,23.3,69.3c0,0,13.5,11.8,23.5,10S69.4,64.5,70.9,54.6c0,0,13.4,2.7,23.8-20.2,0,0,19.5,4.4,24-9.7,0,0,13.8,4.1,19.8-.9,0,0,12.3,24.8,21.4,21s-9.1-15.2-9.1-15.2,24.3,18.6,29,11.5-21.1-19.7-32.3-20.3c0,0,6.7-1.3,7-4.2s-13.2-1.8-17.9,1.6c0,0-18.1-23-35.9-12.7,0,0-14-12.3-28.4-.3,0,0-15-5.9-26.4,10,0,0-17.6-1.8-26.4,16.7C19.8,32,4,39.6,2.8,64Z"/>
        <g id="Group_68" data-name="Group 68" class="cls-5">
          <path id="Path_81" data-name="Path 81" class="cls-6" d="M43.6,74.9S62.5,73.6,57.8,58c0,0,11.2,4,12.8-13.7,0,0,11.9,3,23.8-14.8,13.3,4.8,22.4-7,22.9-12.8,0,0,13.7,12.6,21.6,2.8,0,0,6.3-5.5,3.9,4S97.8,51,97.8,51s-31.5,38.8-43,35.4C43.3,83.1,27.8,78.3,43.6,74.9Z"/>
        </g>
        <g id="Group_69" data-name="Group 69" class="cls-5">
          <path id="Path_83" data-name="Path 83" class="cls-7" d="M2.8,49.6s5.8,8.9,8.1,9.1,5-.6,6.8.2S23.2,64,23.2,64s13.4-2.6,17.7-.7,3.5,5.7,12.2,6c8.6.3,11.5,1.8,11.5,1.8s-16.8,22.8-41.7.8c0,0-17.7,3.8-21.4-6.1S2.8,49.6,2.8,49.6Z"/>
        </g>
        <g id="Group_70" data-name="Group 70" class="cls-5">
          <path id="Path_85" data-name="Path 85" class="cls-8" d="M20.8,30.1S35.6,30.3,36,39c0,0,8.2-2.4,15.4,5.4s6.3,13.1,5.2,13.4c-1.2.3-16.3-2.3-20.5-6.6S33.2,44,33.2,44s-9.1-1-12.5-4.9S20.8,30.1,20.8,30.1Z"/>
        </g>
        <g id="Group_71" data-name="Group 71" class="cls-5">
          <path id="Path_87" data-name="Path 87" class="cls-8" d="M46.2,15.2s-2.8,6.7,6.8,9.1c0,0,1.9,7.4,4.3,9.2s11.5,8.3,14,7.3c2.5-1.1-1.2-20.8-10.5-21.3C60.8,19.5,53.2,11.2,46.2,15.2Z"/>
        </g>
        <g id="Group_72" data-name="Group 72" class="cls-5">
          <path id="Path_89" data-name="Path 89" class="cls-8" d="M101,5.6a22.618,22.618,0,0,1,4.6,4.4s8,5,9.5,10.5,4.3-1.7,3.8-3.8-.8-6.1-5.8-7.1c0,0-1.7-7.1-7.6-7.1C99.5,2.4,101,5.6,101,5.6Z"/>
        </g>
        <g id="Group_73" data-name="Group 73" class="cls-5">
          <path id="Path_91" data-name="Path 91" class="cls-8" d="M75.6,3.1S73.3,9.2,81.9,13c0,0,4.8,12.3,12.8,13.2.1-.9,5.8-10.7-8-15C86.7,11.2,88.8,6.3,75.6,3.1Z"/>
        </g>
        <g id="Group_74" data-name="Group 74" class="cls-5">
          <path id="Path_93" data-name="Path 93" class="cls-9" d="M33.2,45.4s-9.6,8.3-10.2,20C23.1,65.4,20.1,49.8,33.2,45.4Z"/>
        </g>
        <g id="Group_75" data-name="Group 75" class="cls-5">
          <path id="Path_95" data-name="Path 95" class="cls-9" d="M53,26.2A23.654,23.654,0,0,0,36,40.7C36,40.8,36.6,26,53,26.2Z"/>
        </g>
        <g id="Group_76" data-name="Group 76" class="cls-5">
          <path id="Path_97" data-name="Path 97" class="cls-9" d="M81.9,13c.6.1-13.5-.6-23,9C58.9,22,66.4,9.3,81.9,13Z"/>
        </g>
        <g id="Group_77" data-name="Group 77" class="cls-5">
          <path id="Path_99" data-name="Path 99" class="cls-9" d="M107.2,10.3S96.2,5,88.3,12.4C88.4,12.3,101.4,8.5,107.2,10.3Z"/>
        </g>
        <g id="Group_78" data-name="Group 78" class="cls-5">
          <path id="Path_101" data-name="Path 101" class="cls-9" d="M128.9,16.6s-7.7-10.6-19-6.3C109.9,10.4,121.9,8.7,128.9,16.6Z"/>
        </g>
        <g id="Group_79" data-name="Group 79" class="cls-5">
          <path id="Path_103" data-name="Path 103" class="cls-10" d="M136.9,18.3s5,1.2,1.8,5.5,10.9,23.5,10.9,23.5,31.3,7.1,34.2-4.7c2.9-11.9-6.2-40.1-23.4-39.5S136.9,18.3,136.9,18.3Z"/>
        </g>
      </g>
    </g>
    <path id="Path_105" data-name="Path 105" class="cls-11" d="M53,7.4S60.4,1,75.6,3.2c0,0,29,3.6,31.6,38.4,2.1,27.4-2.8,50-6.7,56.7,0,0-8.3,4.8-13.8,2.4,0,0,8-38,5-55.9C88.8,27.8,76.8,9.6,53,7.4Z"/>
  </g>
</svg>
