<svg xmlns="http://www.w3.org/2000/svg" xmlns:xlink="http://www.w3.org/1999/xlink" viewBox="505 101 165.8 103.275">
  <defs>
    <style>
      .cls-1 {
        fill: #d9f3f9;
      }

      .cls-2 {
        fill: #fff;
      }

      .cls-3 {
        fill: #72bdc1;
      }

      .cls-4 {
        fill: #c63532;
      }

      .cls-5 {
        fill: #ff6957;
      }

      .cls-6 {
        clip-path: url(#clip-path);
      }

      .cls-7 {
        fill: #ff958d;
      }

      .cls-8 {
        fill: #ffbdb8;
      }
    </style>
    <clipPath id="clip-path">
      <path id="Path_52" data-name="Path 52" d="M2,67.6s10.1-29,30.9-44.2S94.6-11,135.5,7.8c0,0,25.9,17.3,32.3,32.9,0,0-24.6-9.4-63.5,7S39.8,93.5,36.6,95.5c0,0-4.4-12.6-16.4-17.9C8.2,72.4,2,67.6,2,67.6Z"/>
    </clipPath>
  </defs>
  <g id="Group_50" data-name="Group 50" transform="translate(503 100.995)">
    <g id="Group_41" data-name="Group 41">
      <path id="Path_31" data-name="Path 31" class="cls-1" d="M38.4,88.4s.8,10.5,10.5,7.3c0,0,5.1,6.3,11.4,2.4,0,0,4.9,5.1,10,.5,0,0,2.5,8.1,12.1,2.5,0,0,5.6,5.4,8.6-.8,0,0,5.7,2.5,8.3-1.9,0,0,5,3.3,7.1-3.2,0,0,4.9,4.5,6.2-2.1,0,0,8.6,3.4,11.4-4.6a7.716,7.716,0,0,0,7.6-7.5s8.5.4,9.1-7.4c0,0,4.3-.4,4.8-4.3,0,0,6.5-2.1,4-7.1,0,0,11.3-5.7,3.7-12.9,0,0,4.9-10.4-7.7-9.1,0,0-.3-10.4-10-4.9,0,0,1.3-5.5-3.4-7-4.8-1.5-7.7,2.6-7.7,2.6s-4.8-7.5-9.6-.8c0,0-9.5-8.5-14.2,1.6,0,0-9.2-8.6-11.7.4,0,0-9.1-5.3-13.8,3.5,0,0-7.8-1.3-8.7,5.3,0,0-7.7-1.8-8.8,6.6,0,0-7.9-3.6-9,5.8,0,0-7.8,2.1-7.9,10.2,0,0-10.9,3.3-5,11.7C35.6,75.5,27.8,85.9,38.4,88.4Z"/>
      <path id="Path_32" data-name="Path 32" class="cls-2" d="M52.2,81.3s.5,7,7.1,4.9c0,0,3.4,4.2,7.6,1.6,0,0,3.3,3.4,6.7.3,0,0,1.7,5.4,8.1,1.7,0,0,3.7,3.6,5.8-.5,0,0,3.8,1.6,5.6-1.3,0,0,3.3,2.2,4.8-2.2,0,0,3.3,3,4.1-1.4,0,0,5.8,2.3,7.7-3.1a5.167,5.167,0,0,0,5.1-5s5.7.3,6.1-5c0,0,2.9-.3,3.2-2.9,0,0,4.3-1.4,2.7-4.7,0,0,7.6-3.8,2.5-8.7,0,0,3.3-7-5.2-6.1,0,0-.2-6.9-6.7-3.3,0,0,.9-3.7-2.3-4.7a4.863,4.863,0,0,0-5.2,1.8s-3.2-5-6.5-.5c0,0-6.3-5.7-9.5,1.1,0,0-6.1-5.7-7.9.3,0,0-6.1-3.6-9.2,2.4,0,0-5.2-.9-5.9,3.6A4.728,4.728,0,0,0,65,54s-5.3-2.4-6,3.9a7.4,7.4,0,0,0-5.3,6.9s-7.3,2.2-3.3,7.9C50.4,72.7,45.1,79.7,52.2,81.3Z"/>
      <g id="Group_40" data-name="Group 40">
        <g id="Group_26" data-name="Group 26">
          <path id="Path_33" data-name="Path 33" class="cls-3" d="M73.4,82a7.348,7.348,0,0,0,.8.2,4.013,4.013,0,0,0,1.9,0,4.535,4.535,0,0,0,2.1-1,7.006,7.006,0,0,0,1.5-1.9,2.66,2.66,0,0,1-.6,2.2A3.9,3.9,0,0,1,76.8,83,3.972,3.972,0,0,1,73.4,82Z"/>
        </g>
        <g id="Group_27" data-name="Group 27">
          <path id="Path_34" data-name="Path 34" class="cls-3" d="M70.7,91.9a2.65,2.65,0,0,0,1.6.1,5.853,5.853,0,0,0,3.1-2.5,10.54,10.54,0,0,0,.7-1.1l.3-.6.1-.3.1-.2c0-.1,0-.1.1-.1h.6a12.745,12.745,0,0,0,2.8-.2,8.039,8.039,0,0,0,2.6-.9,7.632,7.632,0,0,0,1.1-.8c.3-.3.6-.7.9-1,0,0-.2.4-.6,1.1a9,9,0,0,1-1,1.2,5.547,5.547,0,0,1-.8.6,6.917,6.917,0,0,1-3.5,1H77.3v.1c-.1.2-.3.5-.4.7a11.584,11.584,0,0,1-2.4,2.6,7.5,7.5,0,0,1-1.8.8A3.513,3.513,0,0,1,70.7,91.9Z"/>
        </g>
        <g id="Group_28" data-name="Group 28">
          <path id="Path_35" data-name="Path 35" class="cls-3" d="M92,69.3h1.2a13.776,13.776,0,0,0,2.8-.1,4.724,4.724,0,0,0,2.7-2,4.584,4.584,0,0,0,.8-3.4,7.2,7.2,0,0,1,.3.8,4.006,4.006,0,0,1-.1,2.4,2.994,2.994,0,0,1-.4.8,2.1,2.1,0,0,1-.6.8,2.7,2.7,0,0,1-.8.7,8.794,8.794,0,0,1-1,.6,5.229,5.229,0,0,1-2.5.2A13.492,13.492,0,0,0,92,69.3Z"/>
        </g>
        <g id="Group_29" data-name="Group 29">
          <path id="Path_36" data-name="Path 36" class="cls-3" d="M108.8,55a6.173,6.173,0,0,0,.9-.1,6,6,0,0,0,2.1-.9c1.6-.9,3.5-2.3,3.8-4.3a3.125,3.125,0,0,1,.2.7,3.6,3.6,0,0,1-.5,2,5.558,5.558,0,0,1-2.4,2.1,6.033,6.033,0,0,1-1.9.6A3.33,3.33,0,0,1,108.8,55Z"/>
        </g>
        <g id="Group_30" data-name="Group 30">
          <path id="Path_37" data-name="Path 37" class="cls-3" d="M108.7,65.9a6.592,6.592,0,0,1,.9-.2,15.032,15.032,0,0,0,2.2-.6,8.031,8.031,0,0,0,2.4-1.3,4.055,4.055,0,0,0,1.3-2.4,3.224,3.224,0,0,1,.2.6,3.318,3.318,0,0,1-.5,1.9,4.582,4.582,0,0,1-2.6,1.7A6.422,6.422,0,0,1,108.7,65.9Z"/>
        </g>
        <g id="Group_31" data-name="Group 31">
          <path id="Path_38" data-name="Path 38" class="cls-3" d="M107.3,71.9s.4-.1,1-.3c.2,0,.3-.1.5-.2l.6-.3.6-.3c.2-.1.4-.3.6-.4.5-.2.8-.7,1.2-1a4.233,4.233,0,0,0,.5-.7,1.794,1.794,0,0,0,.5-.7l.4-.8c.1-.3.2-.5.3-.8a2.354,2.354,0,0,0,.2-.8c.1-.3.1-.6.2-.8a2.045,2.045,0,0,1,.1.8,4.465,4.465,0,0,1-.2,2.2,5.066,5.066,0,0,1-.7,1.5c-.2.2-.3.5-.6.7-.2.2-.5.4-.8.7A6.371,6.371,0,0,1,107.3,71.9Z"/>
        </g>
        <g id="Group_32" data-name="Group 32">
          <path id="Path_39" data-name="Path 39" class="cls-3" d="M96.9,84.5a4.531,4.531,0,0,0,.8-.1c.5-.1,1.2-.1,2-.2a6.652,6.652,0,0,0,2.4-.7,6.154,6.154,0,0,0,2-1.6A2.759,2.759,0,0,1,103,84a4.749,4.749,0,0,1-2.6,1A8.745,8.745,0,0,1,96.9,84.5Z"/>
        </g>
        <g id="Group_33" data-name="Group 33">
          <path id="Path_40" data-name="Path 40" class="cls-3" d="M104.7,85.7a12.947,12.947,0,0,0,3.3-.3,8.8,8.8,0,0,0,2.7-1A3.067,3.067,0,0,0,112,82a3.125,3.125,0,0,1,.2.7,2.452,2.452,0,0,1-.5,2C110.5,86.2,107.6,86.8,104.7,85.7Z"/>
        </g>
        <g id="Group_34" data-name="Group 34">
          <path id="Path_41" data-name="Path 41" class="cls-3" d="M128.4,67.3a4.106,4.106,0,0,0,.9.4,5.805,5.805,0,0,0,2.4.2c1.9-.1,4.3-.9,5.1-2.7a4.184,4.184,0,0,1-.1.7,2.985,2.985,0,0,1-1.2,1.8,5.116,5.116,0,0,1-3.2,1.1,7.612,7.612,0,0,1-2.1-.3A5.615,5.615,0,0,1,128.4,67.3Z"/>
        </g>
        <g id="Group_35" data-name="Group 35">
          <path id="Path_42" data-name="Path 42" class="cls-3" d="M127.3,72.7h1a9.579,9.579,0,0,0,2.2-.3,5.739,5.739,0,0,0,2.3-1.5,7.939,7.939,0,0,0,1.3-2.6,4.406,4.406,0,0,1-.3,2.6,4.226,4.226,0,0,1-2.4,2.1A4.975,4.975,0,0,1,127.3,72.7Z"/>
        </g>
        <g id="Group_36" data-name="Group 36">
          <path id="Path_43" data-name="Path 43" class="cls-3" d="M116.5,66.3s.4-.1.9-.2a5.388,5.388,0,0,0,1-.3,5.973,5.973,0,0,0,1.1-.6c1.6-.9,2.7-3,3.2-4.9a4.184,4.184,0,0,0,.1.7,4.989,4.989,0,0,1-.2,2,4.876,4.876,0,0,0-.3.7,2.506,2.506,0,0,1-.4.7,4.349,4.349,0,0,0-.6.7c-.2.2-.5.4-.7.6A6.1,6.1,0,0,1,116.5,66.3Z"/>
        </g>
        <g id="Group_37" data-name="Group 37">
          <path id="Path_44" data-name="Path 44" class="cls-3" d="M133.8,59.5a2.475,2.475,0,0,1,.6-.4,2.652,2.652,0,0,0,.6-.5c.2-.2.4-.5.6-.7.8-1.1,1-2.8,1.5-4.3a1.213,1.213,0,0,1,.1.5,6.181,6.181,0,0,1,.1,1.5,4.553,4.553,0,0,1-.8,2.3A4.139,4.139,0,0,1,133.8,59.5Z"/>
        </g>
        <g id="Group_38" data-name="Group 38">
          <path id="Path_45" data-name="Path 45" class="cls-3" d="M138.9,69.6a.31.31,0,0,0,.2-.1c.1-.1.3-.1.6-.3a5.576,5.576,0,0,0,1.6-1.2,7.537,7.537,0,0,0,2.1-4.7,3.972,3.972,0,0,1,.4,2.4,4.8,4.8,0,0,1-1.4,2.6A5.011,5.011,0,0,1,138.9,69.6Z"/>
        </g>
        <g id="Group_39" data-name="Group 39">
          <path id="Path_46" data-name="Path 46" class="cls-3" d="M140.8,63.3a1.094,1.094,0,0,0,.2-.4,9.015,9.015,0,0,1,.5-.9c.3-.7.5-1.7.9-2.6a1.237,1.237,0,0,1,.2.3,2,2,0,0,1,.2.9,3.071,3.071,0,0,1-.4,1.5A2.861,2.861,0,0,1,140.8,63.3Z"/>
        </g>
      </g>
      <path id="Path_47" data-name="Path 47" class="cls-1" d="M91.3,61.7c4.5-2.9,9.3-5.8,14.4-7.4,3.9-1.2,8-1.5,11.9-2.4,5.2-1.2,10.7-3.2,14.7-6.7,3.9-3.4,3.9-7.5-1.6-8.9-10.5-2.8-32.2-7.5-42-4C74.3,37.4,60.3,46.6,48.6,56.5,43.3,61,40.2,78,42.4,86.3c.5,2,4.8,4.4,6.7,4.7,3.2.5,6.2-1.6,8.6-3.4,7.3-5.5,13.6-12.1,21-17.5C82.9,67.3,87.1,64.4,91.3,61.7Z"/>
    </g>
    <g id="Group_49" data-name="Group 49">
      <path id="Path_48" data-name="Path 48" class="cls-4" d="M2,67.6s.4,3.2,2.2,4.2C11.3,76,26.6,83.1,35,92c0,0-5.6-13.4-12.7-16.9C15.3,71.6,2,67.6,2,67.6Z"/>
      <path id="Path_49" data-name="Path 49" class="cls-4" d="M36.6,95.5s2.2,2.6,2.7,2.6c.6,0,24.9-21,37.2-30.6C91,56.4,121.8,42.6,139,41.3c19.3-1.6,23.8,2,24.8,1.8a21.355,21.355,0,0,0,4-2.3s-4.3-6.9-28.8-5.5S50.7,71.2,36.6,95.5Z"/>
      <g id="Group_48" data-name="Group 48">
        <path id="Path_50" data-name="Path 50" class="cls-5" d="M2,67.6s10.1-29,30.9-44.2S94.6-11,135.5,7.8c0,0,25.9,17.3,32.3,32.9,0,0-24.6-9.4-63.5,7S39.8,93.5,36.6,95.5c0,0-4.4-12.6-16.4-17.9C8.2,72.4,2,67.6,2,67.6Z"/>
        <g id="Group_42" data-name="Group 42" class="cls-6">
          <path id="Path_51" data-name="Path 51" class="cls-7" d="M70.7,7.5C56.6,10.7,26.8,31.4,20.6,39.6S49,52.4,54,55.2s41.4-30.3,60.1-34.5c3.5-4.1-7.5-13.8-14.2-14.4S88.9,3.4,70.7,7.5Z"/>
        </g>
        <g id="Group_43" data-name="Group 43" class="cls-6">
          <path id="Path_53" data-name="Path 53" class="cls-8" d="M31.6,86.8s16.9-7.7,24-8.6c7.2-.9,7.6-5.2,7.6-5.2S32.7,82.6,28.4,84.6,26.7,89,31.6,86.8Z"/>
        </g>
        <g id="Group_44" data-name="Group 44" class="cls-6">
          <path id="Path_55" data-name="Path 55" class="cls-8" d="M6.3,73c.5,0,20-4,28.7-7.8,8.3-3.7,33.9-4.2,41.6-5.8C84.2,57.9,93,55.2,93,55.2l1.4-2.7s-14.9,3.3-24.9,4-28.3,3.7-38,7.2c-8.1,3-26.6,6.2-29.5,6.9S1.4,72.8,6.3,73Z"/>
        </g>
        <g id="Group_45" data-name="Group 45" class="cls-6">
          <path id="Path_57" data-name="Path 57" class="cls-8" d="M5.3,56.5s19-5.4,31.3-8.8,30.1-8.5,45-8.5,37.2,1.4,43.4,1.6c6.1.2,15.2.1,8.8-1.7s-36.7-2.8-45.3-2.8S59.1,39.1,47.8,42,11.2,53.4,3.6,53.5C-4.1,53.6,2.5,57.3,5.3,56.5Z"/>
        </g>
        <g id="Group_46" data-name="Group 46" class="cls-6">
          <path id="Path_59" data-name="Path 59" class="cls-8" d="M22.3,28a324.956,324.956,0,0,1,33.3-6.3c16.1-2,50.7-1.4,69.3,4.1a212.1,212.1,0,0,1,32.7,12.7s5.9,2.9,4.9.8-21.3-12.1-38-16.4S76.7,17,61,17.8s-36.1,7-39.6,9.2S22.3,28,22.3,28Z"/>
        </g>
        <g id="Group_47" data-name="Group 47" class="cls-6">
          <path id="Path_61" data-name="Path 61" class="cls-8" d="M75.3,3.1s28.6-1,53.1,8.8,35.2,18,35.2,18,.5-3.5-4.7-5.5S119.7-1.2,77.7.9C41.2,2.8,75.3,3.1,75.3,3.1Z"/>
        </g>
      </g>
    </g>
  </g>
</svg>
