<svg xmlns="http://www.w3.org/2000/svg" xmlns:xlink="http://www.w3.org/1999/xlink" viewBox="250 379 192.271 95.922">
  <defs>
    <style>
      .cls-1 {
        fill: #d9f3f9;
      }

      .cls-2 {
        fill: #fff;
      }

      .cls-3 {
        fill: #85c2cc;
      }

      .cls-4 {
        fill: #ffeb33;
      }

      .cls-5 {
        clip-path: url(#clip-path);
      }

      .cls-6 {
        fill: #eacb15;
      }

      .cls-7 {
        fill: #ffef7b;
      }

      .cls-8 {
        fill: #ceae0f;
      }

      .cls-9 {
        fill: #0f161e;
      }
    </style>
    <clipPath id="clip-path">
      <path id="Path_125" data-name="Path 125" d="M3.6,53.6c0-4,15.5-11.1,20-15.4s14.5-11.6,27.6-16,42.2-16,58.7-15.1,42.2,5.8,44.7,7.5,39.5,27.2,40.9,30.3c1.4,3.2-2.4,9.6-4.1,10.3-1.7.8-30-11.7-48.3-8.4S107.3,58.9,96.3,64.9,62.2,86.5,52.9,88.7C43.7,90.9,9.1,70.1,6,68.2S3.6,56.8,3.6,53.6Z"/>
    </clipPath>
  </defs>
  <g id="Group_107" data-name="Group 107" transform="translate(246.468 371.95)">
    <g id="Group_99" data-name="Group 99">
      <g id="Group_83" data-name="Group 83">
        <path id="Path_106" data-name="Path 106" class="cls-1" d="M48,86.4s-.7,9.6,8.6,9.3c0,0,4.9,6,10.8,2.3,0,0,4.6,4.8,9.5.5,0,0,2.4,7.7,11.5,2.4,0,0,5.3,5.1,8.2-.7,0,0,5.4,2.3,7.9-1.8,0,0,4.7,3.2,6.8-3,0,0,4.7,4.2,5.8-2,0,0,8.2,3.3,10.8-4.3a7.325,7.325,0,0,0,7.2-7.1s8,.4,8.7-7c0,0,4-.4,4.5-4.1,0,0,6.1-2,3.8-6.7,0,0,10.8-5.5,3.5-12.2,0,0,4.7-9.9-7.3-8.6,0,0-.2-9.8-9.5-4.6,0,0,1.3-5.3-3.2-6.6a6.727,6.727,0,0,0-7.3,2.5s-4.5-7.1-9.2-.7c0,0-9-8-13.5,1.5,0,0-8.7-8.1-11.1.4,0,0-8.6-5-13.1,3.3,0,0-7.4-1.2-8.3,5,0,0-7.3-1.7-8.3,6.3,0,0-7.5-3.4-8.5,5.5,0,0-7.4,2-7.5,9.7,0,0-10.3,3.1-4.7,11.1C44,76.5,38,84.1,48,86.4Z"/>
        <path id="Path_107" data-name="Path 107" class="cls-2" d="M47.5,77.4s-.6,8.2,7.3,7.9c0,0,4.1,5.1,9.1,1.9,0,0,3.9,4.1,8,.4,0,0,2,6.5,9.8,2,0,0,4.5,4.4,6.9-.6,0,0,4.6,2,6.7-1.5,0,0,4,2.7,5.7-2.6,0,0,4,3.6,4.9-1.7,0,0,6.9,2.8,9.2-3.7a6.2,6.2,0,0,0,6.1-6s6.8.3,7.3-6c0,0,3.4-.3,3.8-3.5,0,0,5.2-1.7,3.2-5.7,0,0,9.1-4.6,2.9-10.4,0,0,4-8.4-6.2-7.3,0,0-.2-8.3-8-3.9,0,0,1.1-4.5-2.7-5.6a5.706,5.706,0,0,0-6.2,2.1s-3.8-6-7.8-.6c0,0-7.6-6.8-11.4,1.3,0,0-7.4-6.9-9.4.3,0,0-7.3-4.3-11.1,2.8,0,0-6.3-1-7,4.3,0,0-6.2-1.5-7,5.3,0,0-6.4-2.9-7.2,4.7,0,0-6.3,1.7-6.4,8.2,0,0-8.7,2.6-4,9.4C44.1,69,39,75.4,47.5,77.4Z"/>
      </g>
      <g id="Group_98" data-name="Group 98">
        <g id="Group_84" data-name="Group 84">
          <path id="Path_108" data-name="Path 108" class="cls-3" d="M79.8,82.7s.3.1.7.2a3.6,3.6,0,0,0,1.8,0,5.155,5.155,0,0,0,2-.9,6.549,6.549,0,0,0,1.5-1.8,2.577,2.577,0,0,1-.5,2.1,3.538,3.538,0,0,1-2.2,1.4A3.774,3.774,0,0,1,79.8,82.7Z"/>
        </g>
        <g id="Group_85" data-name="Group 85">
          <path id="Path_109" data-name="Path 109" class="cls-3" d="M77.3,92.1a2.41,2.41,0,0,0,1.5.1,5.63,5.63,0,0,0,2.9-2.4c.2-.3.4-.7.6-1l.3-.6.1-.3.1-.2c0-.1,0-.1.1-.1h.6a12.287,12.287,0,0,0,2.7-.2,6.193,6.193,0,0,0,2.4-.8,3.915,3.915,0,0,0,1-.8,6.47,6.47,0,0,0,.8-.9,6.909,6.909,0,0,0-.5,1A7.293,7.293,0,0,1,89,87a5.582,5.582,0,0,1-.8.5,9.292,9.292,0,0,1-1,.5,8.493,8.493,0,0,1-2.4.5H83.4c-.1,0,0-.1-.1,0a2.506,2.506,0,0,1-.4.7,7.512,7.512,0,0,1-2.3,2.4,5.094,5.094,0,0,1-1.7.7A1.873,1.873,0,0,1,77.3,92.1Z"/>
        </g>
        <g id="Group_86" data-name="Group 86">
          <path id="Path_110" data-name="Path 110" class="cls-3" d="M97.4,70.7h1.1a11.738,11.738,0,0,0,2.6-.1,4.259,4.259,0,0,0,2.5-1.9,5.121,5.121,0,0,0,.8-3.2s.1.2.3.7a3.686,3.686,0,0,1-.1,2.3c-.1.2-.2.5-.3.7a1.794,1.794,0,0,1-.5.7,4.62,4.62,0,0,1-.7.7,3.128,3.128,0,0,1-1,.5,4.533,4.533,0,0,1-2.3.2Q98.75,71,97.4,70.7Z"/>
        </g>
        <g id="Group_87" data-name="Group 87">
          <path id="Path_111" data-name="Path 111" class="cls-3" d="M113.4,57.1a6.173,6.173,0,0,0,.9-.1,7.53,7.53,0,0,0,2-.8c1.5-.8,3.3-2.2,3.6-4a3.224,3.224,0,0,1,.2.6,3.318,3.318,0,0,1-.5,1.9,5.143,5.143,0,0,1-2.3,2,4.779,4.779,0,0,1-1.8.6A3.8,3.8,0,0,1,113.4,57.1Z"/>
        </g>
        <g id="Group_88" data-name="Group 88">
          <path id="Path_112" data-name="Path 112" class="cls-3" d="M113.3,67.4a7.348,7.348,0,0,1,.8-.2,10.777,10.777,0,0,0,2-.6,10.076,10.076,0,0,0,2.3-1.2,4.472,4.472,0,0,0,1.3-2.2,3.224,3.224,0,0,1,.2.6,3.464,3.464,0,0,1-.4,1.8,4.954,4.954,0,0,1-2.4,1.7A8.106,8.106,0,0,1,113.3,67.4Z"/>
        </g>
        <g id="Group_89" data-name="Group 89">
          <path id="Path_113" data-name="Path 113" class="cls-3" d="M111.9,73.1s.4-.1,1-.3a4.331,4.331,0,0,1,.5-.1c.2-.1.3-.2.5-.3l.6-.3c.2-.1.4-.3.6-.4a6.739,6.739,0,0,0,2.1-2.3,2.506,2.506,0,0,1,.4-.7c.1-.3.2-.5.3-.8a2.354,2.354,0,0,0,.2-.8c.1-.3.1-.5.2-.8a3.125,3.125,0,0,1,.2.7,4.089,4.089,0,0,1-.2,2.1,4.591,4.591,0,0,1-.7,1.4c-.2.2-.3.5-.6.7-.2.2-.5.4-.7.6A6.224,6.224,0,0,1,111.9,73.1Z"/>
        </g>
        <g id="Group_90" data-name="Group 90">
          <path id="Path_114" data-name="Path 114" class="cls-3" d="M102.1,85.1a4.531,4.531,0,0,0,.8-.1c.5-.1,1.2-.1,1.9-.2a6.154,6.154,0,0,0,2.3-.7,6.616,6.616,0,0,0,1.9-1.5s.1.9-1.1,2a4.728,4.728,0,0,1-2.5,1A8.054,8.054,0,0,1,102.1,85.1Z"/>
        </g>
        <g id="Group_91" data-name="Group 91">
          <path id="Path_115" data-name="Path 115" class="cls-3" d="M109.5,86.2a11.461,11.461,0,0,0,3.1-.3,8.247,8.247,0,0,0,2.6-1,2.879,2.879,0,0,0,1.3-2.3,3.224,3.224,0,0,1,.2.6,2.194,2.194,0,0,1-.5,1.9C115,86.7,112.2,87.3,109.5,86.2Z"/>
        </g>
        <g id="Group_92" data-name="Group 92">
          <path id="Path_116" data-name="Path 116" class="cls-3" d="M132,68.8a2.477,2.477,0,0,0,.9.3,5.488,5.488,0,0,0,2.3.2c1.8-.1,4-.8,4.9-2.6a4.184,4.184,0,0,1-.1.7,3.422,3.422,0,0,1-1.1,1.7,5.4,5.4,0,0,1-3,1.1,7.469,7.469,0,0,1-2-.3A4.532,4.532,0,0,1,132,68.8Z"/>
        </g>
        <g id="Group_93" data-name="Group 93">
          <path id="Path_117" data-name="Path 117" class="cls-3" d="M131,73.9h.8a9.545,9.545,0,0,0,2.1-.3,6.356,6.356,0,0,0,2.2-1.4,7.45,7.45,0,0,0,1.3-2.5,4.065,4.065,0,0,1-.3,2.5,3.876,3.876,0,0,1-2.3,2A5.077,5.077,0,0,1,131,73.9Z"/>
        </g>
        <g id="Group_94" data-name="Group 94">
          <path id="Path_118" data-name="Path 118" class="cls-3" d="M120.7,67.8a6.592,6.592,0,0,1,.9-.2,3.178,3.178,0,0,0,.9-.3,3,3,0,0,0,1.1-.6,7.752,7.752,0,0,0,3-4.7,1.731,1.731,0,0,1,.1.7,4.66,4.66,0,0,1-.2,1.9l-.3.6a2.092,2.092,0,0,1-.4.6c-.2.2-.3.4-.5.6a3.039,3.039,0,0,1-.7.5A4.4,4.4,0,0,1,120.7,67.8Z"/>
        </g>
        <g id="Group_95" data-name="Group 95">
          <path id="Path_119" data-name="Path 119" class="cls-3" d="M137.1,61.3a3.609,3.609,0,0,1,.5-.4c.2-.1.3-.3.5-.5a4.35,4.35,0,0,0,.6-.7c.7-1,.9-2.7,1.5-4.1a1.213,1.213,0,0,1,.1.5,5.313,5.313,0,0,1,.1,1.4,4.245,4.245,0,0,1-.8,2.2A2.987,2.987,0,0,1,137.1,61.3Z"/>
        </g>
        <g id="Group_96" data-name="Group 96">
          <path id="Path_120" data-name="Path 120" class="cls-3" d="M142,71a.31.31,0,0,0,.2-.1.914.914,0,0,0,.5-.3,4.89,4.89,0,0,0,1.5-1.2,7.2,7.2,0,0,0,2-4.5,3.053,3.053,0,0,1,.4,2.3,3.853,3.853,0,0,1-1.3,2.4A4.768,4.768,0,0,1,142,71Z"/>
        </g>
        <g id="Group_97" data-name="Group 97">
          <path id="Path_121" data-name="Path 121" class="cls-3" d="M143.8,64.9a1.094,1.094,0,0,0,.2-.4,3.919,3.919,0,0,0,.4-.9c.3-.7.5-1.6.9-2.4a1.237,1.237,0,0,1,.2.3,2,2,0,0,1,.2.9,2.735,2.735,0,0,1-.4,1.4A2.165,2.165,0,0,1,143.8,64.9Z"/>
        </g>
      </g>
    </g>
    <g id="Group_106" data-name="Group 106">
      <path id="Path_122" data-name="Path 122" class="cls-1" d="M148,39.9c-13.3-2.3-28.2,1.5-40.7,5.8A116.336,116.336,0,0,0,72.4,65.2c-5.3,4.3-11.4,9.2-15,15.1-2.5,4.1-.7,6.3,1.5,10.2,6.9-.9,11.7-4.2,17.8-7.3C83.2,79.9,89,75.6,95.4,72c12.3-7,24.6-13.7,37.9-18.6,7.3-2.7,14.9-2.9,22.6-2.3C157.7,44.4,154.9,41.1,148,39.9Z"/>
      <g id="Group_105" data-name="Group 105">
        <path id="Path_123" data-name="Path 123" class="cls-4" d="M3.6,53.6c0-4,15.5-11.1,20-15.4s14.5-11.6,27.6-16,42.2-16,58.7-15.1,42.2,5.8,44.7,7.5,39.5,27.2,40.9,30.3c1.4,3.2-2.4,9.6-4.1,10.3-1.7.8-30-11.7-48.3-8.4S107.3,58.9,96.3,64.9,62.2,86.5,52.9,88.7C43.7,90.9,9.1,70.1,6,68.2S3.6,56.8,3.6,53.6Z"/>
        <g id="Group_100" data-name="Group 100" class="cls-5">
          <path id="Path_124" data-name="Path 124" class="cls-6" d="M202.5,46.8c-6.9-1.9-29.4-9.2-42.8-11.8-13.5-2.4-58.4,5.4-67.7,12S51.6,73.7,47.1,73.2c-4.5-.6-38.7-11.6-47-23,0,0-.7,16.2,1.4,19.5S47.1,93.9,53,92.4s49.7-26.6,58.9-31.2,42.7-15.3,54.1-8.9,32.5,8.4,32.5,8.4Z"/>
        </g>
        <g id="Group_101" data-name="Group 101" class="cls-5">
          <path id="Path_126" data-name="Path 126" class="cls-7" d="M33.4,56.4C19.8,52,12.3,44.9,29.8,35.6S67.7,17.3,79.9,18.4,96.4,27.4,98,30c1.5,2.5-22.2,8-31,15.3S55.7,63.6,33.4,56.4Z"/>
        </g>
        <g id="Group_102" data-name="Group 102" class="cls-5">
          <path id="Path_128" data-name="Path 128" class="cls-6" d="M55.6,25.2c-3.5,7.4.8,8.4,7.3,7,5.4-1.2,10.4-4,16.2-3.1,7.1,1.1,10.6-1.2,16.2-5.5,3.2-2.4,8.7-4.8,7.3-10-.8-2.7-2.8-2.8-5.2-3.5-2.8-.7-3.3-1.3-5.6-3A14.643,14.643,0,0,0,77.4,5.5c-4.3,2-9.4,3.6-12.5,7.4C62.1,16.4,57.6,21,55.6,25.2Z"/>
        </g>
        <g id="Group_103" data-name="Group 103" class="cls-5">
          <path id="Path_130" data-name="Path 130" class="cls-6" d="M132.4,17c-2.1-.3-3.6-2.3-5.9-2.8-2.5-.6-5,0-7.3-1.7-7-5.1-1-11.8,5.6-12.4,4.6-.4,13.3.4,15.6,5.2C142.7,9.9,137.6,17.7,132.4,17Z"/>
        </g>
        <g id="Group_104" data-name="Group 104" class="cls-5">
          <path id="Path_132" data-name="Path 132" class="cls-8" d="M51.5,77.7c1-.7,2.4,0,3.5-.7,1.2-.8,1.7-2.7,2.9-3.6,2-1.6,4.4-2.4,6.2-.9,2.7,2.3,1.2,4.3,5.8,4.6,2.5.1,5.7-1.6,6.2,2.4.6,5-10.9,8.4-14.2,10.3-4.2,2.4-6.7,4.3-9.6-.5C50.5,86.3,47.8,80.3,51.5,77.7Z"/>
        </g>
      </g>
    </g>
    <path id="Path_134" data-name="Path 134" class="cls-9" d="M77.2,12.9s36.1,14.7,43.5,24.8c0,0-.5,20.8-4.2,36.1s-9.9,25.1-9.3,25.5c1.8,1,14.3-2.6,16.5-5.8,0,0,22.7-41.1,18.3-57.9-2.1-8-34.6-24.8-44.8-27C97.2,8.5,83.7,9.2,77.2,12.9Z"/>
  </g>
</svg>
