<svg xmlns="http://www.w3.org/2000/svg" xmlns:xlink="http://www.w3.org/1999/xlink" viewBox="250 93 179.568 111.422">
  <defs>
    <style>
      .cls-1 {
        fill: #d9f3f9;
      }

      .cls-2 {
        fill: #fff;
      }

      .cls-3 {
        fill: #72bdc1;
      }

      .cls-4 {
        fill: #ff9c0d;
      }

      .cls-5 {
        clip-path: url(#clip-path);
      }

      .cls-6 {
        fill: #ffb24d;
      }

      .cls-7 {
        fill: #ffdcb3;
      }
    </style>
    <clipPath id="clip-path">
      <path id="Path_20" data-name="Path 20" d="M33.2,107.8c-3.7.2-14.3-10.2-20.5-11.9C6.6,94.3.9,93,.5,90.6s5.3-5.7,9-13.9S36.1,20.9,78.7,6.1,182,33.6,180,66.8c0,0-3.3,0-9.4-4.1s-48.4-11.2-61.9-7.3-52.1,40-59.8,45.8C41,107,41,107.4,33.2,107.8Z"/>
    </clipPath>
  </defs>
  <g id="Group_25" data-name="Group 25" transform="translate(249.52 89.94)">
    <g id="Group_17" data-name="Group 17">
      <g id="Group_1" data-name="Group 1">
        <path id="Path_1" data-name="Path 1" class="cls-1" d="M43.4,100.4s1.2,11,11.3,7.3c0,0,5.6,6.4,12,2.1,0,0,5.3,5.2,10.4.2,0,0,2.9,8.4,12.8,2.2,0,0,6,5.5,9-1.1,0,0,6,2.4,8.6-2.3,0,0,5.3,3.3,7.3-3.6,0,0,5.3,4.5,6.4-2.4,0,0,9.1,3.3,11.8-5.2a8.056,8.056,0,0,0,7.7-8.1s8.9.1,9.3-8.1c0,0,4.4-.6,4.8-4.7,0,0,6.7-2.4,3.9-7.5,0,0,11.7-6.4,3.4-13.6,0,0,4.8-11.1-8.4-9.2,0,0-.6-10.8-10.6-4.8,0,0,1.2-5.8-3.8-7.2-5.1-1.4-8,3-8,3s-5.3-7.7-10.1-.5c0,0-10.2-8.5-14.8,2.2,0,0-9.9-8.7-12.3.8,0,0-9.7-5.2-14.3,4.2,0,0-8.2-1.1-9,5.9,0,0-8.2-1.6-8.9,7.2,0,0-8.4-3.5-9.2,6.4,0,0-8.1,2.4-7.9,11,0,0-11.3,3.8-4.8,12.5C40.1,86.9,32.3,98.2,43.4,100.4Z"/>
        <path id="Path_2" data-name="Path 2" class="cls-2" d="M49.4,96.6s.9,8.5,8.7,5.7c0,0,4.3,5,9.3,1.6,0,0,4.1,4,8.1.1,0,0,2.2,6.5,9.9,1.7,0,0,4.7,4.2,6.9-.9,0,0,4.7,1.8,6.7-1.7,0,0,4.1,2.6,5.7-2.8,0,0,4.1,3.5,4.9-1.9,0,0,7.1,2.6,9.1-4a6.369,6.369,0,0,0,6-6.3s6.9.1,7.2-6.2c0,0,3.4-.4,3.7-3.6,0,0,5.2-1.9,3-5.8,0,0,9-5,2.6-10.5,0,0,3.7-8.6-6.5-7.1,0,0-.5-8.4-8.2-3.7,0,0,.9-4.5-2.9-5.6-3.9-1.1-6.2,2.3-6.2,2.3s-4.1-5.9-7.8-.4c0,0-7.9-6.6-11.5,1.7,0,0-7.6-6.7-9.5.6,0,0-7.5-4-11.1,3.2,0,0-6.4-.8-6.9,4.5,0,0-6.3-1.3-6.9,5.6,0,0-6.5-2.7-7.1,4.9,0,0-6.3,1.9-6.1,8.5,0,0-8.7,3-3.7,9.6C46.8,86.2,40.7,94.8,49.4,96.6Z"/>
      </g>
      <g id="Group_16" data-name="Group 16">
        <g id="Group_2" data-name="Group 2">
          <path id="Path_3" data-name="Path 3" class="cls-3" d="M81.7,92.5a7.348,7.348,0,0,0,.8.2,4.2,4.2,0,0,0,1.9-.1,6.058,6.058,0,0,0,2.1-1.1,9.51,9.51,0,0,0,1.5-2,3.043,3.043,0,0,1-.5,2.3,4.127,4.127,0,0,1-2.3,1.6A3.514,3.514,0,0,1,81.7,92.5Z"/>
        </g>
        <g id="Group_3" data-name="Group 3">
          <path id="Path_4" data-name="Path 4" class="cls-3" d="M79.4,102.8a2.306,2.306,0,0,0,1.6,0,6.217,6.217,0,0,0,3-2.7c.2-.4.4-.7.6-1.1l.3-.6.1-.3.1-.2c0-.1,0-.1.1-.1h.6a28.5,28.5,0,0,0,2.9-.3,11.663,11.663,0,0,0,2.6-1,9.016,9.016,0,0,0,1-.9,9.016,9.016,0,0,1,.9-1s-.2.4-.5,1.1a7.444,7.444,0,0,1-.9,1.2,5.547,5.547,0,0,1-.8.6,9.292,9.292,0,0,1-1,.5,9.053,9.053,0,0,1-2.6.6c-.5,0-1,.1-1.5.1h-.1v.1a1.612,1.612,0,0,1-.4.7,9.734,9.734,0,0,1-2.3,2.7,5.076,5.076,0,0,1-1.8.9A3.194,3.194,0,0,1,79.4,102.8Z"/>
        </g>
        <g id="Group_4" data-name="Group 4">
          <path id="Path_5" data-name="Path 5" class="cls-3" d="M99.9,78.8a5.5,5.5,0,0,1,1.2-.1,9.9,9.9,0,0,0,2.8-.3,4.6,4.6,0,0,0,2.6-2.2,5.31,5.31,0,0,0,.7-3.5,2.218,2.218,0,0,1,.4.7,4.132,4.132,0,0,1,0,2.5c-.1.3-.2.5-.3.8a.758.758,0,0,0-.2.4c-.1.1-.2.3-.3.4-.2.3-.5.5-.7.8a3.328,3.328,0,0,1-1,.6,4.153,4.153,0,0,1-2.5.3A11.723,11.723,0,0,1,99.9,78.8Z"/>
        </g>
        <g id="Group_5" data-name="Group 5">
          <path id="Path_6" data-name="Path 6" class="cls-3" d="M116.3,63.4a5.1,5.1,0,0,0,.9-.1,9.693,9.693,0,0,0,2.1-1c1.6-1,3.4-2.5,3.6-4.5a3.125,3.125,0,0,1,.2.7,4.146,4.146,0,0,1-.4,2,6.283,6.283,0,0,1-2.3,2.3,6.191,6.191,0,0,1-1.9.7A4.121,4.121,0,0,1,116.3,63.4Z"/>
        </g>
        <g id="Group_6" data-name="Group 6">
          <path id="Path_7" data-name="Path 7" class="cls-3" d="M116.6,74.5a6.592,6.592,0,0,1,.9-.2c.6-.2,1.3-.4,2.2-.7a8.37,8.37,0,0,0,2.4-1.4,3.721,3.721,0,0,0,1.2-2.5,3.224,3.224,0,0,1,.2.6,3.34,3.34,0,0,1-.4,2,4.936,4.936,0,0,1-2.5,1.9A10.2,10.2,0,0,1,116.6,74.5Z"/>
        </g>
        <g id="Group_7" data-name="Group 7">
          <path id="Path_8" data-name="Path 8" class="cls-3" d="M115.5,80.6a5.453,5.453,0,0,0,1-.4c.2-.1.3-.1.5-.2l.6-.3.6-.3a2.651,2.651,0,0,0,.6-.5,11.985,11.985,0,0,0,1.2-1.1c.2-.2.3-.5.5-.7a2.507,2.507,0,0,0,.4-.7l.4-.8a3.091,3.091,0,0,0,.2-.8c.1-.3.1-.6.2-.8,0-.3.1-.6.1-.8a3.269,3.269,0,0,1,.2.8,4.617,4.617,0,0,1-.1,2.3,7.091,7.091,0,0,1-.7,1.6,2.407,2.407,0,0,1-.6.8,5.716,5.716,0,0,1-.8.7A6.87,6.87,0,0,1,115.5,80.6Z"/>
        </g>
        <g id="Group_8" data-name="Group 8">
          <path id="Path_9" data-name="Path 9" class="cls-3" d="M105.6,94a4.531,4.531,0,0,0,.8-.1c.5-.1,1.3-.2,2.1-.3a9.678,9.678,0,0,0,2.4-.8,5.194,5.194,0,0,0,1.9-1.7,3.116,3.116,0,0,1-1,2.2,4.854,4.854,0,0,1-2.6,1.2A25.787,25.787,0,0,1,105.6,94Z"/>
        </g>
        <g id="Group_9" data-name="Group 9">
          <path id="Path_10" data-name="Path 10" class="cls-3" d="M113.6,94.8a14.822,14.822,0,0,0,3.4-.5,7.239,7.239,0,0,0,2.7-1.2,3.034,3.034,0,0,0,1.2-2.5s.1.2.3.7a2.97,2.97,0,0,1-.4,2.1C119.5,94.9,116.6,95.8,113.6,94.8Z"/>
        </g>
        <g id="Group_10" data-name="Group 10">
          <path id="Path_11" data-name="Path 11" class="cls-3" d="M136.8,74.9a2.477,2.477,0,0,0,.9.3,9.024,9.024,0,0,0,2.4.1c1.9-.2,4.3-1.1,5.1-3.1v.7a3.816,3.816,0,0,1-1.1,1.9,5.557,5.557,0,0,1-3.2,1.3,5.022,5.022,0,0,1-2.1-.2A3.474,3.474,0,0,1,136.8,74.9Z"/>
        </g>
        <g id="Group_11" data-name="Group 11">
          <path id="Path_12" data-name="Path 12" class="cls-3" d="M135.9,80.4h1a4.93,4.93,0,0,0,2.2-.5,5.325,5.325,0,0,0,2.3-1.7,6.6,6.6,0,0,0,1.2-2.7,4.109,4.109,0,0,1-.2,2.7,4.652,4.652,0,0,1-2.3,2.3A4.779,4.779,0,0,1,135.9,80.4Z"/>
        </g>
        <g id="Group_12" data-name="Group 12">
          <path id="Path_13" data-name="Path 13" class="cls-3" d="M124.6,74.5a7.781,7.781,0,0,0,.9-.3,2.6,2.6,0,0,0,1-.4,3.377,3.377,0,0,0,1.1-.7c1.6-1,2.6-3.2,3-5.2a1.73,1.73,0,0,1,.1.7,5.19,5.19,0,0,1-.1,2.1,4.875,4.875,0,0,0-.3.7,2.507,2.507,0,0,1-.4.7c-.2.2-.3.5-.5.7s-.5.4-.7.6A5.148,5.148,0,0,1,124.6,74.5Z"/>
        </g>
        <g id="Group_13" data-name="Group 13">
          <path id="Path_14" data-name="Path 14" class="cls-3" d="M141.8,66.7a6.122,6.122,0,0,1,.6-.5,1.7,1.7,0,0,0,.6-.6,5.548,5.548,0,0,0,.6-.8,18.352,18.352,0,0,0,1.3-4.5,4.2,4.2,0,0,1,.2.5,5.418,5.418,0,0,1,.2,1.5,4.546,4.546,0,0,1-3.5,4.4Z"/>
        </g>
        <g id="Group_14" data-name="Group 14">
          <path id="Path_15" data-name="Path 15" class="cls-3" d="M147.6,76.8a.31.31,0,0,0,.2-.1,1.628,1.628,0,0,1,.6-.3,6.1,6.1,0,0,0,1.6-1.3,7.639,7.639,0,0,0,1.9-4.9,3.5,3.5,0,0,1,.5,2.4,5.159,5.159,0,0,1-1.3,2.7A5.9,5.9,0,0,1,147.6,76.8Z"/>
        </g>
        <g id="Group_15" data-name="Group 15">
          <path id="Path_16" data-name="Path 16" class="cls-3" d="M149.2,70.2l.2-.4a5.132,5.132,0,0,0,.4-1c.3-.8.4-1.7.8-2.6a1.237,1.237,0,0,1,.2.3,4.649,4.649,0,0,1,.3.9,2.876,2.876,0,0,1-.3,1.5A2.929,2.929,0,0,1,149.2,70.2Z"/>
        </g>
      </g>
      <path id="Path_17" data-name="Path 17" class="cls-1" d="M53,106.5C60.8,96.3,70.8,89,80.6,80.8c10-8.4,18.1-18.1,31.9-19.2,7.7-.6,15.3,0,23-.3,9.5-.4,11.6-1.1,6.2-4.4-3.1-1.9-7.3-2.5-10.8-2.9a80.886,80.886,0,0,0-18.4-.2c-14.2,1.3-28.3,5.8-40,14-8.4,5.9-15.9,14-19.5,23.8-1.5,4.2-2.5,9.1-.6,13.3.3.6.6,1.1.9,1.6H53Z"/>
    </g>
    <g id="Group_24" data-name="Group 24">
      <path id="Path_18" data-name="Path 18" class="cls-4" d="M33.2,107.8c-3.7.2-14.3-10.2-20.5-11.9C6.6,94.3.9,93,.5,90.6s5.3-5.7,9-13.9S36.1,20.9,78.7,6.1,182,33.6,180,66.8c0,0-3.3,0-9.4-4.1s-48.4-11.2-61.9-7.3-52.1,40-59.8,45.8C41,107,41,107.4,33.2,107.8Z"/>
      <g id="Group_18" data-name="Group 18" class="cls-5">
        <path id="Path_19" data-name="Path 19" class="cls-6" d="M15.3,72.1C25.6,50.1,51.2,19,69.5,12.7S114.6.6,138.7,18.3s11.4,23.5-1.9,21.6-46.6,2.5-63,18.6S3.7,97,15.3,72.1Z"/>
      </g>
      <g id="Group_19" data-name="Group 19" class="cls-5">
        <path id="Path_21" data-name="Path 21" class="cls-7" d="M2.9,92.9s17.5,1.5,28.9,0,25.9-10.3,37.8-9.3c0,0,.9,4.9-7.2,6.2s-22.2,5.3-29,5.7-25.8-1.2-29.7,0S-1.9,94.4,2.9,92.9Z"/>
      </g>
      <g id="Group_20" data-name="Group 20" class="cls-5">
        <path id="Path_23" data-name="Path 23" class="cls-7" d="M10.3,70.7s7-5.9,18.6-5.3C40.6,66,66.9,76,88,70.7s20.6-12,15.2-10.7-32.6,6.8-49.4,3.9-33.2-4.5-43.4,0S5.4,72.3,10.3,70.7Z"/>
      </g>
      <g id="Group_21" data-name="Group 21" class="cls-5">
        <path id="Path_25" data-name="Path 25" class="cls-7" d="M30.6,38.3s25-4.7,48.4,6.4,36.9,10.8,36.9,10.8S96.4,49.9,90.2,46C80,39.5,66.9,24.6,32.6,34.9,32.6,34.9,31,35.6,30.6,38.3Z"/>
      </g>
      <g id="Group_22" data-name="Group 22" class="cls-5">
        <path id="Path_27" data-name="Path 27" class="cls-7" d="M67.5,11s25.8-.9,42.8,15.1,34,29.6,46.3,33.8c0,0,.6-1.2-4.9-4.4S121.8,32.6,117.1,26,96.6,2.6,73.2,5.9C73.2,5.9,68.8,5.7,67.5,11Z"/>
      </g>
      <g id="Group_23" data-name="Group 23" class="cls-5">
        <path id="Path_29" data-name="Path 29" class="cls-7" d="M124.9,5.5c2.5,3.2,12.5,21.1,21.7,28.1,4.6,3.5,20.3,18,18.6,29.5-1.6,11.5,1.8,0,1.8,0s1-8-4.2-17.8C154.5,29.5,136,21.5,133.2,8.2S121.1.7,124.9,5.5Z"/>
      </g>
    </g>
  </g>
</svg>
