<svg xmlns="http://www.w3.org/2000/svg" xmlns:xlink="http://www.w3.org/1999/xlink" viewBox="1355 309 152.373 112.258">
  <defs>
    <style>
      .cls-1 {
        fill: #bfe3e8;
      }

      .cls-2 {
        fill: #846538;
      }

      .cls-3 {
        fill: #1d1d1b;
      }

      .cls-4 {
        fill: #ff9c0d;
      }

      .cls-5 {
        clip-path: url(#clip-path);
      }

      .cls-6 {
        fill: #ffb24d;
      }

      .cls-7 {
        fill: #dd820a;
      }

      .cls-8 {
        fill: #ffdfb8;
      }

      .cls-9 {
        fill: #d9f3f9;
      }

      .cls-10 {
        fill: #fff;
      }

      .cls-11 {
        fill: #729aa0;
      }

      .cls-12 {
        fill: #85c2cc;
      }

      .cls-13 {
        fill: #1e2b2d;
      }

      .cls-14 {
        fill: #ff6957;
      }

      .cls-15 {
        clip-path: url(#clip-path-8);
      }

      .cls-16 {
        fill: #ff9a92;
      }

      .cls-17 {
        fill: #ffcdcc;
      }

      .cls-18 {
        fill: #e5da15;
      }

      .cls-19 {
        fill: #fff13e;
      }

      .cls-20 {
        fill: #b7b17d;
      }

      .cls-21 {
        fill: #f7f2ba;
      }

      .cls-22 {
        fill: #a0d179;
      }

      .cls-23 {
        fill: #c6eaa7;
      }

      .cls-24 {
        fill: #6d9947;
      }
    </style>
    <clipPath id="clip-path">
      <path id="Path_438" data-name="Path 438" d="M19.6,27s2.8-7.8,11.9-13.4S64.5-.7,89.9,1.8,138.3,22.9,146,42c7.7,19.2,7.4,41.8,4.4,46.6-2.9,4.8-9.9,8.9-15.3,6.8s-12.3-12.2-14.3-16.8-1.9-32.7-7.5-41.4S101.2,17.7,85.9,12.1,52,8.1,40.3,13.6,23.4,26.1,19.6,27Z"/>
    </clipPath>
    <clipPath id="clip-path-8">
      <path id="Path_485" data-name="Path 485" d="M44.4,75.9a16.844,16.844,0,0,1,3-5.6c1.4-2,2.8-2.4,4.8-3.7,7-4.4,15-6.4,22.5-2.3,4.1,2.2,7.1,3.9,10.1,7.6.8,1,2.3,2.6,2.1,4.1-.2,1.4-2,2.2-3.1,2.9-5.9,3.8-12.6,7.5-19.5,8.9-5.8,1.1-12.1,2.5-18,1.1-2.8-.7-3.2-1.6-3.2-4.4A35.8,35.8,0,0,1,44.4,75.9Z"/>
    </clipPath>
  </defs>
  <g id="Group_380" data-name="Group 380" transform="translate(1355.008 307.641)">
    <g id="Group_337" data-name="Group 337">
      <g id="Group_328" data-name="Group 328">
        <path id="Path_422" data-name="Path 422" class="cls-1" d="M50.4,7.7s6-4.5,12.9-3.7c0,0,8.3-3.5,11.8,1,0,0,5.2-2.7,9.3,1,0,0,8.5-2.7,10.1,1.7,0,0,6.8-.4,7.2,3.2,0,0,8.1-.8,8.3,3.3,0,0,10,1.7,9.9,6.8,0,0,8.5,0,7.9,4.6,0,0,8.5,1.7,8.1,7.4,0,0,6.8,3.7,5.8,8.5,0,0,3.9,2.5,1.9,5.8,0,0,3.2,6.4.5,10.4,0,0,4.2,1.7,1.1,5.8,0,0,3.2,7.9-.1,9.7,0,0,4.4,4.8-.2,8.9,0,0,3.5,4.3,0,7.7a5.3,5.3,0,0,1-1.9,6.4s.4,6.2-3.9,7.7c0,0-3.1,7.4-8.1,4.1,0,0-3.3,3.8-7,.8,0,0-6.8,5-8.9,1.1,0,0-7.2,4.8-10.6,1.5,0,0-6,1.9-8.3-1s13.9-21.3,15.1-25.7-3.5-47.2-15.5-55.9S44.4,10.6,50.4,7.7Z"/>
        <g id="Group_327" data-name="Group 327">
          <path id="Path_423" data-name="Path 423" class="cls-2" d="M128.4,99.7c-2.2-1.5,1.4-9.6,6-6.5C137.7,95.4,129.7,100.6,128.4,99.7Z"/>
          <path id="Path_424" data-name="Path 424" class="cls-2" d="M122.7,104c-2.7-.3.9-7.4,3-7.1S126.8,104.3,122.7,104Z"/>
          <path id="Path_425" data-name="Path 425" class="cls-3" d="M125.8,95.4c-2.4-.1-.2-8.2,3.5-7.8C133,87.9,128.3,95.4,125.8,95.4Z"/>
          <path id="Path_426" data-name="Path 426" class="cls-2" d="M123.3,81.2c-2.5-.5-4.1,10.3-.5,10.7C126.3,92.3,126.1,81.7,123.3,81.2Z"/>
          <path id="Path_427" data-name="Path 427" class="cls-3" d="M118.3,99.3c-1.6-1.7,3.1-8.4,5.9-5.2C126,96.1,119.9,101.1,118.3,99.3Z"/>
          <path id="Path_428" data-name="Path 428" class="cls-3" d="M128.3,104c-1-1.6,6.6-6.3,7.6-4.2S129.7,106.3,128.3,104Z"/>
          <path id="Path_429" data-name="Path 429" class="cls-2" d="M121.7,109.2c-1.3-1.1,2.8-6.5,5.5-4.5C129.9,106.6,124.3,111.3,121.7,109.2Z"/>
          <path id="Path_430" data-name="Path 430" class="cls-3" d="M115.1,109.7c-1.8-1.4,3.4-6.4,5.6-5.1S117.5,111.6,115.1,109.7Z"/>
          <path id="Path_431" data-name="Path 431" class="cls-2" d="M135.9,105.3c-.9-1.8-7.7,1.1-6.5,4.1C130.5,112.4,137.6,108.8,135.9,105.3Z"/>
          <path id="Path_432" data-name="Path 432" class="cls-3" d="M138.9,91.9c-2.3-1-4.7,6.8-2.1,7.4S141.9,93.2,138.9,91.9Z"/>
          <path id="Path_433" data-name="Path 433" class="cls-3" d="M142.7,99.7c-1.1-2.2-7.6,2.2-6.1,5C138.1,107.4,143.9,102.2,142.7,99.7Z"/>
          <path id="Path_434" data-name="Path 434" class="cls-2" d="M119.9,102c-1.1-1.7-6.1-.2-6,2.3C114,106.7,121.5,104.6,119.9,102Z"/>
          <path id="Path_435" data-name="Path 435" class="cls-2" d="M145.3,90.9c-2.4-.5-6.1,5.5-2.5,6.5C145.2,98.2,147.7,91.4,145.3,90.9Z"/>
        </g>
      </g>
      <g id="Group_336" data-name="Group 336">
        <path id="Path_436" data-name="Path 436" class="cls-4" d="M19.6,27s2.8-7.8,11.9-13.4S64.5-.7,89.9,1.8,138.3,22.9,146,42c7.7,19.2,7.4,41.8,4.4,46.6-2.9,4.8-9.9,8.9-15.3,6.8s-12.3-12.2-14.3-16.8-1.9-32.7-7.5-41.4S101.2,17.7,85.9,12.1,52,8.1,40.3,13.6,23.4,26.1,19.6,27Z"/>
        <g id="Group_329" data-name="Group 329" class="cls-5">
          <path id="Path_437" data-name="Path 437" class="cls-6" d="M70.8,2.8c7.1-2.8,29.1.1,43.2,7.9s24.4,20.5,27.7,30.8c3.4,10.3-11.2,12.2-15,5.6-5.1-9-17.8-31.7-27.9-36.4S67.6,4,70.8,2.8Z"/>
        </g>
        <g id="Group_330" data-name="Group 330" class="cls-5">
          <path id="Path_439" data-name="Path 439" class="cls-7" d="M22.1,18.3S42.8,5.2,58.7,4.6,91.6,7.8,103.8,19s19.7,25.9,19.5,41.4-2.9,21.2,4.6,29.1-6.9-1.9-10-12.2-4.5-41.1-15.7-52.1S57.9,4.1,39.6,16.3,10.9,35.1,22.1,18.3Z"/>
        </g>
        <g id="Group_331" data-name="Group 331" class="cls-5">
          <path id="Path_441" data-name="Path 441" class="cls-8" d="M153.3,89.3a22.65,22.65,0,0,1-11.6-7.5c-5-6.2-12.2-17.3-18.4-20,0,0-3.9.2-5.8,2.2a7.542,7.542,0,0,1,5.7.6c2.6,1.6,12.1,9.7,14.2,14.9s7.7,10.8,13.3,11.2S153.3,89.3,153.3,89.3Z"/>
        </g>
        <g id="Group_332" data-name="Group 332" class="cls-5">
          <path id="Path_443" data-name="Path 443" class="cls-8" d="M112.7,36.3s3.9-2.3,4.8-1.9,11.8-.6,20.3,12.4,13.5,19,16.3,19.9c2.8,1,1.2-3.1,0-4.1a129.179,129.179,0,0,1-12.8-16.1c-4.1-6.2-13.1-16.1-26.2-13.9a9.531,9.531,0,0,0-3.3,2.4C110.3,36.7,112.7,36.3,112.7,36.3Z"/>
        </g>
        <g id="Group_333" data-name="Group 333" class="cls-5">
          <path id="Path_445" data-name="Path 445" class="cls-8" d="M93.9,15.9a10.825,10.825,0,0,1,1.6-3c1-1.2,15.4-4.8,29.3,3s4.5-.1,0-2.4-23-7.7-30.9-1.4a18.328,18.328,0,0,0-1.3,4.2C92.2,18.6,93.9,15.9,93.9,15.9Z"/>
        </g>
        <g id="Group_334" data-name="Group 334" class="cls-5">
          <path id="Path_447" data-name="Path 447" class="cls-8" d="M85,1.5s-16.6.9-22.6,3c0,0-3,2.3-2.5,4.3,0,0-2.2,1.2-2,.3.1-.9-1-3.3.8-4.5S75.8-2.8,85,1.5Z"/>
        </g>
        <g id="Group_335" data-name="Group 335" class="cls-5">
          <path id="Path_449" data-name="Path 449" class="cls-8" d="M42.9,7.9s-.2,4.3,0,6.6-3.2-.3-2.4-5.4S42.9,7.9,42.9,7.9Z"/>
        </g>
      </g>
    </g>
    <g id="Group_368" data-name="Group 368">
      <g id="Group_338" data-name="Group 338">
        <path id="Path_451" data-name="Path 451" class="cls-9" d="M10.6,100s-2.7,2.6-5.8-.7a6.922,6.922,0,0,1-1.4-8.1s-4.8-4.3-.8-9.5c0,0-6.6-6.8,1.2-10.8,0,0-5.8-5.6.6-9.7,0,0-3.6-6.6,1.4-8.5,0,0-1.6-6.8,4-7.9,0,0-2.1-7.4,5-9.3,0,0-2.7-5.6,4.1-7.4a6.222,6.222,0,0,1,6.2-6.4s1.7-7,10.1-5.4c0,0,1.7-6,8.7-4.6,0,0,3.7-6.6,9.9-2.9A9.085,9.085,0,0,1,65.6,7.7S73,4,76.2,9.6c0,0,8.9-1.4,10.3,4.1,0,0,7.7-1.9,9.9,5.2,0,0,6.4,0,6,5.8,0,0,7-1.2,6.4,6.2,0,0,6,1.4,4.8,8.3,0,0,5.4,2.5,2.5,7.7,0,0,6.8,1.9,1.7,8.7,0,0,4.4,4.4.2,8.5,0,0,4.8,4.6-.6,9.7,0,0,3.5,7.2-1.4,10.8,0,0,3.9,5.4-1.2,9.3,0,0,4.3,6-2.3,9.9,0,0-1.2,8.1-10.4,5.8,0,0-3.3,4.6-9.9,2.1,0,0-4.6,3.8-7.7.7,0,0-5.8,3.3-9.9-1.5,0,0-6,4.3-10.4-1,0,0-6,3.3-8.7-1,0,0-6,3.9-9.5-1.9,0,0-6.4,4.1-8.9-1,0,0-7.4,3.9-9.7-1.5,0,0-6.6,3.9-7.9-1.5C19.4,103,11.3,106.2,10.6,100Z"/>
        <path id="Path_452" data-name="Path 452" class="cls-10" d="M13.9,96s-2.5,2.4-5.4-.6a6.415,6.415,0,0,1-1.3-7.6s-4.5-4-.7-8.8c0,0-6.1-6.3,1.1-10.1,0,0-5.4-5.2.5-9,0,0-3.3-6.1,1.3-7.9,0,0-1.5-6.3,3.7-7.4,0,0-2-6.9,4.7-8.7,0,0-2.5-5.2,3.8-6.9a5.716,5.716,0,0,1,5.8-5.9s1.6-6.5,9.4-5c0,0,1.6-5.6,8.1-4.3,0,0,3.4-6.1,9.2-2.7a8.5,8.5,0,0,1,11-1S72,6.6,75,11.9c0,0,8.3-1.3,9.6,3.8,0,0,7.2-1.8,9.2,4.9,0,0,5.9,0,5.6,5.4,0,0,6.5-1.1,5.9,5.8,0,0,5.6,1.3,4.5,7.8,0,0,5,2.3,2.3,7.2,0,0,6.3,1.8,1.6,8.1,0,0,4.1,4.1.2,7.9,0,0,4.5,4.3-.5,9,0,0,3.2,6.7-1.3,10.1,0,0,3.6,5-1.1,8.7,0,0,4,5.6-2.2,9.2,0,0-1.1,7.6-9.7,5.4,0,0-3.1,4.3-9.2,2,0,0-4.3,3.6-7.2.7,0,0-5.4,3.1-9.2-1.4,0,0-5.6,4-9.7-.9,0,0-5.6,3.1-8.1-.9,0,0-5.6,3.6-8.8-1.8,0,0-5.9,3.8-8.3-.9,0,0-6.9,3.6-9-1.4,0,0-6.1,3.6-7.4-1.4C22.2,98.8,14.6,101.8,13.9,96Z"/>
        <path id="Path_453" data-name="Path 453" class="cls-11" d="M99.1,65.5s-2.2,7.1,2.4,9.8c0,0-3.2,3.1-1.5,6.1,0,0-3.7,1.5-3.6,4.5,0,0-5.9,1.2-5.3,6.3,0,0-6.4,0-5.9,5.6,0,0-5.9-1.3-7.4,3.5,0,0-5.4-1-6.9,3.5,0,0-5.8,0-6.8,2.8,0,0,.2-4,6-4.2,0,0,1.2-4.3,6.9-3.6a6.192,6.192,0,0,1,6.7-3.7s.7-6.3,5.8-5.7c0,0-.1-5.5,5.4-5.3,0,0,.1-3.8,3.5-4.6,0,0-2.2-3.7.9-5.2A7.621,7.621,0,0,1,99.1,65.5Z"/>
      </g>
      <g id="Group_367" data-name="Group 367">
        <g id="Group_339" data-name="Group 339">
          <path id="Path_454" data-name="Path 454" class="cls-12" d="M92,97.5a2.442,2.442,0,0,1,.7-.1c.5,0,1.1-.1,1.8-.1a16.2,16.2,0,0,0,2.2-.1,6.049,6.049,0,0,0,2.1-.8,2.341,2.341,0,0,1-1.4,1.5,4.548,4.548,0,0,1-2.4.3A12.817,12.817,0,0,1,92,97.5Z"/>
        </g>
        <g id="Group_340" data-name="Group 340">
          <path id="Path_455" data-name="Path 455" class="cls-12" d="M96.3,97.5a6.122,6.122,0,0,0,.6.5,3.8,3.8,0,0,0,1.7.7,3.359,3.359,0,0,0,2.2-.2,3.748,3.748,0,0,0,1.7-1.6v.6a2.232,2.232,0,0,1-.9,1.5,3.015,3.015,0,0,1-2.7.6A3.245,3.245,0,0,1,96.3,97.5Z"/>
        </g>
        <g id="Group_341" data-name="Group 341">
          <path id="Path_456" data-name="Path 456" class="cls-12" d="M84.7,103.3a2.3,2.3,0,0,0,.7.6,3.294,3.294,0,0,0,1.9.6,4.9,4.9,0,0,0,2.5-.8,7.277,7.277,0,0,0,2-1.9,3.286,3.286,0,0,1-1.1,2.3,4.343,4.343,0,0,1-2.8,1.3A3.281,3.281,0,0,1,86,105,3.708,3.708,0,0,1,84.7,103.3Z"/>
        </g>
        <g id="Group_342" data-name="Group 342">
          <path id="Path_457" data-name="Path 457" class="cls-12" d="M103.8,82.6a7,7,0,0,0,1.1.4,5.725,5.725,0,0,0,2.7.2A7.235,7.235,0,0,0,113,79a4.531,4.531,0,0,1-.1.8,6.567,6.567,0,0,1-1,2.2,6.013,6.013,0,0,1-3.3,2A5.526,5.526,0,0,1,103.8,82.6Z"/>
        </g>
        <g id="Group_343" data-name="Group 343">
          <path id="Path_458" data-name="Path 458" class="cls-12" d="M107.9,83.8a2.22,2.22,0,0,1,.5.4,3.33,3.33,0,0,0,.6.3,1.854,1.854,0,0,0,.7.2,4.665,4.665,0,0,0,3.5-.9.619.619,0,0,1-.2.4,2.7,2.7,0,0,1-.9,1.1,3.035,3.035,0,0,1-2.2.4A2.911,2.911,0,0,1,107.9,83.8Z"/>
        </g>
        <g id="Group_344" data-name="Group 344">
          <path id="Path_459" data-name="Path 459" class="cls-12" d="M44.8,100.8s.3.1.7.2a1.949,1.949,0,0,0,.8.1,2.719,2.719,0,0,0,.9,0c1.4-.1,2.6-1.3,3.4-2.5v.5a1.952,1.952,0,0,1-.1.7,5.9,5.9,0,0,1-.4.8,2.361,2.361,0,0,1-.9.8l-.6.3c-.2.1-.5.1-.7.2A4.111,4.111,0,0,1,44.8,100.8Z"/>
        </g>
        <g id="Group_345" data-name="Group 345">
          <path id="Path_460" data-name="Path 460" class="cls-12" d="M49.7,101a4.531,4.531,0,0,1,.8.1,6.017,6.017,0,0,0,1.9,0c1.5-.2,2.9-1.5,4-2.8a2.8,2.8,0,0,1-.1.6,6.374,6.374,0,0,0-.2.7c-.1.2-.3.5-.5.9a3.915,3.915,0,0,1-1,.8,4.876,4.876,0,0,1-.7.3c-.2.1-.5.1-.8.2A4.265,4.265,0,0,1,49.7,101Z"/>
        </g>
        <g id="Group_346" data-name="Group 346">
          <path id="Path_461" data-name="Path 461" class="cls-12" d="M65.1,97.7h.7a4.145,4.145,0,0,0,1.5-.2,12.532,12.532,0,0,0,3.5-2,1.01,1.01,0,0,1-.2.5,4.877,4.877,0,0,1-.8,1.2,4.2,4.2,0,0,1-2,1.1A3.564,3.564,0,0,1,65.1,97.7Z"/>
        </g>
        <g id="Group_347" data-name="Group 347">
          <path id="Path_462" data-name="Path 462" class="cls-12" d="M31.3,100.9a6.173,6.173,0,0,1,.1-.9,4.477,4.477,0,0,1,1.1-2,4.283,4.283,0,0,1,2.7-1.5A2.52,2.52,0,0,1,37.8,98a3.728,3.728,0,0,0-2.1-.6,3.953,3.953,0,0,0-2.2.9A5.9,5.9,0,0,0,31.3,100.9Z"/>
        </g>
        <g id="Group_348" data-name="Group 348">
          <path id="Path_463" data-name="Path 463" class="cls-12" d="M14.6,90.2a.774.774,0,0,1,.3.1,6.373,6.373,0,0,0,.7.2,8.524,8.524,0,0,0,2.5.3c2,0,4.5-.7,5.7-2.5a1.727,1.727,0,0,1-.2.7,4.026,4.026,0,0,1-1.4,1.7,5.714,5.714,0,0,1-3.4.9A7.046,7.046,0,0,1,14.6,90.2Z"/>
        </g>
        <g id="Group_349" data-name="Group 349">
          <path id="Path_464" data-name="Path 464" class="cls-12" d="M20.8,90.7a.31.31,0,0,1,.2.1c.1.1.3.1.5.2a6.073,6.073,0,0,0,1.7.4,4.973,4.973,0,0,0,2.1-.1,5.243,5.243,0,0,0,1.9-1.1,2.318,2.318,0,0,1-1.1,1.7,3.889,3.889,0,0,1-2.5.5A4.413,4.413,0,0,1,20.8,90.7Z"/>
        </g>
        <g id="Group_350" data-name="Group 350">
          <path id="Path_465" data-name="Path 465" class="cls-12" d="M12,95.6a3.61,3.61,0,0,0,.5.4,2.95,2.95,0,0,0,1.5.5,5.566,5.566,0,0,0,4-1.2,2.661,2.661,0,0,1-1.2,1.6,3.589,3.589,0,0,1-2.4.5A2.55,2.55,0,0,1,12,95.6Z"/>
        </g>
        <g id="Group_351" data-name="Group 351">
          <path id="Path_466" data-name="Path 466" class="cls-12" d="M12.1,73.3a5.946,5.946,0,0,1,.7.3,4.31,4.31,0,0,0,1.7.3,6.31,6.31,0,0,0,4-2.1,1.75,1.75,0,0,1-.1.5c-.1.2-.1.4-.3.6s-.3.5-.6.8a3.664,3.664,0,0,1-5.4-.4Z"/>
        </g>
        <g id="Group_352" data-name="Group 352">
          <path id="Path_467" data-name="Path 467" class="cls-12" d="M7.7,71.8a7.235,7.235,0,0,0,.7.4,3.712,3.712,0,0,0,1.9.2,6.051,6.051,0,0,0,4.2-2.5,2.436,2.436,0,0,1-1,2.1,3.979,3.979,0,0,1-2.6,1.2A3.557,3.557,0,0,1,7.7,71.8Z"/>
        </g>
        <g id="Group_353" data-name="Group 353">
          <path id="Path_468" data-name="Path 468" class="cls-12" d="M13.9,51.8a7.348,7.348,0,0,0,.8.2,9.431,9.431,0,0,0,2,.3,4.025,4.025,0,0,0,2.4-.5,4.6,4.6,0,0,0,1.6-2v.6a4.323,4.323,0,0,1-.7,1.7,3.181,3.181,0,0,1-2.8,1.1A4.627,4.627,0,0,1,13.9,51.8Z"/>
        </g>
        <g id="Group_354" data-name="Group 354">
          <path id="Path_469" data-name="Path 469" class="cls-12" d="M17.5,49.7h.7a9.735,9.735,0,0,0,1.6-.1A5.409,5.409,0,0,0,23.3,48a1.75,1.75,0,0,1-.1.5c-.1.1-.1.4-.2.6s-.3.4-.5.7a2.971,2.971,0,0,1-2.1.7A6.342,6.342,0,0,1,17.5,49.7Z"/>
        </g>
        <g id="Group_355" data-name="Group 355">
          <path id="Path_470" data-name="Path 470" class="cls-12" d="M15.7,38.7v-.3a1.952,1.952,0,0,1,.1-.7A4.169,4.169,0,0,1,17,35.6a5.151,5.151,0,0,1,3-1.3,5.533,5.533,0,0,1,3.1.8h-.7a12.827,12.827,0,0,0-1.8.1,6.594,6.594,0,0,0-2.5.8A5.86,5.86,0,0,0,15.7,38.7Z"/>
        </g>
        <g id="Group_356" data-name="Group 356">
          <path id="Path_471" data-name="Path 471" class="cls-12" d="M19.4,33.2a1.2,1.2,0,0,1,0-.7,2.406,2.406,0,0,1,.9-1.6,4.394,4.394,0,0,1,2.2-.7,7.8,7.8,0,0,1,2.2.3,4.2,4.2,0,0,1-.5.2,8.571,8.571,0,0,1-1.3.3c-.5.1-1.2.2-1.9.4A2.461,2.461,0,0,0,19.4,33.2Z"/>
        </g>
        <g id="Group_357" data-name="Group 357">
          <path id="Path_472" data-name="Path 472" class="cls-12" d="M4.7,64.7a2.8,2.8,0,0,1,.1-.6,1.876,1.876,0,0,1,1-1.2,3.166,3.166,0,0,1,3.7.4H8c-.4.1-1,.1-1.5.2A2.9,2.9,0,0,0,4.7,64.7Z"/>
        </g>
        <g id="Group_358" data-name="Group 358">
          <path id="Path_473" data-name="Path 473" class="cls-12" d="M49.1,19.8A2.767,2.767,0,0,1,49,19a2.392,2.392,0,0,1,1-1.8,5.291,5.291,0,0,1,5-.6,1.213,1.213,0,0,1-.5.1,10.626,10.626,0,0,1-1.4.3,11.518,11.518,0,0,0-2.1.6A3.074,3.074,0,0,0,49.1,19.8Z"/>
        </g>
        <g id="Group_359" data-name="Group 359">
          <path id="Path_474" data-name="Path 474" class="cls-12" d="M73.5,22.4a2.489,2.489,0,0,0,.7.3,2.649,2.649,0,0,0,1.8.1,10.169,10.169,0,0,0,4.1-2.6,1.548,1.548,0,0,1-.2.6,6.289,6.289,0,0,1-.9,1.4,5.646,5.646,0,0,1-2.3,1.4,3.284,3.284,0,0,1-1.7-.1A2.094,2.094,0,0,1,73.5,22.4Z"/>
        </g>
        <g id="Group_360" data-name="Group 360">
          <path id="Path_475" data-name="Path 475" class="cls-12" d="M77.9,19.1a.31.31,0,0,1,.2.1,1.445,1.445,0,0,0,.7.2,4.911,4.911,0,0,0,4.9-.8c.8-.6,1.6-1.4,2.4-2l-.3.6a7.7,7.7,0,0,1-1.1,1.7,5.04,5.04,0,0,1-2.9,1.6A4.382,4.382,0,0,1,77.9,19.1Z"/>
        </g>
        <g id="Group_361" data-name="Group 361">
          <path id="Path_476" data-name="Path 476" class="cls-12" d="M86.6,30a2.442,2.442,0,0,0,.7.1,9.722,9.722,0,0,0,1.8.1,4.2,4.2,0,0,0,2.1-.6,4.861,4.861,0,0,0,1.7-1.5,2.429,2.429,0,0,1-.8,2,4.088,4.088,0,0,1-2.4,1A5.328,5.328,0,0,1,86.6,30Z"/>
        </g>
        <g id="Group_362" data-name="Group 362">
          <path id="Path_477" data-name="Path 477" class="cls-12" d="M96.7,31.3a.31.31,0,0,1,.2.1c.1.1.4.1.6.2a6.5,6.5,0,0,0,2.1.2,6.324,6.324,0,0,0,2.6-.7,7.231,7.231,0,0,0,2.2-1.7,3.376,3.376,0,0,1-1.3,2.2,5.194,5.194,0,0,1-2.9,1.1A5.072,5.072,0,0,1,96.7,31.3Z"/>
        </g>
        <g id="Group_363" data-name="Group 363">
          <path id="Path_478" data-name="Path 478" class="cls-12" d="M100.6,38.3a5.946,5.946,0,0,1,.7.3,1.884,1.884,0,0,0,.8.2,3.083,3.083,0,0,0,1,.1,5.408,5.408,0,0,0,4.1-2,1.01,1.01,0,0,1-.2.5c-.1.2-.1.4-.3.6a5.547,5.547,0,0,0-.6.8,3.918,3.918,0,0,1-5.5-.5Z"/>
        </g>
        <g id="Group_364" data-name="Group 364">
          <path id="Path_479" data-name="Path 479" class="cls-12" d="M96.3,41a.349.349,0,0,0,.2.1,5.923,5.923,0,0,0,.6.4,5.223,5.223,0,0,0,2,.7,3.989,3.989,0,0,0,2.5-.7,6.388,6.388,0,0,0,1.9-2.1,3.893,3.893,0,0,1-.9,2.4,3.487,3.487,0,0,1-2.9,1.3A4.008,4.008,0,0,1,96.3,41Z"/>
        </g>
        <g id="Group_365" data-name="Group 365">
          <path id="Path_480" data-name="Path 480" class="cls-12" d="M102.7,52.6a.774.774,0,0,1,.3.1,6.374,6.374,0,0,0,.9.2,4.114,4.114,0,0,0,2.7-.9c.2-.2.5-.4.7-.6l.7-.7.4-.4.1-.1.1.1.2.1.6.3.9.3a5.473,5.473,0,0,0,3.8-.3l-.2.2a2.181,2.181,0,0,1-.5.4,4.183,4.183,0,0,1-2.5.6,4.638,4.638,0,0,1-1.9-.4c-.5-.2-.3-.2-.3-.2l-.8.8a5.611,5.611,0,0,1-2.3,1.2A3.466,3.466,0,0,1,102.7,52.6Z"/>
        </g>
        <g id="Group_366" data-name="Group 366">
          <path id="Path_481" data-name="Path 481" class="cls-12" d="M111.6,51.9l.3.3a2.177,2.177,0,0,0,.8.5,3.582,3.582,0,0,0,1.1.4c.4.1.7.2,1.2.3a1.238,1.238,0,0,0-.2.3,1.884,1.884,0,0,1-.9.4,2.018,2.018,0,0,1-1.4-.5A2.227,2.227,0,0,1,111.6,51.9Z"/>
        </g>
      </g>
    </g>
    <g id="Group_379" data-name="Group 379">
      <path id="Path_482" data-name="Path 482" class="cls-13" d="M60,93.5s4.2-5,8.6-1.9c0,0,2.1-5.6,7.2-2.7,0,0,3.3-6.4,8.1-4.1,0,0,1.2-8.1,8.1-5.8,0,0,1-5.6,4.8-5.4,0,0-3.5-7.2,1.7-9.3,0,0-4.8-7.2-.8-9.7,0,0-7-3.9-5-9.5,0,0-5.6-1.5-4.4-6,0,0-7.2-.6-6.8-4.6,0,0-4.4-.2-3.9-4.1,0,0-7,1-7.5-2.7,0,0-5.4,3.7-7.6,0,0,0-5.3,3.3-7.8,0,0,0-3.1,5.4-7,1.5,0,0-2.7,7.5-7.7,3.9,0,0-1.4,6.6-6.6,5.2,0,0,.4,6.2-5,6,0,0,1.4,6.8-4.4,7.7,0,0,3.5,2.9,0,5.6,0,0,3.3,4.3-1.7,6.4,0,0,4.3,3.7,0,6.6,0,0,4.6,2.3,2.3,5,0,0,6.8,3.7,4.8,7.9a3.44,3.44,0,0,1,2.3,4.4s4.6-3.1,6.8,1.9c0,0,4.8-1.7,6.2,1a5.56,5.56,0,0,1,7.9,2.5C52.5,93.5,56.7,88.7,60,93.5Z"/>
      <g id="Group_373" data-name="Group 373">
        <path id="Path_483" data-name="Path 483" class="cls-14" d="M44.4,75.9a16.844,16.844,0,0,1,3-5.6c1.4-2,2.8-2.4,4.8-3.7,7-4.4,15-6.4,22.5-2.3,4.1,2.2,7.1,3.9,10.1,7.6.8,1,2.3,2.6,2.1,4.1-.2,1.4-2,2.2-3.1,2.9-5.9,3.8-12.6,7.5-19.5,8.9-5.8,1.1-12.1,2.5-18,1.1-2.8-.7-3.2-1.6-3.2-4.4A35.8,35.8,0,0,1,44.4,75.9Z"/>
        <g id="Group_369" data-name="Group 369" class="cls-15">
          <path id="Path_484" data-name="Path 484" class="cls-16" d="M45.8,74.9a15.525,15.525,0,0,1,2.4-4.6c1.2-1.7,2.3-2,4-3,5.7-3.6,12.3-5.3,18.6-1.9,3.4,1.8,5.9,3.2,8.3,6.2.7.8,1.9,2.2,1.8,3.3-.2,1.2-1.6,1.8-2.6,2.4-4.9,3.2-10.4,6.2-16.1,7.3-4.8.9-10,2.1-14.8.9-2.3-.5-2.7-1.3-2.6-3.6A34.74,34.74,0,0,1,45.8,74.9Z"/>
        </g>
        <g id="Group_370" data-name="Group 370" class="cls-15">
          <path id="Path_486" data-name="Path 486" class="cls-17" d="M42.3,75.8s12.1-4,22.8,11.8c0,0-1.7,3.1-2.6,1.9S58,70.5,41.6,81C41.6,80.9,39.4,77.6,42.3,75.8Z"/>
        </g>
        <g id="Group_371" data-name="Group 371" class="cls-15">
          <path id="Path_488" data-name="Path 488" class="cls-17" d="M49.8,65.9c1.9,1.6,19.2,6.7,21.6,20.4l1.1-1.2s-.1-13.4-20.7-20.7C51.8,64.4,46.3,63.1,49.8,65.9Z"/>
        </g>
        <g id="Group_372" data-name="Group 372" class="cls-15">
          <path id="Path_490" data-name="Path 490" class="cls-17" d="M69.2,62.1c.2.1,10.8,9.9,10.9,19.1s1.4-.4,1.3-.8c-.4-5.9-4.5-17.2-11.3-20.6C63.4,56.4,67.7,61.5,69.2,62.1Z"/>
        </g>
      </g>
      <g id="Group_374" data-name="Group 374">
        <path id="Path_492" data-name="Path 492" class="cls-18" d="M47.3,65.9a9.152,9.152,0,0,0,2.5-.5c4.1-1.6,10.2-6.1,10.6-7.8.5-2-13.3-21.4-15.2-21.6S30.9,44.5,30.3,48.3,44.6,65.8,47.3,65.9Z"/>
        <path id="Path_493" data-name="Path 493" class="cls-19" d="M44.4,60.4a4.54,4.54,0,0,0,1.8-.4c3.1-1.2,7.7-4.6,8-5.8.4-1.5-9.9-16-11.4-16.2-1.5-.1-10.7,6.4-11.2,9.2S42.4,60.3,44.4,60.4Z"/>
      </g>
      <g id="Group_375" data-name="Group 375">
        <path id="Path_494" data-name="Path 494" class="cls-20" d="M27.8,59.8c3.7-4.4,9.7,0,13.8,5.8,3.3,4.7,0,18-5.9,18C31.2,83.6,21.4,67.5,27.8,59.8Z"/>
        <path id="Path_495" data-name="Path 495" class="cls-21" d="M28,61c2.9-3.4,7.5,0,10.7,4.5,2.6,3.6,0,13.9-4.6,13.9C30.7,79.5,23,67,28,61Z"/>
      </g>
      <g id="Group_378" data-name="Group 378">
        <path id="Path_496" data-name="Path 496" class="cls-22" d="M55.4,45.7c1.8,2.5,3.9,5.9,6.2,8,1.3,1.2,2.9,1.7,4.5,2.5,1.8.9,2.6,2.6,4.6,3,1.7.3,3.4.1,4.9.8,1.4.6,2.1,1.9,3.3,2.7,1.6,1.1,3,0,4.8.7,1.5.6,2.7,1.8,4.2,2.3A4.69,4.69,0,0,0,94.1,61c0-3.2-1.9-6.7-3.9-9.3-2.3-3-3.9-6.1-6-9.3a37.5,37.5,0,0,0-8.1-8.3c-2.9-2.3-6.8-2.2-10.2-2.5-3.3-.3-6.6-.4-9.9-.8-2.6-.3-6,.5-6.4,3.7C49.2,37.9,53.5,43.1,55.4,45.7Z"/>
        <path id="Path_497" data-name="Path 497" class="cls-23" d="M57.9,45a42.567,42.567,0,0,0,4.9,6.3,19.9,19.9,0,0,0,3.5,2c1.4.7,2,2.1,3.6,2.4a17.558,17.558,0,0,1,3.9.6c1.1.5,1.6,1.5,2.6,2.1,1.3.8,2.4,0,3.8.5,1.2.4,2.1,1.4,3.3,1.8a3.742,3.742,0,0,0,4.9-3.6c0-2.5-1.5-5.3-3-7.3-1.8-2.3-3.1-4.8-4.7-7.3A32.352,32.352,0,0,0,74.4,36c-2.3-1.8-5.3-1.7-8-2-2.6-.3-5.2-.3-7.7-.6-2-.2-4.7.4-5,2.9C53.1,38.8,56.5,42.9,57.9,45Z"/>
        <g id="Group_376" data-name="Group 376">
          <path id="Path_498" data-name="Path 498" class="cls-24" d="M71.6,36.9H70a5.739,5.739,0,0,1-1.2-.1c-.9-.1-1.9-.2-3.1-.4s-2.4-.4-3.8-.6a14.769,14.769,0,0,0-2.1-.1,3.807,3.807,0,0,0-1.9.4c-.2.2-.4.3-.5.6a1.388,1.388,0,0,0,0,.9,8.818,8.818,0,0,0,.9,2,49.094,49.094,0,0,0,5.6,7l-1.5-1.2a37.914,37.914,0,0,1-3.9-4,11.257,11.257,0,0,1-2-3.6,2.854,2.854,0,0,1,0-1.3,1.572,1.572,0,0,1,1-1.1,4.089,4.089,0,0,1,2.6-.4,20.538,20.538,0,0,1,5.4,1A29.9,29.9,0,0,0,71.6,36.9Z"/>
        </g>
        <g id="Group_377" data-name="Group 377">
          <path id="Path_499" data-name="Path 499" class="cls-24" d="M65.6,49.3a10.243,10.243,0,0,1,1.3,1c.4.3,1,.7,1.6,1.1s1.4.8,2.2,1.3a53.333,53.333,0,0,0,6.2,2.8c.6.2,1.2.5,1.9.7.7.3,1.3.6,1.9.8a4.432,4.432,0,0,0,1.9.3c.5-.1.6-.7.4-1.4A18.275,18.275,0,0,0,78,48a30.475,30.475,0,0,0-4-3.1l-1-.6a10.539,10.539,0,0,1-1.1-.7l-2.2-1.4a25.293,25.293,0,0,0-2.2-1.3,9.172,9.172,0,0,0-2.3-.9c-.8-.1-1.2.3-1,1a5.929,5.929,0,0,0,1.2,2,9.118,9.118,0,0,0,1.7,1.7l.9.8c.3.2.7.4,1,.6a14.588,14.588,0,0,0,4.4,1.6s-.4-.1-1.1-.2a17.809,17.809,0,0,1-3.1-.9c-.3-.2-.7-.3-1-.5a2.186,2.186,0,0,1-.5-.3c-.2-.1-.3-.3-.5-.4-.4-.3-.7-.5-1.1-.8s-.7-.7-1.1-1a6.42,6.42,0,0,1-1-1.3,3.25,3.25,0,0,1-.7-1.7,1.268,1.268,0,0,1,.1-.6,2.186,2.186,0,0,1,.3-.5,1.5,1.5,0,0,1,1.1-.4,4.552,4.552,0,0,1,2,.5c2.6,1,4.9,2.9,7.7,4.5a22.631,22.631,0,0,1,7.6,7.5c.3.4.4.9.7,1.3.2.5.4.9.6,1.4a8.331,8.331,0,0,1,.4,1.5,2.1,2.1,0,0,1-.4,1.8,1.623,1.623,0,0,1-.9.5,2.719,2.719,0,0,1-.9,0,7.494,7.494,0,0,1-1.6-.5,6.11,6.11,0,0,1-1.4-.7l-1.5-.6C73.3,54.6,69.1,52.6,65.6,49.3Z"/>
        </g>
      </g>
    </g>
  </g>
</svg>
