<svg xmlns="http://www.w3.org/2000/svg" xmlns:xlink="http://www.w3.org/1999/xlink" viewBox="1617 304 158.025 127.347">
  <defs>
    <style>
      .cls-1 {
        fill: #c7e9ef;
      }

      .cls-2 {
        fill: #f7f711;
      }

      .cls-3 {
        clip-path: url(#clip-path);
      }

      .cls-4 {
        fill: #ccb405;
      }

      .cls-5 {
        fill: #fffb69;
      }

      .cls-6 {
        clip-path: url(#clip-path-3);
      }

      .cls-7 {
        fill: #141a23;
      }

      .cls-8 {
        fill: #d9f3f9;
      }

      .cls-9 {
        fill: #fff;
      }

      .cls-10 {
        fill: #729aa0;
      }

      .cls-11 {
        fill: #85c2cc;
      }

      .cls-12 {
        fill: #1e2b2d;
      }

      .cls-13 {
        fill: #ff9c0d;
      }

      .cls-14 {
        clip-path: url(#clip-path-5);
      }

      .cls-15 {
        fill: #ffb24d;
      }

      .cls-16 {
        fill: #ffdaae;
      }

      .cls-17 {
        fill: #e2c342;
      }

      .cls-18 {
        fill: #f9df6e;
      }

      .cls-19 {
        fill: #ad895e;
      }

      .cls-20 {
        fill: #fcdbac;
      }
    </style>
    <clipPath id="clip-path">
      <path id="Path_503" data-name="Path 503" d="M13,49.3c-4,3.6,9.5-22.8,21.9-30.5S68.8,6.1,87.6,8.8s53,21.2,58.7,47.6-1.2,38.2-3.5,44.6-8.9,5.4-14.1,3.9c-5.2-1.4-7-5.6-6.8-8.1s1.9-27.2-7-44.3S88.6,19.1,71.1,18.8C23.5,25.1,24.2,39.7,13,49.3Z"/>
    </clipPath>
    <clipPath id="clip-path-3">
      <path id="Path_508" data-name="Path 508" d="M42,15.1s23.9-9,43.6-4S121.5,32,125.7,39.8s8.9,32.9,8.5,39.5-2.8,22.8-2.5,24.6,2.5,7.9,5.6,9.3,11,1.4,12.1,0,10.6-32.9,8.1-49-14-41.1-27.3-49.2C111.6,3.6,83.2.3,69.2,2.4S42,15.1,42,15.1Z"/>
    </clipPath>
    <clipPath id="clip-path-5">
      <path id="Path_560" data-name="Path 560" d="M34.9,61.5c-.7,1.8,17.9,14,25.5,14.3s14.8,0,16.6-1.1,8.8-6.8,8.5-9.3C85.3,62.9,76.9,50,69,48.6S38.6,52,34.9,61.5Z"/>
    </clipPath>
  </defs>
  <g id="Group_438" data-name="Group 438" transform="translate(1617.108 303.993)">
    <path id="Path_500" data-name="Path 500" class="cls-1" d="M50.8,20.5s6.7-6,13.7-5.2c0,0,8.4-3.6,12,1,0,0,5.3-2.8,9.4,1.1,0,0,8.6-2.7,10.2,1.7,0,0,6.9-.5,7.2,3.3,0,0,8.2-.8,8.4,3.3,0,0,10.1,1.8,10,6.9,0,0,8.6,0,8,4.7,0,0,8.6,1.8,8.2,7.4,0,0,6.9,3.7,5.9,8.6,0,0,3.9,2.5,2,5.9,0,0,3.3,6.5.5,10.6,0,0,4.3,1.8,1.1,5.9,0,0,3.3,8-.1,9.8,0,0,4.5,4.9-.2,9,0,0,3.5,4.3,0,7.8a5.251,5.251,0,0,1-2,6.5s.4,6.3-3.9,7.8c0,0-3.1,7.4-8.2,4.1,0,0-3.3,3.9-7.1.9,0,0-6.9,5.1-9,1.1,0,0-7.2,4.8-10.8,1.5,0,0-6.1,2-8.4-1-2.4-2.9,14.1-21.5,15.3-26.1,1.2-4.5-3.5-47.8-15.7-56.6S44.8,23.5,50.8,20.5Z"/>
    <g id="Group_388" data-name="Group 388">
      <g id="Group_383" data-name="Group 383">
        <path id="Path_501" data-name="Path 501" class="cls-2" d="M13,49.3c-4,3.6,9.5-22.8,21.9-30.5S68.8,6.1,87.6,8.8s53,21.2,58.7,47.6-1.2,38.2-3.5,44.6-8.9,5.4-14.1,3.9c-5.2-1.4-7-5.6-6.8-8.1s1.9-27.2-7-44.3S88.6,19.1,71.1,18.8C23.5,25.1,24.2,39.7,13,49.3Z"/>
        <g id="Group_381" data-name="Group 381" class="cls-3">
          <path id="Path_502" data-name="Path 502" class="cls-4" d="M127.7,108.7c3.4.9-4-2.8-3.3-15.7.4-7.2.4-39.3-12.8-54S83.7,13.5,61.8,17.7,20,31.1,12.3,44.6s5,2.8,6.5,1.2S53.7,22,68.8,21.9C83.9,21.7,117.6,56,118,69.7S118.2,106.2,127.7,108.7Z"/>
        </g>
        <g id="Group_382" data-name="Group 382" class="cls-3">
          <path id="Path_504" data-name="Path 504" class="cls-5" d="M42.2,18.4C50.4,13.9,66,9.7,78,11s30.9,10.8,40.2,22,8,19.6,3.5,14.9S101,20.4,87.1,17.1,64,13.2,54,15.9C46.3,18,36.1,21.7,42.2,18.4Z"/>
        </g>
      </g>
      <g id="Group_386" data-name="Group 386">
        <path id="Path_506" data-name="Path 506" class="cls-2" d="M42,15.1s23.9-9,43.6-4S121.5,32,125.7,39.8s8.9,32.9,8.5,39.5-2.8,22.8-2.5,24.6,2.5,7.9,5.6,9.3,11,1.4,12.1,0,10.6-32.9,8.1-49-14-41.1-27.3-49.2C111.6,3.6,83.2.3,69.2,2.4S42,15.1,42,15.1Z"/>
        <g id="Group_384" data-name="Group 384" class="cls-6">
          <path id="Path_507" data-name="Path 507" class="cls-4" d="M137.2,113.2c-1.4-3.3-3.7-8.9-3.1-12.2s3.7-16.2,3.1-26.4-5.7-32.1-8.6-37.7c-3-5.6-26.3-28-50.1-28.9s-36.1,3.9-41.8,8.7c1.3.3,7.9-.7,10.8-1.5S87,11,97.3,16.8,126,38.6,128.6,54.5s1.4,34.3,0,43,5.5,16,8.7,16.8"/>
        </g>
        <g id="Group_385" data-name="Group 385" class="cls-6">
          <path id="Path_509" data-name="Path 509" class="cls-5" d="M137,53.9c-2.8-9.7-6.4-15.5-10-22.6C123.2,24,103.1,9.4,90.1,7.1S62.7,6.8,67.5,4.4s40.5-.3,55.8,8.8,27,35,28.6,40.6C153.4,59.5,140.4,65.9,137,53.9Z"/>
        </g>
      </g>
      <g id="Group_387" data-name="Group 387">
        <path id="Path_511" data-name="Path 511" class="cls-7" d="M94.1,4.2c-5.4-2-7.7,2-1.8,3.8S99.2,6.1,94.1,4.2Z"/>
        <path id="Path_512" data-name="Path 512" class="cls-7" d="M59.7,10.6c-1-1.8,5.9-4.2,6.9-2C67.6,10.9,60.7,12.5,59.7,10.6Z"/>
        <path id="Path_513" data-name="Path 513" class="cls-7" d="M67.4,2.7c-4.1-.8-6.7,2.3-2.2,3.4S71.5,3.5,67.4,2.7Z"/>
        <path id="Path_514" data-name="Path 514" class="cls-7" d="M79.9.5C75.1-.7,72.3.4,76.6,2.6,81,4.7,84.7,1.7,79.9.5Z"/>
        <path id="Path_515" data-name="Path 515" class="cls-7" d="M73.7,6.3c-3.9-2-3.2-4.8,1.6-2.6S77.8,8.4,73.7,6.3Z"/>
        <path id="Path_516" data-name="Path 516" class="cls-7" d="M83,2.6C86.2-.5,92.1.5,87.2,4.5S80,5.4,83,2.6Z"/>
        <path id="Path_517" data-name="Path 517" class="cls-7" d="M74.6,9.6c4.5-1.7,10.1-.4,2,2.9C71.2,14.6,68.7,11.8,74.6,9.6Z"/>
        <path id="Path_518" data-name="Path 518" class="cls-7" d="M105.2,8c-3.6.4-4.2,3.4,1.3,3S110.8,7.4,105.2,8Z"/>
        <path id="Path_519" data-name="Path 519" class="cls-7" d="M94.3,4.1c-4.2-.5-4.2-3.9.8-3.1C100.2,1.8,101.6,4.9,94.3,4.1Z"/>
      </g>
    </g>
    <g id="Group_426" data-name="Group 426">
      <g id="Group_389" data-name="Group 389">
        <path id="Path_520" data-name="Path 520" class="cls-8" d="M10.6,113.6s-2.7,2.6-5.9-.7a7.062,7.062,0,0,1-1.4-8.2s-4.9-4.3-.8-9.6c0,0-6.6-6.8,1.2-10.9,0,0-5.9-5.7.6-9.8,0,0-3.6-6.6,1.4-8.6,0,0-1.6-6.8,4-8,0,0-2.1-7.4,5.1-9.4,0,0-2.7-5.7,4.1-7.4a6.222,6.222,0,0,1,6.2-6.4s1.8-7,10.1-5.5c0,0,1.8-6,8.8-4.7,0,0,3.7-6.6,9.9-2.9a9.113,9.113,0,0,1,11.9-1.1s7.4-3.8,10.7,1.9c0,0,9-1.4,10.3,4.1,0,0,7.8-2,9.9,5.3,0,0,6.4,0,6,5.9,0,0,7-1.2,6.4,6.2,0,0,6,1.4,4.9,8.4,0,0,5.5,2.5,2.5,7.8,0,0,6.8,2,1.8,8.8,0,0,4.5,4.5.2,8.6,0,0,4.9,4.7-.6,9.8,0,0,3.5,7.2-1.4,10.9,0,0,3.9,5.5-1.2,9.4,0,0,4.3,6-2.3,9.9,0,0-1.2,8.2-10.5,5.9,0,0-3.3,4.7-9.9,2.1,0,0-4.7,3.8-7.8.8,0,0-5.9,3.3-9.9-1.5,0,0-6,4.3-10.5-1,0,0-6,3.3-8.8-1,0,0-6,3.9-9.6-2,0,0-6.4,4.1-9-1,0,0-7.4,3.9-9.8-1.6,0,0-6.6,3.9-8-1.6C19.6,116.6,11.4,119.8,10.6,113.6Z"/>
        <path id="Path_521" data-name="Path 521" class="cls-9" d="M12.6,108.6s-2.5,2.4-5.4-.6a6.285,6.285,0,0,1-1.3-7.5s-4.5-4-.7-8.8c0,0-6.1-6.3,1.1-10.1,0,0-5.4-5.2.5-9,0,0-3.3-6.1,1.3-7.9,0,0-1.5-6.3,3.7-7.4,0,0-2-6.8,4.7-8.6,0,0-2.5-5.2,3.8-6.8A5.686,5.686,0,0,1,26,36s1.6-6.5,9.3-5c0,0,1.6-5.6,8.1-4.3,0,0,3.4-6.1,9.2-2.7a8.5,8.5,0,0,1,11-1s6.8-3.5,9.9,1.8c0,0,8.3-1.3,9.5,3.8,0,0,7.2-1.8,9.2,4.8,0,0,5.9,0,5.6,5.4,0,0,6.5-1.1,5.9,5.7,0,0,5.6,1.3,4.5,7.7,0,0,5,2.3,2.3,7.2,0,0,6.3,1.8,1.6,8.1,0,0,4.1,4.1.2,7.9,0,0,4.5,4.3-.5,9,0,0,3.2,6.6-1.3,10.1,0,0,3.6,5-1.1,8.6,0,0,4,5.6-2.2,9.2,0,0-1.1,7.5-9.7,5.4,0,0-3.1,4.3-9.2,2,0,0-4.3,3.5-7.2.7,0,0-5.4,3.1-9.2-1.4,0,0-5.6,4-9.7-.9,0,0-5.6,3.1-8.1-.9,0,0-5.6,3.6-8.8-1.8,0,0-5.9,3.8-8.3-.9,0,0-6.8,3.6-9-1.4,0,0-6.1,3.6-7.4-1.4C20.8,111.3,13.3,114.3,12.6,108.6Z"/>
        <path id="Path_522" data-name="Path 522" class="cls-10" d="M93.2,72.4s.6,3.6,3.3,4.9c0,0-4.8,4.7,2.2,8.2,0,0-4.3,3.7-1.9,7.9,0,0-5.7,5-2.3,9,0,0-5,4.5-2.2,8.5,0,0-8.2,2.6-5.7,7.9,0,0-3.7-6,3.7-8.5,0,0-2.3-5.3,2-7.3,0,0-1.9-7.1,2.6-9.6,0,0-2.6-4.7.9-7.3,0,0-4.8-5-1.6-8.7A5.821,5.821,0,0,1,93.2,72.4Z"/>
      </g>
      <g id="Group_425" data-name="Group 425">
        <g id="Group_418" data-name="Group 418">
          <g id="Group_390" data-name="Group 390">
            <path id="Path_523" data-name="Path 523" class="cls-11" d="M94.3,114.2a2.767,2.767,0,0,1,.8-.1c.5,0,1.1-.1,1.9-.1a18.484,18.484,0,0,0,2.3-.1,4.349,4.349,0,0,0,2.1-.9,2.6,2.6,0,0,1-1.4,1.6,3.949,3.949,0,0,1-2.5.3A10.3,10.3,0,0,1,94.3,114.2Z"/>
          </g>
          <g id="Group_391" data-name="Group 391">
            <path id="Path_524" data-name="Path 524" class="cls-11" d="M98.7,114.3a6.122,6.122,0,0,0,.6.5,3.8,3.8,0,0,0,1.7.7,3.66,3.66,0,0,0,2.3-.2,3.748,3.748,0,0,0,1.7-1.6v.6a2.232,2.232,0,0,1-.9,1.5,3.6,3.6,0,0,1-2.8.7A3.957,3.957,0,0,1,98.7,114.3Z"/>
          </g>
          <g id="Group_392" data-name="Group 392">
            <path id="Path_525" data-name="Path 525" class="cls-11" d="M86.9,120.2a2.3,2.3,0,0,0,.7.6,3.294,3.294,0,0,0,1.9.6,4.9,4.9,0,0,0,2.5-.8,6.365,6.365,0,0,0,2-2,3.286,3.286,0,0,1-1.1,2.3,4.343,4.343,0,0,1-2.8,1.3,2.746,2.746,0,0,1-1.9-.5A2.433,2.433,0,0,1,86.9,120.2Z"/>
          </g>
          <g id="Group_393" data-name="Group 393">
            <path id="Path_526" data-name="Path 526" class="cls-11" d="M106.4,99a7,7,0,0,0,1.1.4,6.166,6.166,0,0,0,2.8.2,8.668,8.668,0,0,0,3.3-1.4,7.727,7.727,0,0,0,2.2-2.9,4.531,4.531,0,0,1-.1.8,4.956,4.956,0,0,1-1.1,2.2,5.957,5.957,0,0,1-3.4,2A4.935,4.935,0,0,1,106.4,99Z"/>
          </g>
          <g id="Group_394" data-name="Group 394">
            <path id="Path_527" data-name="Path 527" class="cls-11" d="M110.6,100.2a2.22,2.22,0,0,1,.5.4,3.33,3.33,0,0,0,.6.3,6.891,6.891,0,0,0,.8.3,4.359,4.359,0,0,0,3.5-1,.619.619,0,0,1-.2.4,2.7,2.7,0,0,1-.9,1.1,3.035,3.035,0,0,1-2.2.4A2.7,2.7,0,0,1,110.6,100.2Z"/>
          </g>
          <g id="Group_395" data-name="Group 395">
            <path id="Path_528" data-name="Path 528" class="cls-11" d="M46.1,117.6s.3.1.7.2a1.949,1.949,0,0,0,.8.1,3.334,3.334,0,0,0,1,0c1.4-.1,2.6-1.3,3.5-2.6v.6c0,.2-.1.4-.1.7-.1.2-.2.5-.4.9a2.361,2.361,0,0,1-.9.8l-.6.3c-.2.1-.5.1-.7.2A4.971,4.971,0,0,1,46.1,117.6Z"/>
          </g>
          <g id="Group_396" data-name="Group 396">
            <path id="Path_529" data-name="Path 529" class="cls-11" d="M51,117.8a2.767,2.767,0,0,0,.8.1,6.017,6.017,0,0,0,1.9,0c1.5-.2,3-1.5,4.1-2.8a2.8,2.8,0,0,1-.1.6,6.374,6.374,0,0,0-.2.7,9.012,9.012,0,0,1-.5.9,9.016,9.016,0,0,1-1,.9,4.876,4.876,0,0,1-.7.3c-.2.1-.5.1-.8.2A4.665,4.665,0,0,1,51,117.8Z"/>
          </g>
          <g id="Group_397" data-name="Group 397">
            <path id="Path_530" data-name="Path 530" class="cls-11" d="M66.9,114.4h.7a4.97,4.97,0,0,0,1.6-.2,12.991,12.991,0,0,0,3.6-2,1.01,1.01,0,0,1-.2.5,4.877,4.877,0,0,1-.8,1.2,4.2,4.2,0,0,1-2,1.1A3.344,3.344,0,0,1,66.9,114.4Z"/>
          </g>
          <g id="Group_398" data-name="Group 398">
            <path id="Path_531" data-name="Path 531" class="cls-11" d="M32.3,117.7a5.1,5.1,0,0,1,.1-.9,5.329,5.329,0,0,1,1.1-2.1,4.28,4.28,0,0,1,2.8-1.5,2.75,2.75,0,0,1,2.7,1.5l-.6-.3a2.559,2.559,0,0,0-1.6-.3,3.958,3.958,0,0,0-2.3.9A6.268,6.268,0,0,0,32.3,117.7Z"/>
          </g>
          <g id="Group_399" data-name="Group 399">
            <path id="Path_532" data-name="Path 532" class="cls-11" d="M15.3,106.7a.774.774,0,0,1,.3.1,6.373,6.373,0,0,0,.7.2,8.8,8.8,0,0,0,2.6.3c2.1,0,4.6-.7,5.8-2.5a1.727,1.727,0,0,1-.2.7,3.521,3.521,0,0,1-1.4,1.7,5.72,5.72,0,0,1-3.4,1A6.718,6.718,0,0,1,15.3,106.7Z"/>
          </g>
          <g id="Group_400" data-name="Group 400">
            <path id="Path_533" data-name="Path 533" class="cls-11" d="M21.6,107.3a.31.31,0,0,1,.2.1c.1.1.3.1.5.2a6.073,6.073,0,0,0,1.7.4,3.8,3.8,0,0,0,2.1-.2,5.243,5.243,0,0,0,1.9-1.1,2.523,2.523,0,0,1-1.2,1.8,3.355,3.355,0,0,1-2.5.5A4.463,4.463,0,0,1,21.6,107.3Z"/>
          </g>
          <g id="Group_401" data-name="Group 401">
            <path id="Path_534" data-name="Path 534" class="cls-11" d="M12.5,112.3a3.61,3.61,0,0,0,.5.4,5.213,5.213,0,0,0,1.5.6,5.809,5.809,0,0,0,4.1-1.2,2.387,2.387,0,0,1-1.3,1.6,3.25,3.25,0,0,1-2.5.5A3.067,3.067,0,0,1,12.5,112.3Z"/>
          </g>
          <g id="Group_402" data-name="Group 402">
            <path id="Path_535" data-name="Path 535" class="cls-11" d="M12.7,89.5a5.946,5.946,0,0,1,.7.3,4.5,4.5,0,0,0,1.8.3A6.3,6.3,0,0,0,19.3,88a1.01,1.01,0,0,1-.2.5c-.1.2-.1.4-.3.6a5.547,5.547,0,0,0-.6.8,3.819,3.819,0,0,1-2.5,1A3.229,3.229,0,0,1,12.7,89.5Z"/>
          </g>
          <g id="Group_403" data-name="Group 403">
            <path id="Path_536" data-name="Path 536" class="cls-11" d="M8.2,88a7.235,7.235,0,0,0,.7.4,3.854,3.854,0,0,0,1.9.2A5.857,5.857,0,0,0,15.1,86a2.652,2.652,0,0,1-1,2.2,4.228,4.228,0,0,1-2.6,1.2A3.632,3.632,0,0,1,8.2,88Z"/>
          </g>
          <g id="Group_404" data-name="Group 404">
            <path id="Path_537" data-name="Path 537" class="cls-11" d="M14.5,67.6a7.347,7.347,0,0,0,.8.2c.5.1,1.3.3,2.1.4a4.025,4.025,0,0,0,2.4-.5,6.684,6.684,0,0,0,1.7-2v.6a3.82,3.82,0,0,1-.7,1.7A3.181,3.181,0,0,1,18,69.1,5.823,5.823,0,0,1,14.5,67.6Z"/>
          </g>
          <g id="Group_405" data-name="Group 405">
            <path id="Path_538" data-name="Path 538" class="cls-11" d="M18.2,65.4h.7a9.735,9.735,0,0,0,1.6-.1A5.2,5.2,0,0,0,24,63.7a1.75,1.75,0,0,1-.1.5c-.1.2-.1.4-.2.6s-.3.4-.5.7a3.64,3.64,0,0,1-2.2.8A8.274,8.274,0,0,1,18.2,65.4Z"/>
          </g>
          <g id="Group_406" data-name="Group 406">
            <path id="Path_539" data-name="Path 539" class="cls-11" d="M16.3,54.2v-.3a1.952,1.952,0,0,1,.1-.7A5.225,5.225,0,0,1,17.7,51a5.142,5.142,0,0,1,6.2-.5h-.7a12.827,12.827,0,0,0-1.8.1,7.032,7.032,0,0,0-2.6.8A6.345,6.345,0,0,0,16.3,54.2Z"/>
          </g>
          <g id="Group_407" data-name="Group 407">
            <path id="Path_540" data-name="Path 540" class="cls-11" d="M20.1,48.5a1.36,1.36,0,0,1,0-.7,2.072,2.072,0,0,1,1-1.6,4.45,4.45,0,0,1,2.3-.7,7.316,7.316,0,0,1,2.2.3,4.205,4.205,0,0,1-.5.2,13.044,13.044,0,0,1-1.3.3,16.247,16.247,0,0,0-1.9.4A2.355,2.355,0,0,0,20.1,48.5Z"/>
          </g>
          <g id="Group_408" data-name="Group 408">
            <path id="Path_541" data-name="Path 541" class="cls-11" d="M5.1,80.7a2.8,2.8,0,0,1,.1-.6,1.876,1.876,0,0,1,1-1.2,2.715,2.715,0,0,1,2-.4,3.7,3.7,0,0,1,1.8.8H8.5a7.719,7.719,0,0,0-1.5.2A2.85,2.85,0,0,0,5.1,80.7Z"/>
          </g>
          <g id="Group_409" data-name="Group 409">
            <path id="Path_542" data-name="Path 542" class="cls-11" d="M50.5,34.8a2.767,2.767,0,0,1-.1-.8,2.392,2.392,0,0,1,1-1.8,5.488,5.488,0,0,1,5.1-.6,1.213,1.213,0,0,1-.5.1,9.591,9.591,0,0,1-1.5.3,12.3,12.3,0,0,0-2.2.6A3.425,3.425,0,0,0,50.5,34.8Z"/>
          </g>
          <g id="Group_410" data-name="Group 410">
            <path id="Path_543" data-name="Path 543" class="cls-11" d="M75.4,37.5a2.489,2.489,0,0,0,.7.3,2.7,2.7,0,0,0,1.8.1,5.4,5.4,0,0,0,2.2-1c.7-.5,1.4-1.1,2-1.6a1.548,1.548,0,0,1-.2.6,4.637,4.637,0,0,1-.9,1.4,5.439,5.439,0,0,1-2.4,1.4,3.732,3.732,0,0,1-1.8-.1A2.388,2.388,0,0,1,75.4,37.5Z"/>
          </g>
          <g id="Group_411" data-name="Group 411">
            <path id="Path_544" data-name="Path 544" class="cls-11" d="M79.9,34.2a.31.31,0,0,1,.2.1,1.445,1.445,0,0,0,.7.2,5.359,5.359,0,0,0,2.3.3,6.192,6.192,0,0,0,2.7-1.1,25.247,25.247,0,0,0,2.5-2.1s-.1.2-.3.7A5.95,5.95,0,0,1,86.8,34a5.4,5.4,0,0,1-2.9,1.6A4.865,4.865,0,0,1,79.9,34.2Z"/>
          </g>
          <g id="Group_412" data-name="Group 412">
            <path id="Path_545" data-name="Path 545" class="cls-11" d="M88.8,45.2a2.442,2.442,0,0,0,.7.1,9.723,9.723,0,0,0,1.8.1,3.936,3.936,0,0,0,2.1-.6,6.122,6.122,0,0,0,1.7-1.5,2.429,2.429,0,0,1-.8,2,3.55,3.55,0,0,1-2.4,1A4.908,4.908,0,0,1,88.8,45.2Z"/>
          </g>
          <g id="Group_413" data-name="Group 413">
            <path id="Path_546" data-name="Path 546" class="cls-11" d="M99.1,46.6a.31.31,0,0,1,.2.1c.1.1.4.1.6.2a6.841,6.841,0,0,0,2.2.2,6.765,6.765,0,0,0,2.7-.7,7.976,7.976,0,0,0,2.3-1.8,3.376,3.376,0,0,1-1.3,2.2,4.466,4.466,0,0,1-2.9,1.1A5.066,5.066,0,0,1,99.1,46.6Z"/>
          </g>
          <g id="Group_414" data-name="Group 414">
            <path id="Path_547" data-name="Path 547" class="cls-11" d="M103.1,53.8a5.946,5.946,0,0,1,.7.3,1.884,1.884,0,0,0,.8.2,3.4,3.4,0,0,0,1,.1,5.978,5.978,0,0,0,4.2-2,1.548,1.548,0,0,1-.2.6,3.629,3.629,0,0,1-.3.7,5.547,5.547,0,0,0-.6.8,3.573,3.573,0,0,1-2.6.9A4.958,4.958,0,0,1,103.1,53.8Z"/>
          </g>
          <g id="Group_415" data-name="Group 415">
            <path id="Path_548" data-name="Path 548" class="cls-11" d="M98.7,56.5a.349.349,0,0,0,.2.1,5.923,5.923,0,0,0,.6.4,5.166,5.166,0,0,0,2.1.7,4.1,4.1,0,0,0,2.6-.7,7.939,7.939,0,0,0,1.9-2.2,4.039,4.039,0,0,1-1,2.5,3.854,3.854,0,0,1-2.9,1.4A4.416,4.416,0,0,1,98.7,56.5Z"/>
          </g>
          <g id="Group_416" data-name="Group 416">
            <path id="Path_549" data-name="Path 549" class="cls-11" d="M105.2,68.4a.774.774,0,0,1,.3.1,6.374,6.374,0,0,0,.9.2,3.962,3.962,0,0,0,2.7-.9c.2-.2.5-.4.7-.6a6.529,6.529,0,0,0,.7-.8l.4-.4.1-.1.1.1.2.1.6.3.9.3a5.8,5.8,0,0,0,3.9-.3l-.2.2a2.181,2.181,0,0,1-.5.4,5.075,5.075,0,0,1-2.6.7,4.333,4.333,0,0,1-1.9-.4c-.5-.2-.3-.2-.4-.2l-.8.8a4.562,4.562,0,0,1-2.4,1.2A3.391,3.391,0,0,1,105.2,68.4Z"/>
          </g>
          <g id="Group_417" data-name="Group 417">
            <path id="Path_550" data-name="Path 550" class="cls-11" d="M114.4,67.6l.3.3a2.177,2.177,0,0,0,.8.5,11.731,11.731,0,0,0,1.1.5l1.2.3a1.238,1.238,0,0,0-.2.3,1.884,1.884,0,0,1-.9.4,2.018,2.018,0,0,1-1.4-.5A2.269,2.269,0,0,1,114.4,67.6Z"/>
          </g>
        </g>
        <g id="Group_419" data-name="Group 419">
          <path id="Path_551" data-name="Path 551" class="cls-11" d="M80.8,90.4h1a1.268,1.268,0,0,0,.6-.1A8.3,8.3,0,0,0,85,88.9a2,2,0,0,1-.5,1.4,2.078,2.078,0,0,1-1.6.8A3.746,3.746,0,0,1,80.8,90.4Z"/>
        </g>
        <g id="Group_420" data-name="Group 420">
          <path id="Path_552" data-name="Path 552" class="cls-11" d="M81.8,85.7h.8a4.979,4.979,0,0,0,1.9-.4,13.79,13.79,0,0,0,4.3-3.1,1.548,1.548,0,0,1-.2.6,4.184,4.184,0,0,1-.9,1.5,5.207,5.207,0,0,1-2.3,1.6A3.841,3.841,0,0,1,81.8,85.7Z"/>
        </g>
        <g id="Group_421" data-name="Group 421">
          <path id="Path_553" data-name="Path 553" class="cls-11" d="M85.8,85.4a4.2,4.2,0,0,0,.5.2,10.379,10.379,0,0,0,1.2.3,5.262,5.262,0,0,0,2.9-1.1,1.577,1.577,0,0,1-.1.4,1.689,1.689,0,0,1-.2.5c-.1.2-.3.3-.4.5a5.582,5.582,0,0,1-.8.5,1.986,1.986,0,0,1-1.1.1A2.624,2.624,0,0,1,85.8,85.4Z"/>
        </g>
        <g id="Group_422" data-name="Group 422">
          <path id="Path_554" data-name="Path 554" class="cls-11" d="M75.6,101.6a1.238,1.238,0,0,0,.3.2c.2.1.4.3.8.5a7.087,7.087,0,0,0,2.9.9,7.184,7.184,0,0,0,3.8-.5,8.5,8.5,0,0,0,3.2-2.3,5.053,5.053,0,0,1-2.2,2.8,6.427,6.427,0,0,1-4.1,1A7.032,7.032,0,0,1,75.6,101.6Z"/>
        </g>
        <g id="Group_423" data-name="Group 423">
          <path id="Path_555" data-name="Path 555" class="cls-11" d="M82.1,99.1a7.348,7.348,0,0,0,.8.2c.5.1,1.2.3,2,.4a4.826,4.826,0,0,0,2.4-.2,4.16,4.16,0,0,0,1.8-1.7,2.8,2.8,0,0,1-.1.6,3.3,3.3,0,0,1-.9,1.6,3.6,3.6,0,0,1-2.8.7A7.438,7.438,0,0,1,82.1,99.1Z"/>
        </g>
        <g id="Group_424" data-name="Group 424">
          <path id="Path_556" data-name="Path 556" class="cls-11" d="M101.9,84.8a3.2,3.2,0,0,1,.7.1h.8a2.769,2.769,0,0,0,.9-.1,5,5,0,0,0,3.4-2.2,1.75,1.75,0,0,1-.1.5,2.659,2.659,0,0,1-.6,1.4,3.556,3.556,0,0,1-2.2,1.1A4.046,4.046,0,0,1,101.9,84.8Z"/>
        </g>
      </g>
    </g>
    <g id="Group_437" data-name="Group 437">
      <path id="Path_557" data-name="Path 557" class="cls-12" d="M85,73.6c-8.1-1.1-5.9,7.4-5.9,7.4-7.3,3.4-1.2,9.8-1.2,9.8-5.7-.5-3.4,8.4-3.4,8.4-4.8-2.8-7.3,4.8-7.3,4.8-4.2-2.9-8.2,1.8-8.2,1.8-3-4.6-7,0-7,0a5.32,5.32,0,0,0-7.5-2.4c-1.3-2.6-5.9-.9-5.9-.9-2-4.8-6.4-1.8-6.4-1.8A3.286,3.286,0,0,0,30,96.5c1.8-4-4.6-7.5-4.6-7.5,2.2-2.6-2.2-4.8-2.2-4.8,4-2.8,0-6.2,0-6.2,4.8-2,1.7-6.1,1.7-6.1,3.3-2.6,0-5.3,0-5.3,5.5-.9,4.2-7.3,4.2-7.3,5.1.2,4.8-5.7,4.8-5.7,5,1.3,6.2-5,6.2-5,4.8,3.5,7.3-3.7,7.3-3.7,3.7,3.7,6.6-1.5,6.6-1.5,2.4,3.1,7.4,0,7.4,0,2.1,3.5,7.3,0,7.3,0,.6,3.5,7.2,2.6,7.2,2.6-.6,3.7,5.1,4.8,5.1,4.8-.4,3.9,4.9,5.5,4.9,5.5-1.1,4.2,4.9,7.5,4.9,7.5-1.8,5.3,1.6,6.4,1.6,6.4S84.4,66.7,85,73.6Z"/>
      <g id="Group_432" data-name="Group 432">
        <path id="Path_558" data-name="Path 558" class="cls-13" d="M34.9,61.5c-.7,1.8,17.9,14,25.5,14.3s14.8,0,16.6-1.1,8.8-6.8,8.5-9.3C85.3,62.9,76.9,50,69,48.6S38.6,52,34.9,61.5Z"/>
        <g id="Group_427" data-name="Group 427" class="cls-14">
          <path id="Path_559" data-name="Path 559" class="cls-15" d="M37.3,59.9C36.7,61.3,51.5,71,57.6,71.3c6.1.2,11.7,0,13.2-.9s7-5.4,6.8-7.4S70.7,50.8,64.4,49.7,40.2,52.4,37.3,59.9Z"/>
        </g>
        <g id="Group_428" data-name="Group 428" class="cls-14">
          <path id="Path_561" data-name="Path 561" class="cls-16" d="M65.1,47S69,61.7,88.5,67.3l-2.8,2.4A34.419,34.419,0,0,1,63.5,47h1.6Z"/>
        </g>
        <g id="Group_429" data-name="Group 429" class="cls-14">
          <path id="Path_563" data-name="Path 563" class="cls-16" d="M55.6,47s6,26.9,18.1,31l-4.7.2S57.8,67.5,54.3,48.4Z"/>
        </g>
        <g id="Group_430" data-name="Group 430" class="cls-14">
          <path id="Path_565" data-name="Path 565" class="cls-16" d="M47.9,48.3s-1.2,23.5,6.4,28.9l-4.1-2.1s-3.7-.4-4.5-26Z"/>
        </g>
        <g id="Group_431" data-name="Group 431" class="cls-14">
          <path id="Path_567" data-name="Path 567" class="cls-16" d="M42,51.2s-2.6,13.5-.8,18.5l-2.9-1.9s.7-10.7,2-15.4Z"/>
        </g>
      </g>
      <g id="Group_433" data-name="Group 433">
        <path id="Path_569" data-name="Path 569" class="cls-17" d="M31.9,65.3C32.4,64.2,51,74.2,53,77.9S44.2,95.2,40.1,95.6,23.3,87.5,31.9,65.3Z"/>
        <path id="Path_570" data-name="Path 570" class="cls-18" d="M36.1,68.1c.3-.8,14.4,6.7,16,9.5,1.5,2.8-6.7,13.1-9.7,13.4C39.2,91.4,29.5,84.9,36.1,68.1Z"/>
      </g>
      <g id="Group_436" data-name="Group 436">
        <path id="Path_571" data-name="Path 571" class="cls-19" d="M45.8,97.9c1.9-4.5,10.4-18.3,12.7-19.1s13.6-1.6,14.9.8c1.2,2.3-.5,21.7-13.8,23C46.2,103.8,45.8,97.9,45.8,97.9Z"/>
        <path id="Path_572" data-name="Path 572" class="cls-20" d="M48.8,96.2c1.5-3.5,8.1-14.3,9.9-14.9s10.6-1.2,11.6.6-.4,16.9-10.8,17.9S48.8,96.2,48.8,96.2Z"/>
        <g id="Group_434" data-name="Group 434">
          <path id="Path_573" data-name="Path 573" class="cls-19" d="M64.1,85.2a5.2,5.2,0,0,1-.5-.3,2.7,2.7,0,0,0-1.5-.4c-1.3-.1-2.6,1.5-4.2,2.9l-1.2,1.2a11.318,11.318,0,0,0-1,1.3A9.58,9.58,0,0,0,54.3,93a3.075,3.075,0,0,0,1.2,2.8,4.452,4.452,0,0,0,3.1,1,4.422,4.422,0,0,1-1.5.2,5.4,5.4,0,0,1-1.8-.6,3.817,3.817,0,0,1-1.7-2A4.484,4.484,0,0,1,54,91c.3-.5.6-1.1.9-1.6a18.259,18.259,0,0,1,1.3-1.6,10.7,10.7,0,0,1,1.6-1.4c.6-.5,1.1-.9,1.8-1.4a3.641,3.641,0,0,1,2.3-.9A5.082,5.082,0,0,1,64.1,85.2Z"/>
        </g>
        <g id="Group_435" data-name="Group 435">
          <path id="Path_574" data-name="Path 574" class="cls-19" d="M60.3,94a1.213,1.213,0,0,0,.5.1,1.574,1.574,0,0,0,1.2-.4,3.39,3.39,0,0,0,1.2-1.6,6.117,6.117,0,0,0,.5-1.2c.1-.4.3-.9.1-1-.2-.3-1.7-.3-2.5-.3-.9.1-1.6.9-2.4,1.7a3.039,3.039,0,0,1-.7.5.758.758,0,0,1-.4.2c-.1.1-.3.2-.3.1h-.1v.2l.1.1.2.2a1.845,1.845,0,0,0,1.2.5c.3-.1.5-.8,1.1-1l-.3.3c-.2.2-.2.5-.5.9-.4.4-1.2.2-1.8-.1a2.186,2.186,0,0,0-.5-.3l-.2-.2c-.1-.1-.1-.3-.2-.4a.6.6,0,0,1-.1-.4c-.1-.1.1-.1.1-.1l.2-.1c.1-.1.3-.1.4-.2l.2-.1a11.411,11.411,0,0,0,2-1.9,3.013,3.013,0,0,1,1.7-.8,6.079,6.079,0,0,1,1.9.1,2.607,2.607,0,0,1,1.1.3c.1.1.2.1.3.2s.2.2.2.3a1.7,1.7,0,0,1,.1.7,6.67,6.67,0,0,1-2.4,3.6,2.1,2.1,0,0,1-1.1.4A2,2,0,0,1,60.3,94Z"/>
        </g>
      </g>
    </g>
  </g>
</svg>
