<svg xmlns="http://www.w3.org/2000/svg" xmlns:xlink="http://www.w3.org/1999/xlink" viewBox="1618.61 532.007 144.025 145.28">
  <defs>
    <style>
      .cls-1 {
        fill: #e36025;
      }

      .cls-15, .cls-2 {
        fill: #fff;
      }

      .cls-3 {
        fill: url(#linear-gradient);
      }

      .cls-4 {
        fill: #3f6932;
      }

      .cls-5 {
        fill: #cd7a79;
      }

      .cls-6 {
        fill: #c25f54;
      }

      .cls-7 {
        fill: #c2635d;
      }

      .cls-8 {
        fill: #d0a6a6;
      }

      .cls-9 {
        fill: #cf807e;
      }

      .cls-10 {
        fill: #e1a7a9;
      }

      .cls-11 {
        fill: #21351a;
      }

      .cls-12 {
        fill: #283d1b;
      }

      .cls-13 {
        fill: #384932;
      }

      .cls-14 {
        fill: #343e19;
      }

      .cls-15 {
        opacity: 0.16;
      }
    </style>
    <linearGradient id="linear-gradient" y1="0.502" x2="0.999" y2="0.502" gradientUnits="objectBoundingBox">
      <stop offset="0" stop-color="#7ea53e"/>
      <stop offset="0.305" stop-color="#80a640" stop-opacity="0.847"/>
      <stop offset="0.475" stop-color="#86ab48" stop-opacity="0.761"/>
      <stop offset="0.612" stop-color="#8fb256" stop-opacity="0.694"/>
      <stop offset="0.732" stop-color="#9ebd6a" stop-opacity="0.635"/>
      <stop offset="0.839" stop-color="#b0ca83" stop-opacity="0.58"/>
      <stop offset="0.938" stop-color="#c6dba2" stop-opacity="0.529"/>
      <stop offset="1" stop-color="#d7e8ba" stop-opacity="0.502"/>
    </linearGradient>
  </defs>
  <g id="Group_490" data-name="Group 490" transform="translate(1618.61 532)">
    <path id="Path_1063" data-name="Path 1063" class="cls-1" d="M144.114,111.128c.49,5.265-5.633,24.428-9.061,27.918-12.306,12.428-37.714,28.346-51.305,28.224-51.305-.429-80.142-47.387-80.142-47.387L.3,65.884s62.815,51.489,86.448,47.265C104.441,109.964,139.4,56.7,139.4,56.7Z" transform="translate(-0.116 -21.983)"/>
    <path id="Path_1064" data-name="Path 1064" class="cls-2" d="M83.876,91.716C53.02,92.328,5.755,62.512.184,43.533-.735,40.41.918,30.982,25.959,12.615L57.8.921c1.531-.8,40.714-5.02,64.04,15,0,0,16.408,12.428,17.449,18.734C142.528,54.308,114,91.1,83.876,91.716Z" transform="translate(0 0)"/>
    <path id="Path_1065" data-name="Path 1065" class="cls-3" d="M131.793,75.178c-.98-.245-13.163-7.53-13.163-7.53l-5.571-3.857s-1.775-1.1-13.959,15.367c5.939,0,19.285-.122,20.816-.306,1.469-.184,8.816.184,11.081.306h.061a2.053,2.053,0,0,0,1.1-3.857A.656.656,0,0,1,131.793,75.178Z" transform="translate(-38.427 -24.727)"/>
    <path id="Path_1066" data-name="Path 1066" class="cls-4" d="M97.553,78.375s2.02-2.694,4.653-5.816c3.245-3.857,5.939-6.49,5.939-6.49l2.51-3.122L105.267,61.6,92.9,76.722Z" transform="translate(-36.023 -23.883)"/>
    <path id="Path_1067" data-name="Path 1067" class="cls-5" d="M151.564,62.767l-2.694,8.877-4.286-.061-16.408-9a3.5,3.5,0,0,1-1.347-4.714l.857-1.469Z" transform="translate(-49.014 -21.867)"/>
    <path id="Path_1068" data-name="Path 1068" class="cls-6" d="M159.7,79.365l3.735-3,2.02-5.265h3.735v6.245l-5.755,5.939Z" transform="translate(-61.926 -27.567)"/>
    <path id="Path_1069" data-name="Path 1069" class="cls-7" d="M78.2,54.783s.061,2.878,4.408,1.775c4.286-1.1,5.388-1.1,7.9-1.775a10.992,10.992,0,0,0,4.653-2.143c1.408-1.1,2.878-1.1,2.143-2.143C96.506,49.4,78.139,46.886,78.2,54.783Z" transform="translate(-30.323 -19.087)"/>
    <path id="Path_1070" data-name="Path 1070" class="cls-8" d="M136.6,50.123c-1.224-.122.245-1.714-2.51-3.735a31.172,31.172,0,0,0-5.694-3.245V40.388s10.163-4.041,12.918,4.408C141.379,44.858,139.114,50.368,136.6,50.123Z" transform="translate(-49.789 -15.284)"/>
    <path id="Path_1071" data-name="Path 1071" class="cls-9" d="M83.962,77.276s2.265-.918,2.265-1.469.245-1.041.98-3.061c.735-1.959.49-4.469,1.469-4.592A15.263,15.263,0,0,0,92.9,66.011c.735-.49,1.959-.735,2.51-1.714a3.238,3.238,0,0,0,0-2.265s0-.245-1.959,0S91.186,63.5,89.839,64.3c-1.347.735-5.816,5.326-5.816,5.326s-1.224,1.163-1.224,1.9A52.318,52.318,0,0,0,83.962,77.276Z" transform="translate(-32.105 -24.008)"/>
    <path id="Path_1072" data-name="Path 1072" class="cls-10" d="M78.266,70.911a6.651,6.651,0,0,1,1.469-5.082c1.959-2.265,1.9-1.714,2.633-2.2s5.449-.429,3.8,1.041c-.245.245-1.959,2.326-2.939,3.612C82.245,69.5,80.714,71.279,78.266,70.911Z" transform="translate(-30.327 -24.562)"/>
    <path id="Path_1073" data-name="Path 1073" class="cls-11" d="M72.713,44.8c-.918,1.714-1.408,3.98-1.959,4.714-.49.735.735,1.775-2.51,2.143a12.878,12.878,0,0,1-4.469,0s-.735-.367,0,1.347.735,3,1.224,3.49,2.265-.245,1.469,2.51c-.367,1.408-.8,2.878-1.163,4.041-.306,1.1-.551,1.9-.551,1.9l-1.347-5.694s.918-2.449,0-3.857-3.367-.122-1.9-2.633a17.068,17.068,0,0,1,4.224-4.469l2.755-1.469Z" transform="translate(-23.673 -17.369)"/>
    <path id="Path_1074" data-name="Path 1074" class="cls-12" d="M74.387,74.226s20.51,9.061,21.918,9.061,9.857.735,10.9,0c.98-.735,23.081-3.98,23.081-3.98L138,69.206l-3-6.551s-2.265-.98-1.224-1.592c.98-.612,3.735.122,4.224,1.592a29.786,29.786,0,0,0,2.265,5.143,15.187,15.187,0,0,1,1.224,3.306,21.419,21.419,0,0,1,0,3.98c0,1.224,1.469-1.714.122,1.775l-1.347,3.429s-3.49-1.408-4.224-.8a6.774,6.774,0,0,0-1.714,2.326c-.49.98-.245-1.224-.49.98l-.245,2.265a3.03,3.03,0,0,1-3.245.98c-2.265-.49-4.714-1.714-6.184-1.224a8.912,8.912,0,0,0-3.245,1.347,13.114,13.114,0,0,0-2.51,3.122v1.469s-2.755-.98-3.735-2.265c-.98-1.224-.98-3.245-3.122-2.755s-6,1.224-6,1.224c-2.082,1.469-2.633,3.98-2.878,3.735s-1.469,0-1.469,0c-.98-2.02-2.878-3-3.061-3.49s-2.694-1.469-3.429-1.469S93.673,85,92.2,85.491l-1.469.49L89.02,87.205a24.775,24.775,0,0,0-1.959-3.245,22.872,22.872,0,0,0-3.49-3s-.061-.49-1.775-.49-3.306-1.224-3.98.49L77.143,82.8h0C73.163,80.838,74.387,74.226,74.387,74.226Z" transform="translate(-28.776 -23.591)"/>
    <path id="Path_1075" data-name="Path 1075" class="cls-13" d="M117.718,51.127c.306-.8-.673-3.49-2.082-2.633a14.29,14.29,0,0,0-2.755,1.653c-1.408,1.1.122.061-3.429.98s-4.714.673-6.612,1.224-2.449,0-3.551,1.531,0,1.531,0,1.531a8.3,8.3,0,0,1,5.02,0c2.755.857-.551,0,3.612,0C111.963,55.413,116.8,53.637,117.718,51.127Z" transform="translate(-38.311 -18.737)"/>
    <path id="Path_1076" data-name="Path 1076" class="cls-14" d="M161.694,55.551a4.372,4.372,0,0,0-1.714-3.306c-1.714-1.224.245-1.469-2.51-2.02-2.755-.49-5.694-1.224-5.694-1.224s-.8.8,0,1.224S157.47,56.9,157.47,56.9Z" transform="translate(-58.716 -18.998)"/>
    <path id="Path_1077" data-name="Path 1077" class="cls-13" d="M111.484,45.708s-3.857-1.163-3.673-1.9-3.306-2.755-1.531-2.755c1.714,0,3.49-1.224,3.98,0a7.208,7.208,0,0,0,1.224,2.02Z" transform="translate(-41.016 -15.706)"/>
    <path id="Path_1078" data-name="Path 1078" class="cls-15" d="M101.215,140.222c-1.653.918-7.1-.551-8.571-.551-12.918.245-20.571-3-35.265-11.571L29.4,165.2c22.836,27.122,45.856,27.8,61.1,29.387Z" transform="translate(-11.4 -49.67)"/>
  </g>
</svg>
