<svg xmlns="http://www.w3.org/2000/svg" viewBox="1854.629 532.139 138.443 140.27">
  <defs>
    <style>
      .cls-1 {
        fill: #dfa16e;
      }

      .cls-2 {
        fill: #050909;
      }

      .cls-3 {
        fill: #4f504f;
      }

      .cls-4 {
        fill: #fff;
      }

      .cls-5 {
        fill: #db9c9b;
      }

      .cls-6 {
        fill: #cb9998;
      }

      .cls-7 {
        fill: none;
        stroke: #ec178d;
        stroke-width: 0.285px;
      }

      .cls-10, .cls-7 {
        stroke-miterlimit: 10;
      }

      .cls-8 {
        fill: #ec9360;
      }

      .cls-9 {
        fill: #d23e27;
      }

      .cls-10 {
        fill: #c9d4ae;
        stroke: #337338;
        stroke-width: 2.284px;
      }
    </style>
  </defs>
  <g id="Group_492" data-name="Group 492" transform="translate(1854.629 532.139)">
    <path id="Path_1079" data-name="Path 1079" class="cls-1" d="M78.682,57.084,67.77,55.8,62.7,63.887,72.648,68.7Z" transform="translate(-22.457 -19.986)"/>
    <g id="Group_491" data-name="Group 491" transform="translate(0)">
      <path id="Path_1080" data-name="Path 1080" class="cls-2" d="M139.445,61.872c0,13.478-5.006,30.423-7.06,44.094-13.222,8.665-31.129,29.652-53.272,33.632-14.634,0-45.7-2.888-56.16-11.553-13.478-11.1-15.532-29.973-20.153-50,0-10.205,5.135-32.284,9.627-39.6C24.3,18.677,53.055,5.776,70.641,0,82,0,83.35,4.172,93.3,9.563c4.75,2.567,5.2,5.391,23.106,12.451C128.919,32.99,139.445,45.121,139.445,61.872Z" transform="translate(-1.003)"/>
      <path id="Path_1081" data-name="Path 1081" class="cls-3" d="M112.8,178.313c29.139-.642,52.823-24.582,58.984-34.274,6.868-10.783,6.418-24.9,7.06-37.74l-29.4,18.87C149.448,125.106,128.974,153.41,112.8,178.313Z" transform="translate(-40.402 -38.074)"/>
      <path id="Path_1082" data-name="Path 1082" class="cls-4" d="M109.3,89.362c0,33.5-15.917,64.825-50.769,59.433-14.634,0-29.332-1.6-39.793-10.205C5.263,127.487,4.557,104.7,0,84.677,0,74.407,3.787,69.529,5.52,61.122,9.5,41.867,28.433,31.212,46.019,25.5c11.36,0,13.029,4.429,22.977,9.82,4.75,2.567-.706,7.124,17.265,14.184C98.777,60.48,109.3,72.546,109.3,89.362Z" transform="translate(0 -9.133)"/>
      <path id="Path_1083" data-name="Path 1083" class="cls-5" d="M61.114,128.807c-.9-.128-12.965-9.627-12.965-9.627V100.631s-2.567-2.311-1.8-3.53c.77-1.284,6.8-7.895,6.8-7.895V79.9L43.4,91.581l1.8,29.2,13.478,11.168s4.3,1.027,5.327,1.284a30.3,30.3,0,0,1,6.29,3.787,25.712,25.712,0,0,1,2.888,4.3s12.516-5.07,12.58-6.868,1.861-8.151,1.861-8.857c0-.77,1.8-8.6,1.8-8.6l-9.114-8.344s1.027,5.584,0,7.895C79.15,118.731,68.945,130.155,61.114,128.807Z" transform="translate(-15.545 -28.618)"/>
      <path id="Path_1084" data-name="Path 1084" class="cls-6" d="M91.2,164.849l11.617-5.584L108.208,142s3.53,3.273,3.53,5.07,1.284,6.354,1.284,8.344v7.124l-4.814,5.584S92.227,166.069,91.2,164.849Z" transform="translate(-32.665 -50.86)"/>
      <path id="Path_1085" data-name="Path 1085" class="cls-7" d="M89.6,175.6" transform="translate(-32.092 -62.895)"/>
      <path id="Path_1086" data-name="Path 1086" class="cls-8" d="M88.919,79.9l12.58,2.054,3.658-1.027,13.735,10.911-2.311,7.638v2.567s2.054-2.054,3.787,0c1.8,2.054,5.327,5.584,5.327,5.584h-3.273l-.642,6.033-3.658,2.118L97.584,104.161l1.284-11.489L87.7,86.832Z" transform="translate(-31.412 -28.618)"/>
      <path id="Path_1087" data-name="Path 1087" class="cls-9" d="M117.006,138.742s7.638-9.884,6.868-10.141a28.893,28.893,0,0,1-3.4-2.054l7.188-8.857s-18.549-2.76-19.768-3.787c-1.284-1.027-1.284-1.54-2.054-3.017-.77-1.54-2.567-2.567-2.567-5.841V93.878L89.6,89s8.6,11.553,0,18.356l2.76,7.766,2.439-.513,13.8,6.868,2.76,17.265h5.648Z" transform="translate(-32.092 -31.877)"/>
      <path id="Path_1088" data-name="Path 1088" class="cls-10" d="M78.541,79.186c5.52,7.574,7.574,13.607,1.8,17.843s-8.921,2.7-14.441-4.878S55.564,72,61.34,67.762C67.052,63.59,73.021,71.613,78.541,79.186Z" transform="translate(-21.033 -23.86)"/>
    </g>
  </g>
</svg>
