<svg xmlns="http://www.w3.org/2000/svg" xmlns:xlink="http://www.w3.org/1999/xlink" viewBox="1365 87 107.307 109.539">
  <defs>
    <style>
      .cls-1 {
        fill: #0f161e;
      }

      .cls-2 {
        fill: #141d28;
      }

      .cls-3 {
        fill: #2b3b4c;
      }

      .cls-4 {
        fill: #202d3f;
      }

      .cls-5 {
        fill: #d9f3f9;
      }

      .cls-6 {
        fill: #fff;
      }

      .cls-7 {
        fill: #514a2d;
      }

      .cls-8 {
        fill: #f99410;
      }

      .cls-9 {
        clip-path: url(#clip-path);
      }

      .cls-10 {
        fill: #ffb65f;
      }

      .cls-11 {
        fill: #ffe1bd;
      }

      .cls-12 {
        fill: #e2c342;
      }

      .cls-13 {
        fill: #f9e385;
      }

      .cls-14 {
        fill: #d6cd9d;
      }

      .cls-15 {
        fill: #fff4c7;
      }

      .cls-16 {
        fill: #85c2cc;
      }
    </style>
    <clipPath id="clip-path">
      <path id="Path_584" data-name="Path 584" d="M55.2,8.5c-9.9.7-21.2,2.9-25.5,5.2,0,0,4.1,12.7,6.3,14.1,2.1,1.4,41.6-3.8,44.6-6,0,0-8.6-14.4-10.2-15.1S59.2,8.3,55.2,8.5Z"/>
    </clipPath>
  </defs>
  <g id="Group_465" data-name="Group 465" transform="translate(1365.005 87.024)">
    <g id="Group_440" data-name="Group 440">
      <path id="Path_575" data-name="Path 575" class="cls-1" d="M107.3,17s-3.6,36.1-4.4,45-2.4,24.1-3.3,27.7c-.8,3.7-10.4,11.6-14.5,12.6S88.4,52.7,90,41.2C91.7,29.6,98.5,19.6,107.3,17Z"/>
      <g id="Group_439" data-name="Group 439">
        <path id="Path_576" data-name="Path 576" class="cls-2" d="M0,25.9S2.7,41,5.5,50.6s5.3,35.9,5.9,38.7c.6,2.9,16.7,20.8,47.1,20.2S95.2,95.2,96,94.2s2.4-10.6,1-14.9-1.1-12.2.6-16.9,3.1-15.5,1.9-20.4,2-11.3,1.8-13a5.329,5.329,0,0,0-1.8-3.1H0Z"/>
        <path id="Path_577" data-name="Path 577" class="cls-3" d="M27.6,43.1c-2.7-.7-5.2.7-7.8,0-1.4-.4-4.9-2.9-6.4-1.4-2.5,2.6,3.3,12.6,3.1,15.9-.2,3.4-2,6.5-2,9.8,0,3.1,2,5.7,2.3,8.8.2,2.6-.6,5.5.5,7.8a44,44,0,0,0,3.9,6.6c1.8,2.5,5.7,4.1,8.3,5.8,3.4,2.2,7,2.8,10.9,3.6,3.3.6,5.6,1.4,7.2-2,1.7-3.6,1.6-6.7.4-10.4-.9-2.9-3.3-6.1-3-9.2.3-3.4,3.6-6.3,4.5-9.7a10.763,10.763,0,0,0-.2-7.3c-1.1-2.5-3.3-4.7-2.9-7.7.3-2.8,2.3-4.4-1-5.9-2.6-1.1-5.8-.4-8.5-1.2C33.6,45.8,30.8,43.9,27.6,43.1Z"/>
      </g>
      <path id="Path_578" data-name="Path 578" class="cls-4" d="M54.1.4C35,2.7.6,10.5,0,25.2-.3,33.6,13.4,38,26.7,39.7c2.7.3,6,1.3,8.8,1.5,7.7.4,12.3-.8,18.6-1.3,9.8-.7,22.4-2.5,33-5.9,11.3-3.6,20.1-9.1,20.2-17C107.6,1.7,69-1.3,54.1.4Z"/>
    </g>
    <g id="Group_464" data-name="Group 464">
      <g id="Group_441" data-name="Group 441">
        <path id="Path_579" data-name="Path 579" class="cls-5" d="M60.3,36s-4,5.9-11.3,1.3c0,0-9.2,5.8-12.8.3,0,0-7.6,2.1-10.9-1.5,0,0-7.3,4.6-9.4-1.3,0,0-6.5,2.7-7.6-2.3,0,0-7.8.7-5.7-4.3,0,0-3.5-3.7.6-5.6,0,0-1.2-4.3,4.1-5.6,0,0,.8-3.8,7.3-2.7,0,0,.4-4.6,6.1-4A9.126,9.126,0,0,1,31.8,7.8s3.8-5.5,9.7-2.3c0,0,5.9-5.9,10.9-1,0,0,5.9-5.6,11.8-2,0,0,5.2-3.5,10.9,1.3,0,0,9-3.8,11.8,1.9,0,0,8.4-2.7,9.9,3.6,0,0,7.8-.4,6.9,5.5,0,0,5.8,3.7.1,5.9,0,0,.1,8.3-8.9,6,0,0-1.5,7.6-10.1,3.6,0,0-1.5,7.1-9,4,0,0-2.1,4.6-7.8,1C67.9,35.1,65.8,41,60.3,36Z"/>
        <path id="Path_580" data-name="Path 580" class="cls-6" d="M54.9,33.3s-3.4,5.1-9.8,1.1c0,0-8,5-11.1.2,0,0-6.5,1.8-9.4-1.3,0,0-6.4,4-8.2-1.1,0,0-5.6,2.4-6.5-2,0,0-6.7.6-4.9-3.7,0,0-3.8-2.5-.3-4.1A5.6,5.6,0,0,1,9,16.8s.7-3.3,6.4-2.4c0,0,.4-4,5.3-3.4a7.971,7.971,0,0,1,9.6-2.2s3.3-4.7,8.3-2c0,0,5.1-5.1,9.4-.8,0,0,5.1-4.8,10.2-1.7,0,0,4.5-3.1,9.4,1.1,0,0,7.8-3.3,10.2,1.6,0,0,7.3-2.4,8.5,3.1,0,0,6.7-.4,6,4.7,0,0,5,3.2.1,5.1,0,0,.1,7.2-7.7,5.2,0,0-1.3,6.5-8.7,3.1,0,0-1.3,6.2-7.8,3.4,0,0-1.8,4-6.7.9C61.4,32.6,59.6,37.6,54.9,33.3Z"/>
      </g>
      <g id="Group_450" data-name="Group 450">
        <path id="Path_581" data-name="Path 581" class="cls-7" d="M70.6,9.2s2.5-1.8,4.6-1.5,4.7,2.7,3.7,4.2S72.2,14.3,70.6,9.2Z"/>
        <g id="Group_447" data-name="Group 447">
          <path id="Path_582" data-name="Path 582" class="cls-8" d="M55.2,8.5c-9.9.7-21.2,2.9-25.5,5.2,0,0,4.1,12.7,6.3,14.1,2.1,1.4,41.6-3.8,44.6-6,0,0-8.6-14.4-10.2-15.1S59.2,8.3,55.2,8.5Z"/>
          <g id="Group_442" data-name="Group 442" class="cls-9">
            <path id="Path_583" data-name="Path 583" class="cls-10" d="M52.9,10c-8.2.6-17.6,2.4-21.2,4.3,0,0,3.4,10.5,5.2,11.7,1.8,1.1,34.5-3.2,37-4.9,0,0-7.1-11.9-8.5-12.5C64.1,7.9,56.2,9.8,52.9,10Z"/>
          </g>
          <g id="Group_443" data-name="Group 443" class="cls-9">
            <path id="Path_585" data-name="Path 585" class="cls-11" d="M46.3,7.8s-1.1,7-14.4,15.7c0,0-1.2,3.1,3.5-.6S45.6,14.2,47,10.3C48.5,6.6,46.9,6,46.3,7.8Z"/>
          </g>
          <g id="Group_444" data-name="Group 444" class="cls-9">
            <path id="Path_587" data-name="Path 587" class="cls-11" d="M59.8,5.6S52.8,21.3,37,29c0,0-1.5,3.7,3.1,1.3s20.3-16.5,22-23.8S59.8,5.6,59.8,5.6Z"/>
          </g>
          <g id="Group_445" data-name="Group 445" class="cls-9">
            <path id="Path_589" data-name="Path 589" class="cls-11" d="M51.4,29s8.1-7.9,10.8-10.7S71,6.2,71.7,5.3s1.7-1.1,1.4,0-6.7,11.3-9.8,14.2-8.1,9.8-11.9,10C47.5,29.8,51.4,29,51.4,29Z"/>
          </g>
          <g id="Group_446" data-name="Group 446" class="cls-9">
            <path id="Path_591" data-name="Path 591" class="cls-11" d="M65.4,27.3s7.3-7.4,10.9-14.1h3.4C79.7,13.1,72.2,24.6,65.4,27.3Z"/>
          </g>
        </g>
        <g id="Group_448" data-name="Group 448">
          <path id="Path_593" data-name="Path 593" class="cls-12" d="M21.3,20.2c1.5-1.2,9.2-4.1,9.5-3.2s4.9,9.9,4.7,11.1c-.2,1.1-7.8,2.7-8.9,2.4C25.5,30.1,21.3,20.2,21.3,20.2Z"/>
          <path id="Path_594" data-name="Path 594" class="cls-13" d="M21.6,20.6c1.2-1,7.3-3.2,7.5-2.5s3.8,7.9,3.7,8.8-6.2,2.1-7,1.9S21.6,20.6,21.6,20.6Z"/>
        </g>
        <g id="Group_449" data-name="Group 449">
          <path id="Path_595" data-name="Path 595" class="cls-14" d="M89.1,17s-7-7.7-8.1-7.7-6.2,3.4-6.2,3.4,4.8,9.4,5.8,9.2C81.5,21.6,87.2,19.5,89.1,17Z"/>
          <path id="Path_596" data-name="Path 596" class="cls-15" d="M87.5,16.4s-5.4-6-6.3-6c-.8,0-4.8,2.6-4.8,2.6s3.7,7.4,4.5,7.2C81.6,20,86.1,18.4,87.5,16.4Z"/>
        </g>
      </g>
      <g id="Group_463" data-name="Group 463">
        <g id="Group_451" data-name="Group 451">
          <path id="Path_597" data-name="Path 597" class="cls-16" d="M71.6,25.5a2.475,2.475,0,0,0,.4-.6,3.777,3.777,0,0,1,1.5-1.2,5.3,5.3,0,0,1,4.9,0,1.213,1.213,0,0,1-.5.1,11.475,11.475,0,0,0-1.4.2A10.927,10.927,0,0,0,71.6,25.5Z"/>
        </g>
        <g id="Group_452" data-name="Group 452">
          <path id="Path_598" data-name="Path 598" class="cls-16" d="M49.4,29a.31.31,0,0,1,.1-.2.914.914,0,0,1,.3-.5A5,5,0,0,1,51.3,27a4.328,4.328,0,0,1,1.2-.5,2.516,2.516,0,0,1,1.5-.1,7.609,7.609,0,0,1,2.4,1.1h-.6c-.4,0-.9-.1-1.5-.1a4.245,4.245,0,0,0-2.1.3,6.943,6.943,0,0,0-1.3.5A3.147,3.147,0,0,0,49.4,29Z"/>
        </g>
        <g id="Group_453" data-name="Group 453">
          <path id="Path_599" data-name="Path 599" class="cls-16" d="M90.4,15.3a6.41,6.41,0,0,0-.8,4.2,1.577,1.577,0,0,1-.4-.1,1.739,1.739,0,0,1-.7-.9,2.6,2.6,0,0,1,.2-1.7A2.341,2.341,0,0,1,90.4,15.3Z"/>
        </g>
        <g id="Group_454" data-name="Group 454">
          <path id="Path_600" data-name="Path 600" class="cls-16" d="M76.4,26.1a3.234,3.234,0,0,1,.2-.9,4.036,4.036,0,0,1,1.3-1.9,4.548,4.548,0,0,1,2.8-1,3.6,3.6,0,0,1,2.7,1.2,2.8,2.8,0,0,1-.6-.1,7.115,7.115,0,0,0-1.6-.1,6.825,6.825,0,0,0-2.3.5A5.034,5.034,0,0,0,76.4,26.1Z"/>
        </g>
        <g id="Group_455" data-name="Group 455">
          <path id="Path_601" data-name="Path 601" class="cls-16" d="M22.6,31.2a3.957,3.957,0,0,1,.7-.5,5.44,5.44,0,0,1,2-.4,6.3,6.3,0,0,1,2.6.5,4.7,4.7,0,0,1,1.2.9,2.2,2.2,0,0,1,.4,1.3,5.2,5.2,0,0,0-.3-.5,2.234,2.234,0,0,0-1.2-.7,10.293,10.293,0,0,0-2.2-.5A6.835,6.835,0,0,0,22.6,31.2Z"/>
        </g>
        <g id="Group_456" data-name="Group 456">
          <path id="Path_602" data-name="Path 602" class="cls-16" d="M19.9,18.2a.31.31,0,0,1,.2.1,1.38,1.38,0,0,0,.4.3,4.043,4.043,0,0,1,.6,3.7,1.691,1.691,0,0,1-.7,1,1.191,1.191,0,0,1-1.1.3,1.727,1.727,0,0,0,.4-.3,1.88,1.88,0,0,0,.4-1c.1-.4.1-1,.2-1.7V19.5A3.816,3.816,0,0,0,19.9,18.2Z"/>
        </g>
        <g id="Group_457" data-name="Group 457">
          <path id="Path_603" data-name="Path 603" class="cls-16" d="M21.4,25.4h.4a1.616,1.616,0,0,1,1,.4,3.178,3.178,0,0,1,1,1,1.594,1.594,0,0,1,0,1.5,8.432,8.432,0,0,0-.7-.8c-.2-.2-.4-.5-.7-.8A7.574,7.574,0,0,0,21.4,25.4Z"/>
        </g>
        <g id="Group_458" data-name="Group 458">
          <path id="Path_604" data-name="Path 604" class="cls-16" d="M23.3,17.1s.3-.1.7-.2a3.091,3.091,0,0,0,.8-.2l.9-.3A5.133,5.133,0,0,0,28.3,13a1.213,1.213,0,0,1,.1.5c0,.2.1.4.1.7a2.92,2.92,0,0,1-.2.9A3.627,3.627,0,0,1,26.5,17,3.936,3.936,0,0,1,23.3,17.1Z"/>
        </g>
        <g id="Group_459" data-name="Group 459">
          <path id="Path_605" data-name="Path 605" class="cls-16" d="M44.9,31.6l.2-.2a7.365,7.365,0,0,1,.5-.6,5.5,5.5,0,0,1,2-1.5,4.429,4.429,0,0,1,6,1.9,4.574,4.574,0,0,1-.6-.4c-.4-.2-1-.5-1.7-.8a5.964,5.964,0,0,0-2.7-.1A11.029,11.029,0,0,0,44.9,31.6Z"/>
        </g>
        <g id="Group_460" data-name="Group 460">
          <path id="Path_606" data-name="Path 606" class="cls-16" d="M58.8,33.2a4.567,4.567,0,0,1,1.6-2.5,2.092,2.092,0,0,1,.6-.4,1.493,1.493,0,0,1,.7-.3c.2-.1.5-.1.7-.2h.8a5.732,5.732,0,0,1,1.4.4,4.44,4.44,0,0,1,1.1.8,2.8,2.8,0,0,1-.6-.1c-.2,0-.4-.1-.7-.1a2.769,2.769,0,0,1-.9-.1h-1a4.331,4.331,0,0,0-.5.1c-.2,0-.4.2-.6.2A12.68,12.68,0,0,0,58.8,33.2Z"/>
        </g>
        <g id="Group_461" data-name="Group 461">
          <path id="Path_607" data-name="Path 607" class="cls-16" d="M93,18.7a4.08,4.08,0,0,0-2.5,1,3.738,3.738,0,0,0-1.2,2,5.769,5.769,0,0,0,.1,2.6,3.444,3.444,0,0,1-1-2.2,3.207,3.207,0,0,1,1.1-2.7A3.118,3.118,0,0,1,93,18.7Z"/>
        </g>
        <g id="Group_462" data-name="Group 462">
          <path id="Path_608" data-name="Path 608" class="cls-16" d="M69.8,27.9a3.224,3.224,0,0,0-.6-.2,2.1,2.1,0,0,0-1.5.2,9.074,9.074,0,0,0-3.3,2.6V30a3.01,3.01,0,0,1,.6-1.4,4.111,4.111,0,0,1,1.9-1.4,2.516,2.516,0,0,1,1.5-.1A1.6,1.6,0,0,1,69.8,27.9Z"/>
        </g>
      </g>
    </g>
  </g>
</svg>
