<svg xmlns="http://www.w3.org/2000/svg" viewBox="1638 69 106.145 145.946">
  <defs>
    <style>
      .cls-1 {
        fill: #d3cc90;
      }

      .cls-2 {
        fill: #f7f2ba;
      }

      .cls-3 {
        fill: #202d3f;
      }

      .cls-4 {
        fill: #0f161e;
      }

      .cls-5 {
        fill: #141d28;
      }

      .cls-6 {
        fill: #2b3b4c;
      }

      .cls-7 {
        fill: #d85903;
      }

      .cls-8 {
        fill: #ff6800;
      }

      .cls-9 {
        fill: #ffcdab;
      }
    </style>
  </defs>
  <g id="Group_488" data-name="Group 488" transform="translate(1637.968 69)">
    <g id="Group_466" data-name="Group 466">
      <path id="Path_609" data-name="Path 609" class="cls-1" d="M89.4,17.8a11.141,11.141,0,0,0-2.2-8.3L69.9,32.2C80.5,33.8,88.5,24.7,89.4,17.8Z"/>
      <path id="Path_610" data-name="Path 610" class="cls-2" d="M94.5,0,87.2,9.5a11.141,11.141,0,0,1,2.2,8.3c-.9,6.8-8.9,16-19.6,14.4l-8,10.5s29.4,11.7,40.8-9S94.5,0,94.5,0Z"/>
      <path id="Path_611" data-name="Path 611" class="cls-1" d="M96.6,17.4c-3.3.1-2.6,2,0,2S100,17.3,96.6,17.4Z"/>
      <path id="Path_612" data-name="Path 612" class="cls-1" d="M92.4,29.5c-3-1.5-3.2.5-.9,1.8C93.7,32.5,95.4,31,92.4,29.5Z"/>
    </g>
    <g id="Group_469" data-name="Group 469">
      <path id="Path_613" data-name="Path 613" class="cls-3" d="M53.1,41.9c-18.4,1.2-51.5,7-52.8,21C-.5,70.8,12.4,75.7,25,78c2.5.5,5.6,1.6,8.3,1.9,7.3.8,11.7-.2,17.8-.3,9.3-.2,21.5-1.3,31.7-4.1,10.9-2.9,19.6-7.7,20.1-15.2C104,45.7,67.3,41,53.1,41.9Z"/>
      <g id="Group_467" data-name="Group 467">
        <path id="Path_614" data-name="Path 614" class="cls-4" d="M88.2,73.8a37.078,37.078,0,0,0-2.9,8.7c-2.1,10.9-11.6,58.8-7.6,58,3.9-.8,13.5-7.9,14.4-11.3,1-3.5,3.2-17.8,4.5-26.3,1.1-7.4,5.2-34.6,6.2-41.2C101.5,67.2,95.8,71.1,88.2,73.8Z"/>
      </g>
      <g id="Group_468" data-name="Group 468">
        <path id="Path_615" data-name="Path 615" class="cls-5" d="M51.1,79.5c-6.1.1-10.5,1.1-17.8.3-2.6-.3-5.8-1.4-8.3-1.9C13.6,75.9,2,71.7.4,65c.5,4,2,14.8,3.8,22.2,2.3,9.3,3.3,34.4,3.7,37.2.4,2.7,14.9,20.6,43.9,21.5s35.7-11.8,36.5-12.7,2.8-10,1.7-14.1c-1.2-4.1-.5-11.7,1.4-16.1,1.8-4.4,3.7-14.6,2.8-19.3S96.7,73,96.6,71.4a4.191,4.191,0,0,0-.4-1.5,47.4,47.4,0,0,1-13.4,5.5C72.6,78.2,60.5,79.3,51.1,79.5Z"/>
        <path id="Path_616" data-name="Path 616" class="cls-6" d="M24,82.7c-2.7-.7-5.2.7-7.8,0-1.4-.4-4.9-2.9-6.4-1.4-2.5,2.5,3.3,12.5,3.1,15.8-.2,3.4-2,6.4-2,9.8,0,3.1,2,5.7,2.3,8.7.2,2.5-.6,5.5.5,7.8a36.906,36.906,0,0,0,3.9,6.6c1.8,2.5,5.6,4.1,8.3,5.8,3.4,2.2,7,2.8,10.9,3.6,3.3.6,5.6,1.4,7.2-2,1.7-3.6,1.6-6.7.4-10.4-.9-2.9-3.3-6.1-3-9.2.3-3.4,3.6-6.2,4.5-9.6a10.763,10.763,0,0,0-.2-7.3c-1.1-2.5-3.3-4.7-2.9-7.6.3-2.8,2.3-4.4-1-5.8-2.5-1.1-5.8-.4-8.5-1.2C30,85.4,27.2,83.5,24,82.7Z"/>
      </g>
    </g>
    <g id="Group_487" data-name="Group 487">
      <g id="Group_470" data-name="Group 470">
        <path id="Path_617" data-name="Path 617" class="cls-7" d="M52.6,23c-3.3,4.6-3.8,11.9,1,15.7,4.8,3.7,13.9,4.5,17.9-.3,4.2-5,2.7-14.8-2.2-19C64.6,15.2,56,18.2,52.6,23Z"/>
        <path id="Path_618" data-name="Path 618" class="cls-8" d="M54.9,22.5c-2.6,3.7-3,9.5.8,12.5s11,3.6,14.3-.2c3.4-4,2.2-11.8-1.7-15.1C64.4,16.3,57.6,18.7,54.9,22.5Z"/>
        <path id="Path_619" data-name="Path 619" class="cls-9" d="M57.2,22c-1.1,1.6-1.3,4.1.3,5.4,1.7,1.3,4.8,1.6,6.2-.1,1.5-1.7.9-5.1-.7-6.6C61.3,19.3,58.4,20.3,57.2,22Z"/>
      </g>
      <g id="Group_471" data-name="Group 471">
        <path id="Path_620" data-name="Path 620" class="cls-7" d="M32.9,22.3c-5.4,8.8,7.3,14.5,14.1,10C56.8,25.7,40.3,10,32.9,22.3Z"/>
        <path id="Path_621" data-name="Path 621" class="cls-8" d="M33.5,21.7c-4.2,6.9,5.7,11.4,11,7.8C52.3,24.3,39.4,12,33.5,21.7Z"/>
        <path id="Path_622" data-name="Path 622" class="cls-9" d="M34.7,21.9c-2.1,3.5,2.9,5.8,5.6,4C44.2,23.3,37.6,17.1,34.7,21.9Z"/>
      </g>
      <g id="Group_472" data-name="Group 472">
        <path id="Path_623" data-name="Path 623" class="cls-7" d="M46.3,10.8C58,3.6,69.5,23.3,57.4,27.9,48.2,31.4,36.4,16.8,46.3,10.8Z"/>
        <path id="Path_624" data-name="Path 624" class="cls-8" d="M46.7,10.5C56.5,4.5,66.3,21.1,56,25,48.3,27.9,38.4,15.6,46.7,10.5Z"/>
        <path id="Path_625" data-name="Path 625" class="cls-9" d="M46,11.9c4.2-2.6,8.5,4.6,4,6.3C46.7,19.5,42.4,14.2,46,11.9Z"/>
      </g>
      <g id="Group_473" data-name="Group 473">
        <path id="Path_626" data-name="Path 626" class="cls-7" d="M14.9,35.9c-.5-5.1,5.2-10,9.7-11.2,4.8-1.3,10.8-.3,11.3,5.8C36.9,42.8,16.2,50,14.9,35.9Z"/>
        <path id="Path_627" data-name="Path 627" class="cls-8" d="M15.9,34.7c-.4-4.3,4.3-8.3,8-9.3,4-1.1,8.9-.3,9.4,4.8C34.1,40.4,17,46.3,15.9,34.7Z"/>
        <path id="Path_628" data-name="Path 628" class="cls-9" d="M17,31c-.2-1.7,1.7-3.3,3.1-3.7,1.6-.4,3.5-.1,3.7,1.9C24.2,33.3,17.5,35.6,17,31Z"/>
      </g>
      <g id="Group_474" data-name="Group 474">
        <path id="Path_629" data-name="Path 629" class="cls-7" d="M4.9,72.8C15,79.4,27.4,62,15.7,56.3,4.2,50.8-6.5,65.4,4.9,72.8Z"/>
        <path id="Path_630" data-name="Path 630" class="cls-8" d="M4.3,70.7c8.5,5.5,19-9.1,9.2-13.9C3.7,52.1-5.3,64.4,4.3,70.7Z"/>
        <path id="Path_631" data-name="Path 631" class="cls-9" d="M3.9,64.5c4.4,2.8,9.8-4.7,4.7-7.1C3.6,55-1.1,61.3,3.9,64.5Z"/>
      </g>
      <g id="Group_475" data-name="Group 475">
        <path id="Path_632" data-name="Path 632" class="cls-7" d="M49.3,26.8c-5.6.8-9.9,5-8.4,10.9,1.3,5.2,6.7,7.9,11.6,7.7,5.1-.1,10.9-5.7,10-10.9C61.8,29.4,54.2,26.1,49.3,26.8Z"/>
        <path id="Path_633" data-name="Path 633" class="cls-8" d="M48.9,27.5c-4.5.6-7.9,4-6.7,8.7,1.1,4.1,5.3,6.3,9.3,6.2s8.7-4.5,8-8.7C58.9,29.5,52.8,26.9,48.9,27.5Z"/>
        <path id="Path_634" data-name="Path 634" class="cls-9" d="M46.4,27.8A2.518,2.518,0,0,0,44,30.9a3.246,3.246,0,0,0,3.3,2.2c1.4,0,3.1-1.6,2.8-3.1C49.9,28.5,47.8,27.6,46.4,27.8Z"/>
      </g>
      <g id="Group_476" data-name="Group 476">
        <path id="Path_635" data-name="Path 635" class="cls-7" d="M46.5,42.7c-5.9-1.8-11,1.7-12.8,7.3-2.5,8,6.5,18.2,14.8,14.1C58,59.4,56.1,45.6,46.5,42.7Z"/>
        <path id="Path_636" data-name="Path 636" class="cls-8" d="M44.2,42.6c-4.9-1.5-9.1,1.4-10.5,6.1-2,6.6,5.4,15,12.2,11.6C53.7,56.4,52.1,45,44.2,42.6Z"/>
        <path id="Path_637" data-name="Path 637" class="cls-9" d="M41.3,47.8A3.137,3.137,0,0,0,37.4,50c-.7,2.4,2,5.5,4.5,4.3C44.8,52.9,44.2,48.7,41.3,47.8Z"/>
      </g>
      <g id="Group_477" data-name="Group 477">
        <path id="Path_638" data-name="Path 638" class="cls-7" d="M69.4,36.4a12.668,12.668,0,0,0-4.8,14.2c3.9,10.8,17.1,7.8,22.6.1C95.5,39,79.3,29.8,69.4,36.4Z"/>
        <path id="Path_639" data-name="Path 639" class="cls-8" d="M69.7,35.9a10.3,10.3,0,0,0-3.9,11.6c3.2,8.8,13.9,6.3,18.3.1C90.9,38,77.8,30.6,69.7,35.9Z"/>
        <path id="Path_640" data-name="Path 640" class="cls-9" d="M70.3,37.2a4.806,4.806,0,0,0-1.8,5.2c1.4,4,6.2,2.9,8.2,0C79.8,38.1,73.9,34.8,70.3,37.2Z"/>
      </g>
      <g id="Group_478" data-name="Group 478">
        <path id="Path_641" data-name="Path 641" class="cls-7" d="M19.4,40.5C14.6,38,10.5,40.3,8,44.9c-3.5,6.6,1.9,16,9.8,14C28.1,56.3,28.2,45.1,19.4,40.5Z"/>
        <path id="Path_642" data-name="Path 642" class="cls-8" d="M17.2,40.9c-3.7-1.9-6.9-.2-8.8,3.4C5.7,49.3,9.8,56.6,16,55,23.9,53.1,24,44.4,17.2,40.9Z"/>
        <path id="Path_643" data-name="Path 643" class="cls-9" d="M13.6,41.6c-1.9-1-3.5-.1-4.4,1.7-1.4,2.5.7,6.2,3.8,5.4C17,47.8,17,43.4,13.6,41.6Z"/>
      </g>
      <g id="Group_479" data-name="Group 479">
        <path id="Path_644" data-name="Path 644" class="cls-7" d="M23.2,59.9c-4.4,3-7,10-3.2,14.3,3.4,3.8,10.9,4.3,15.3,2C48.1,69.6,34.9,52,23.2,59.9Z"/>
        <path id="Path_645" data-name="Path 645" class="cls-8" d="M23.6,60C20.1,62.4,18,68,21,71.4c2.7,3,8.7,3.4,12.2,1.6C43.5,67.8,33,53.7,23.6,60Z"/>
      </g>
      <g id="Group_480" data-name="Group 480">
        <path id="Path_646" data-name="Path 646" class="cls-7" d="M65.1,77.1C70,78.8,76.8,79,79.6,73.7c4.8-9.2-5.5-24.4-15.7-17.6C55.5,61.7,54.8,73.4,65.1,77.1Z"/>
        <path id="Path_647" data-name="Path 647" class="cls-8" d="M64.7,74.9c4.3,1.5,10.3,1.7,12.7-3,4.2-8.1-4.8-21.4-13.8-15.4C56.3,61.4,55.7,71.7,64.7,74.9Z"/>
        <path id="Path_648" data-name="Path 648" class="cls-9" d="M65.2,67.7c1.8.6,4.3.7,5.3-1.2,1.8-3.4-2-8.9-5.7-6.4C61.7,62.1,61.4,66.4,65.2,67.7Z"/>
      </g>
      <g id="Group_481" data-name="Group 481">
        <path id="Path_649" data-name="Path 649" class="cls-7" d="M33.9,73.2c5.2,14.9,31.3,9.3,25.8-6.3C55.3,54.1,28.8,58.6,33.9,73.2Z"/>
        <path id="Path_650" data-name="Path 650" class="cls-8" d="M35.6,71.8c4.5,12.9,27.1,8.1,22.4-5.5C54.1,55.3,31.2,59.2,35.6,71.8Z"/>
        <path id="Path_651" data-name="Path 651" class="cls-9" d="M36.6,67.2c2.1,5.9,12.4,3.7,10.2-2.5C45,59.6,34.5,61.4,36.6,67.2Z"/>
      </g>
      <g id="Group_482" data-name="Group 482">
        <path id="Path_652" data-name="Path 652" class="cls-7" d="M33.8,47.8a8,8,0,0,1,2,2.4C43,61.6,25.2,70.8,17,61.7,8.5,52.2,25.4,40.9,33.8,47.8Z"/>
        <path id="Path_653" data-name="Path 653" class="cls-8" d="M31.1,48.3a8.523,8.523,0,0,1,1.7,2c6.1,9.8-9,17.6-16,9.9C9.6,52,24,42.4,31.1,48.3Z"/>
        <path id="Path_654" data-name="Path 654" class="cls-9" d="M25.7,49.6a2.178,2.178,0,0,1,.7.9c2.6,4.2-3.9,7.5-6.9,4.2C16.4,51.2,22.6,47.1,25.7,49.6Z"/>
      </g>
      <g id="Group_483" data-name="Group 483">
        <path id="Path_655" data-name="Path 655" class="cls-7" d="M23.2,45.6c6.5,10.5,23,2.9,20.5-8.9C40.9,23.1,15.8,33.6,23.2,45.6Z"/>
        <path id="Path_656" data-name="Path 656" class="cls-8" d="M24.6,43.6c5.4,8.8,18.1,2.1,16-7.8C38.2,24.3,18.4,33.5,24.6,43.6Z"/>
        <path id="Path_657" data-name="Path 657" class="cls-9" d="M33.4,32.1a2.178,2.178,0,0,1,.7.9c2.6,4.2-3.9,7.5-6.9,4.2C24.1,33.7,30.3,29.6,33.4,32.1Z"/>
      </g>
      <g id="Group_484" data-name="Group 484">
        <path id="Path_658" data-name="Path 658" class="cls-7" d="M53.2,43.9C49,47,46.8,53.5,49.3,58.4c5.6,10.8,21.6,3.6,23-6.4C74,40.5,60.8,38.5,53.2,43.9Z"/>
        <path id="Path_659" data-name="Path 659" class="cls-8" d="M52.7,44.1c-3.5,2.6-5.3,8-3.2,12.1,4.6,9,17.9,3,19.1-5.4C70,41.3,59,39.5,52.7,44.1Z"/>
        <path id="Path_660" data-name="Path 660" class="cls-9" d="M54.3,45.7a3.382,3.382,0,0,0-1.1,4c1.5,3,5.9,1,6.3-1.8C60,44.8,56.4,44.2,54.3,45.7Z"/>
      </g>
      <g id="Group_485" data-name="Group 485">
        <path id="Path_661" data-name="Path 661" class="cls-7" d="M87.2,41.9c2.5-4,8.8-4.4,12.3-2,3.7,2.5,5.8,8.2,4.7,12.7-1.2,4.9-10.2,7.5-14.6,4C85.6,53.4,84.5,46.3,87.2,41.9Z"/>
        <path id="Path_662" data-name="Path 662" class="cls-8" d="M87.3,41.4c2.1-3.4,7.5-3.7,10.6-1.7,3.2,2.2,4.9,7.1,4,10.9-1,4.2-8.8,6.4-12.5,3.4C85.9,51.2,85,45.2,87.3,41.4Z"/>
        <path id="Path_663" data-name="Path 663" class="cls-9" d="M90.9,39.5a3.382,3.382,0,0,0-1.1,4c1.5,3,5.9,1,6.3-1.8C96.6,38.5,92.9,38,90.9,39.5Z"/>
      </g>
      <g id="Group_486" data-name="Group 486">
        <path id="Path_664" data-name="Path 664" class="cls-7" d="M76.2,67.9c3.7,3.8,11.2,5.2,16,2.7,5.3-2.7,7.1-10.5,3.2-15.1C86.9,45.3,65.5,56.9,76.2,67.9Z"/>
        <path id="Path_665" data-name="Path 665" class="cls-8" d="M76.2,66.2c3.2,3.3,9.6,4.4,13.7,2.3,4.5-2.3,6-9,2.7-12.9C85.3,47,67.1,56.9,76.2,66.2Z"/>
        <path id="Path_666" data-name="Path 666" class="cls-9" d="M79.9,56.9a3.382,3.382,0,0,0-1.1,4c1.5,3,5.9,1,6.3-1.8C85.6,55.9,82,55.4,79.9,56.9Z"/>
      </g>
    </g>
  </g>
</svg>
