<svg xmlns="http://www.w3.org/2000/svg" xmlns:xlink="http://www.w3.org/1999/xlink" viewBox="9 140 157.113 82.513">
  <defs>
    <style>
      .cls-1 {
        fill: #f6aa38;
      }

      .cls-2, .cls-6 {
        fill: none;
      }

      .cls-3 {
        fill: #fff;
        font-size: 18px;
        font-family: Moon-Bold, Moon;
        font-weight: 700;
      }

      .cls-4 {
        fill: url(#linear-gradient);
      }

      .cls-5 {
        clip-path: url(#clip-path);
      }

      .cls-6 {
        stroke: #000;
        stroke-miterlimit: 10;
      }

      .cls-7 {
        fill: url(#linear-gradient-2);
      }

      .cls-8 {
        clip-path: url(#clip-path-2);
      }
    </style>
    <linearGradient id="linear-gradient" x1="1.435" y1="-3.111" x2="1.435" y2="-3.571" gradientUnits="objectBoundingBox">
      <stop offset="0" stop-color="#cf8d5d"/>
      <stop offset="0.489" stop-color="#ad6830"/>
      <stop offset="0.689" stop-color="#6e3f12"/>
      <stop offset="1" stop-color="#cf8d5d"/>
    </linearGradient>
    <clipPath id="clip-path">
      <path id="Path_1093" data-name="Path 1093" d="M124.3,11.1v.3l30.4-3a1.155,1.155,0,0,0,1.1-1.3l-.6-5.9A1.208,1.208,0,0,0,153.9.1l-30.5,4a.908.908,0,0,1,.3.7Z"/>
    </clipPath>
    <linearGradient id="linear-gradient-2" x1="1.354" y1="-8.225" x2="1.354" y2="-8.964" xlink:href="#linear-gradient"/>
    <clipPath id="clip-path-2">
      <path id="Path_1096" data-name="Path 1096" d="M125.3,24.7V25l30.5-.8A1.216,1.216,0,0,0,157,23l-.2-6a1.24,1.24,0,0,0-1.3-1.2l-30.7,1.7a1.08,1.08,0,0,1,.3.7Z"/>
    </clipPath>
  </defs>
  <g id="Group_503" data-name="Group 503" transform="translate(9.013 139.913)">
    <path id="Path_1089" data-name="Path 1089" class="cls-1" d="M156,61.4H1.4a1,1,0,0,1-1-1v-23a1,1,0,0,1,1-1H156a1,1,0,0,1,1,1v23A.945.945,0,0,1,156,61.4Z"/>
    <rect id="Rectangle_12" data-name="Rectangle 12" class="cls-2" width="149.8" height="17" transform="translate(4.9 42.2)"/>
    <text id="sTART_TO_oRDER" data-name="sTART TO oRDER" class="cls-3" transform="translate(4.948 54.856)"><tspan x="0" y="0">sTART TO oRDER</tspan></text>
    <path id="Path_1090" data-name="Path 1090" class="cls-1" d="M75.3,82.6,88.6,59.7H62.1Z"/>
    <g id="Group_497" data-name="Group 497">
      <g id="Group_493" data-name="Group 493">
        <path id="Path_1091" data-name="Path 1091" class="cls-4" d="M1.5,23.5A1.109,1.109,0,0,1,.2,22.4L0,20.8a1.244,1.244,0,0,1,1.1-1.4L153.9.1a1.109,1.109,0,0,1,1.3,1.1l.6,5.9a1.109,1.109,0,0,1-1.1,1.3Z"/>
      </g>
      <g id="Group_494" data-name="Group 494">
        <path id="Path_1092" data-name="Path 1092" class="cls-1" d="M124.3,11.1v.3l30.4-3a1.155,1.155,0,0,0,1.1-1.3l-.6-5.9A1.208,1.208,0,0,0,153.9.1l-30.5,4a.908.908,0,0,1,.3.7Z"/>
      </g>
      <g id="Group_496" data-name="Group 496">
        <g id="Group_495" data-name="Group 495" class="cls-5">
          <line id="Line_1" data-name="Line 1" class="cls-6" x1="1.3" y1="9.5" transform="translate(148.1 0.1)"/>
          <line id="Line_2" data-name="Line 2" class="cls-6" x1="1.3" y1="9.6" transform="translate(144.9 0.5)"/>
        </g>
      </g>
    </g>
    <g id="Group_502" data-name="Group 502">
      <g id="Group_498" data-name="Group 498">
        <path id="Path_1094" data-name="Path 1094" class="cls-7" d="M2,29A1.3,1.3,0,0,1,.7,27.8V26.2a1.24,1.24,0,0,1,1.2-1.3l153.7-9.1a1.305,1.305,0,0,1,1.3,1.2l.2,6a1.155,1.155,0,0,1-1.2,1.2Z"/>
      </g>
      <g id="Group_499" data-name="Group 499">
        <path id="Path_1095" data-name="Path 1095" class="cls-1" d="M125.3,24.7V25l30.5-.8A1.216,1.216,0,0,0,157,23l-.2-6a1.24,1.24,0,0,0-1.3-1.2l-30.7,1.7a1.08,1.08,0,0,1,.3.7Z"/>
      </g>
      <g id="Group_501" data-name="Group 501">
        <g id="Group_500" data-name="Group 500" class="cls-8">
          <line id="Line_3" data-name="Line 3" class="cls-6" x1="0.6" y1="9.7" transform="translate(149.8 15.4)"/>
          <line id="Line_4" data-name="Line 4" class="cls-6" x1="0.6" y1="9.6" transform="translate(146.6 15.7)"/>
        </g>
      </g>
    </g>
  </g>
</svg>
